<svg width="14" height="14" viewBox="0 0 14 14" fill="none" xmlns="http://www.w3.org/2000/svg">
<path d="M11.35 3.66667H9.7V3.11111C9.7 2.81643 9.58411 2.53381 9.37782 2.32544C9.17153 2.11706 8.89174 2 8.6 2H6.4C6.10826 2 5.82847 2.11706 5.62218 2.32544C5.41589 2.53381 5.3 2.81643 5.3 3.11111V3.66667H3.65C3.21239 3.66667 2.79271 3.84226 2.48327 4.15482C2.17384 4.46738 2 4.89131 2 5.33333V10.3333C2 10.7754 2.17384 11.1993 2.48327 11.5118C2.79271 11.8244 3.21239 12 3.65 12H11.35C11.7876 12 12.2073 11.8244 12.5167 11.5118C12.8262 11.1993 13 10.7754 13 10.3333V5.33333C13 4.89131 12.8262 4.46738 12.5167 4.15482C12.2073 3.84226 11.7876 3.66667 11.35 3.66667ZM6.4 3.11111H8.6V3.66667H6.4V3.11111ZM11.9 10.3333C11.9 10.4807 11.8421 10.622 11.7389 10.7262C11.6358 10.8304 11.4959 10.8889 11.35 10.8889H3.65C3.50413 10.8889 3.36424 10.8304 3.26109 10.7262C3.15795 10.622 3.1 10.4807 3.1 10.3333V7.55556H5.3V8.11111C5.3 8.25845 5.35795 8.39976 5.46109 8.50395C5.56424 8.60814 5.70413 8.66667 5.85 8.66667C5.99587 8.66667 6.13576 8.60814 6.23891 8.50395C6.34205 8.39976 6.4 8.25845 6.4 8.11111V7.55556H8.6V8.11111C8.6 8.25845 8.65795 8.39976 8.76109 8.50395C8.86424 8.60814 9.00413 8.66667 9.15 8.66667C9.29587 8.66667 9.43576 8.60814 9.53891 8.50395C9.64205 8.39976 9.7 8.25845 9.7 8.11111V7.55556H11.9V10.3333ZM11.9 6.44444H3.1V5.33333C3.1 5.18599 3.15795 5.04468 3.26109 4.9405C3.36424 4.83631 3.50413 4.77778 3.65 4.77778H11.35C11.4959 4.77778 11.6358 4.83631 11.7389 4.9405C11.8421 5.04468 11.9 5.18599 11.9 5.33333V6.44444Z" fill="#7D8088"/>
</svg>
