<svg width="14" height="14" viewBox="0 0 14 14" fill="none" xmlns="http://www.w3.org/2000/svg">
<path d="M11.1986 6.79172C11.0826 6.79172 10.9615 6.75473 10.8455 6.72831C10.6108 6.67643 10.3801 6.60755 10.1553 6.52222C9.91088 6.43304 9.6422 6.43767 9.40097 6.53523C9.15974 6.63278 8.963 6.81636 8.84862 7.05065L8.73271 7.28844C8.21952 7.00213 7.74794 6.64652 7.33118 6.23159C6.91745 5.81361 6.56288 5.34066 6.27739 4.82597L6.49869 4.67801C6.73229 4.5633 6.91534 4.36599 7.01262 4.12406C7.10989 3.88213 7.1145 3.61266 7.02558 3.36752C6.94192 3.14157 6.87327 2.91032 6.82009 2.67528C6.79375 2.55903 6.77267 2.43749 6.75687 2.31595C6.69288 1.94374 6.49849 1.60666 6.2087 1.36544C5.91891 1.12421 5.55276 0.994677 5.17619 1.00017H3.59552C3.36844 0.998029 3.14357 1.04499 2.93622 1.13784C2.72887 1.23069 2.5439 1.36726 2.3939 1.53825C2.24391 1.70925 2.13241 1.91064 2.067 2.12874C2.00159 2.34683 1.9838 2.57649 2.01484 2.8021C2.29554 5.01588 3.30363 7.07278 4.87989 8.64789C6.45616 10.223 8.51073 11.2265 10.7191 11.5H10.9193C11.3078 11.5006 11.683 11.3576 11.9731 11.0984C12.1398 10.9489 12.2729 10.7656 12.3638 10.5606C12.4546 10.3557 12.501 10.1337 12.5 9.90944V8.32416C12.4935 7.9571 12.3603 7.60367 12.1229 7.3242C11.8856 7.04472 11.5589 6.85652 11.1986 6.79172ZM11.462 9.96228C11.4619 10.0373 11.4459 10.1115 11.415 10.1798C11.3841 10.2481 11.3391 10.3091 11.2829 10.3586C11.224 10.4096 11.1551 10.4477 11.0807 10.4704C11.0063 10.4932 10.928 10.5001 10.8508 10.4907C8.87755 10.237 7.04467 9.33159 5.64129 7.91742C4.2379 6.50325 3.34388 4.66075 3.10024 2.68056C3.09185 2.60316 3.0992 2.52485 3.12184 2.45038C3.14448 2.3759 3.18194 2.3068 3.23196 2.24725C3.28134 2.19089 3.34211 2.14571 3.41025 2.11473C3.47839 2.08376 3.55232 2.06768 3.62713 2.06759H5.2078C5.33033 2.06485 5.44998 2.10504 5.54614 2.18124C5.64231 2.25743 5.70899 2.36487 5.7347 2.48505C5.75577 2.62948 5.78212 2.77216 5.81373 2.91307C5.8746 3.19163 5.9556 3.46537 6.0561 3.73213L5.31845 4.07561C5.25538 4.10463 5.19865 4.14586 5.15151 4.19693C5.10437 4.24801 5.06776 4.30791 5.04377 4.37322C5.01978 4.43852 5.00889 4.50793 5.01172 4.57747C5.01455 4.647 5.03105 4.71529 5.06027 4.77842C5.81858 6.40742 7.12424 7.71689 8.74852 8.4774C8.87679 8.53025 9.02068 8.53025 9.14895 8.4774C9.21466 8.45383 9.27505 8.4174 9.32661 8.37023C9.37816 8.32306 9.41986 8.26609 9.44928 8.20262L9.77595 7.46282C10.0483 7.56052 10.3263 7.64169 10.6084 7.7059C10.7489 7.7376 10.8912 7.76402 11.0352 7.78516C11.1551 7.81094 11.2622 7.87781 11.3382 7.97426C11.4141 8.07071 11.4542 8.1907 11.4515 8.31359L11.462 9.96228Z" fill="#7D7F88"/>
</svg>
