<svg width="12" height="12" viewBox="0 0 12 12" fill="none" xmlns="http://www.w3.org/2000/svg">
<path d="M1.2 10.9H0.7V11.4C0.7 11.455 0.655063 11.5 0.6 11.5C0.544937 11.5 0.5 11.455 0.5 11.4V10.2C0.5 10.1449 0.544937 10.1 0.6 10.1C0.655063 10.1 0.7 10.1449 0.7 10.2V10.7H1.2H9H9.5V10.2C9.5 10.1449 9.54493 10.1 9.6 10.1C9.65506 10.1 9.7 10.1449 9.7 10.2V11.4C9.7 11.455 9.65506 11.5 9.6 11.5C9.54493 11.5 9.5 11.455 9.5 11.4V10.9H9H1.2ZM10.9 7.20001V7.70001H11.4C11.4551 7.70001 11.5 7.74496 11.5 7.80001C11.5 7.85505 11.4551 7.9 11.4 7.9H10.2C10.1449 7.9 10.1 7.85505 10.1 7.80001C10.1 7.74496 10.1449 7.70001 10.2 7.70001H10.7V7.20001V1.80008V1.30008H10.2C10.1449 1.30008 10.1 1.25514 10.1 1.20009C10.1 1.14504 10.1449 1.1001 10.2 1.1001H11.4C11.4551 1.1001 11.5 1.14504 11.5 1.20009C11.5 1.25514 11.4551 1.30008 11.4 1.30008H10.9V1.80008V7.20001Z" fill="#4681F4" stroke="#4681F4"/>
<rect width="8" height="8" rx="1" fill="#4681F4"/>
</svg>
