<svg width="10" height="11" viewBox="0 0 10 11" fill="none" xmlns="http://www.w3.org/2000/svg">
<path d="M9.72728 4.29019L5.56028 0.233312C5.40722 0.0832251 5.20721 -1.50713e-05 4.99968 2.04679e-09C4.79215 1.50754e-05 4.59216 0.0832843 4.43912 0.233393L0.27283 4.29017C0.186994 4.37388 0.118402 4.47583 0.071435 4.58953C0.0244677 4.70323 0.000157189 4.82616 5.59011e-05 4.95049V10.0871C-0.00233374 10.3114 0.0719633 10.5289 0.208943 10.6985C0.28698 10.7935 0.383075 10.8696 0.490789 10.9215C0.598502 10.9735 0.715345 11.0002 0.833489 10.9999H3.33154C3.44205 10.9999 3.54803 10.9529 3.62617 10.8692C3.70431 10.7856 3.7482 10.6721 3.7482 10.5537V7.87609C3.7482 7.75775 3.7921 7.64425 3.87024 7.56057C3.94838 7.47689 4.05436 7.42988 4.16487 7.42988H5.83153C5.94203 7.42988 6.04801 7.47689 6.12615 7.56057C6.20429 7.64425 6.24819 7.75775 6.24819 7.87609V10.5537C6.24819 10.6721 6.29209 10.7856 6.37023 10.8692C6.44837 10.9529 6.55435 10.9999 6.66485 10.9999H9.16783C9.30473 11.0018 9.43981 10.9662 9.56022 10.8964C9.69312 10.8196 9.80416 10.7057 9.88158 10.5668C9.95899 10.428 9.99991 10.2693 10 10.1075V4.95051C9.99989 4.82619 9.97558 4.70326 9.92862 4.58957C9.88167 4.47588 9.81309 4.37392 9.72728 4.29019Z" fill="#4681F4"/>
</svg>
