<svg width="12" height="12" viewBox="0 0 12 12" fill="none" xmlns="http://www.w3.org/2000/svg">
<path fill-rule="evenodd" clip-rule="evenodd" d="M0.765266 6.15261L5.92081 11.2323C6.27342 11.5892 6.84867 11.5892 7.20134 11.2323L11.7355 6.64406C12.0882 6.28724 12.0882 5.70513 11.7355 5.34822L6.58002 0.268424C6.39894 0.0852126 6.17662 -0.00517461 5.92055 0.000228653L2.24487 0.0788109C1.80682 0.0881197 1.41498 0.262581 1.08729 0.594294C0.759491 0.926007 0.587089 1.32241 0.577889 1.76572L0.500233 5.48528C0.494806 5.7444 0.584215 5.9694 0.765266 6.15261ZM3.21899 2.75146C3.64949 2.31582 4.34745 2.31582 4.77795 2.75146C5.20845 3.1871 5.20845 3.8934 4.77795 4.32901C4.34745 4.76464 3.64948 4.76464 3.2189 4.32901C2.7884 3.8934 2.7884 3.1871 3.21899 2.75146Z" fill="#4681F4"/>
</svg>
