<svg width="12" height="11" viewBox="0 0 12 11" fill="none" xmlns="http://www.w3.org/2000/svg">
<path d="M11.5385 10.0833V3.20833C11.5385 3.08678 11.4898 2.9702 11.4033 2.88424C11.3167 2.79829 11.1993 2.75 11.0769 2.75H6V0.458333C6 0.336776 5.95137 0.220197 5.86482 0.134243C5.77826 0.0482886 5.66087 0 5.53846 0H0.923077C0.800669 0 0.683275 0.0482886 0.59672 0.134243C0.510165 0.220197 0.461538 0.336776 0.461538 0.458333V10.0833C0.339131 10.0833 0.221737 10.1316 0.135181 10.2176C0.0486262 10.3035 0 10.4201 0 10.5417C0 10.6632 0.0486262 10.7798 0.135181 10.8658C0.221737 10.9517 0.339131 11 0.461538 11H1.84615V7.79167C1.84615 7.67011 1.89478 7.55353 1.98134 7.46758C2.06789 7.38162 2.18528 7.33333 2.30769 7.33333H4.15385C4.27625 7.33333 4.39365 7.38162 4.4802 7.46758C4.56676 7.55353 4.61538 7.67011 4.61538 7.79167V11H6.92308V7.79167C6.92308 7.67011 6.9717 7.55353 7.05826 7.46758C7.14481 7.38162 7.26221 7.33333 7.38462 7.33333H9.23077C9.35318 7.33333 9.47057 7.38162 9.55713 7.46758C9.64368 7.55353 9.69231 7.67011 9.69231 7.79167V11H11.5385C11.6609 11 11.7783 10.9517 11.8648 10.8658C11.9514 10.7798 12 10.6632 12 10.5417C12 10.4201 11.9514 10.3035 11.8648 10.2176C11.7783 10.1316 11.6609 10.0833 11.5385 10.0833ZM3.69231 4.58333H2.76923C2.64682 4.58333 2.52943 4.53504 2.44287 4.44909C2.35632 4.36314 2.30769 4.24656 2.30769 4.125C2.30769 4.00344 2.35632 3.88686 2.44287 3.80091C2.52943 3.71496 2.64682 3.66667 2.76923 3.66667H3.69231C3.81472 3.66667 3.93211 3.71496 4.01866 3.80091C4.10522 3.88686 4.15385 4.00344 4.15385 4.125C4.15385 4.24656 4.10522 4.36314 4.01866 4.44909C3.93211 4.53504 3.81472 4.58333 3.69231 4.58333ZM3.69231 2.75H2.76923C2.64682 2.75 2.52943 2.70171 2.44287 2.61576C2.35632 2.5298 2.30769 2.41322 2.30769 2.29167C2.30769 2.17011 2.35632 2.05353 2.44287 1.96758C2.52943 1.88162 2.64682 1.83333 2.76923 1.83333H3.69231C3.81472 1.83333 3.93211 1.88162 4.01866 1.96758C4.10522 2.05353 4.15385 2.17011 4.15385 2.29167C4.15385 2.41322 4.10522 2.5298 4.01866 2.61576C3.93211 2.70171 3.81472 2.75 3.69231 2.75ZM8.76923 5.5H7.84615C7.72375 5.5 7.60635 5.45171 7.5198 5.36576C7.43324 5.2798 7.38462 5.16322 7.38462 5.04167C7.38462 4.92011 7.43324 4.80353 7.5198 4.71758C7.60635 4.63162 7.72375 4.58333 7.84615 4.58333H8.76923C8.89164 4.58333 9.00903 4.63162 9.09559 4.71758C9.18214 4.80353 9.23077 4.92011 9.23077 5.04167C9.23077 5.16322 9.18214 5.2798 9.09559 5.36576C9.00903 5.45171 8.89164 5.5 8.76923 5.5Z" fill="#4681F4"/>
</svg>
