<svg width="18" height="18" viewBox="0 0 18 18" fill="none" xmlns="http://www.w3.org/2000/svg">
<path d="M8.99994 17.0625C5.09994 17.0625 1.93494 13.89 1.93494 9.99748C1.93494 8.59498 2.34744 7.23748 3.12744 6.06748C3.29994 5.81248 3.65244 5.73748 3.90744 5.90998C4.16244 6.08248 4.23744 6.43498 4.06494 6.68998C3.41244 7.66498 3.06744 8.81248 3.06744 9.98998C3.06744 13.2675 5.72994 15.93 9.00744 15.93C12.2849 15.93 14.9474 13.2675 14.9474 9.98998C14.9474 6.71248 12.2774 4.04998 8.99994 4.04998C8.30994 4.04998 7.63494 4.14748 6.99744 4.34248C6.69744 4.43248 6.38244 4.26748 6.29244 3.96748C6.20244 3.66748 6.36744 3.35248 6.66744 3.26248C7.41744 3.03748 8.19744 2.91748 8.99994 2.91748C12.8999 2.91748 16.0649 6.08998 16.0649 9.98248C16.0649 13.875 12.8999 17.0625 8.99994 17.0625Z" fill="#4681F4" stroke="#4681F4"/>
<path d="M5.90253 4.55259C5.77503 4.55259 5.64003 4.50759 5.53503 4.41759C5.29503 4.20759 5.27253 3.85509 5.47503 3.62259L7.64252 1.13259C7.84503 0.900091 8.20503 0.870091 8.43753 1.08009C8.67003 1.28259 8.69253 1.64259 8.49003 1.87509L6.32253 4.35759C6.21003 4.48509 6.05253 4.55259 5.90253 4.55259Z" fill="#4681F4" stroke="#4681F4"/>
<path d="M8.43006 6.39759C8.31756 6.39759 8.19756 6.36009 8.10006 6.29259L5.56506 4.44009C5.31756 4.26009 5.26506 3.90759 5.44506 3.66009C5.62506 3.40509 5.97756 3.35259 6.23256 3.53259L8.76006 5.37759C9.00756 5.55759 9.06756 5.91009 8.88006 6.16509C8.77506 6.32259 8.60256 6.39759 8.43006 6.39759Z" fill="#4681F4" stroke="#4681F4"/>
</svg>
