<svg width="12" height="12" viewBox="0 0 12 12" fill="none" xmlns="http://www.w3.org/2000/svg">
<path d="M11.7975 4.94955L6.3961 0.14925C6.28658 0.0530525 6.14578 0 6 0C5.85422 0 5.71342 0.0530525 5.6039 0.14925L0.202512 4.94955C0.11071 5.03075 0.0459726 5.13809 0.017004 5.25716C-0.0119646 5.37623 -0.0037755 5.50132 0.0404704 5.6156C0.0839925 5.72836 0.160564 5.82536 0.260156 5.89389C0.359749 5.96241 0.477718 5.99926 0.598614 5.99962H1.19877V11.4C1.19877 11.5591 1.262 11.7117 1.37455 11.8243C1.4871 11.9368 1.63975 12 1.79892 12H10.2011C10.3602 12 10.5129 11.9368 10.6255 11.8243C10.738 11.7117 10.8012 11.5591 10.8012 11.4V5.99962H11.4014C11.5223 5.99926 11.6403 5.96241 11.7398 5.89389C11.8394 5.82536 11.916 5.72836 11.9595 5.6156C12.0038 5.50132 12.012 5.37623 11.983 5.25716C11.954 5.13809 11.8893 5.03075 11.7975 4.94955ZM6.60015 10.7999H5.39985V8.99981C5.39985 8.84067 5.46308 8.68805 5.57563 8.57552C5.68818 8.46299 5.84083 8.39977 6 8.39977C6.15917 8.39977 6.31182 8.46299 6.42437 8.57552C6.53692 8.68805 6.60015 8.84067 6.60015 8.99981V10.7999ZM9.60092 10.7999H7.80046V8.99981C7.80046 8.52239 7.61077 8.06452 7.27312 7.72694C6.93547 7.38935 6.47751 7.1997 6 7.1997C5.52249 7.1997 5.06453 7.38935 4.72688 7.72694C4.38923 8.06452 4.19954 8.52239 4.19954 8.99981V10.7999H2.39908V5.99962H9.60092V10.7999Z" fill="#4681F4"/>
</svg>
