<svg width="14" height="9" viewBox="0 0 14 9" fill="none" xmlns="http://www.w3.org/2000/svg">
<path d="M8.05 9H1.19C0.874393 9 0.571711 8.86454 0.348543 8.62342C0.125375 8.3823 0 8.05528 0 7.71429V1.28571C0 0.944722 0.125375 0.617695 0.348543 0.376577C0.571711 0.135459 0.874393 0 1.19 0H8.05C8.36561 0 8.66829 0.135459 8.89146 0.376577C9.11462 0.617695 9.24 0.944722 9.24 1.28571V7.71429C9.24 8.05528 9.11462 8.3823 8.89146 8.62342C8.66829 8.86454 8.36561 9 8.05 9ZM10.43 2.57143V6.42857L13.0748 8.334C13.1644 8.39862 13.2686 8.43573 13.3763 8.44135C13.4839 8.44697 13.591 8.42089 13.686 8.36591C13.781 8.31093 13.8604 8.2291 13.9157 8.12916C13.971 8.02923 14.0001 7.91494 14 7.7985V1.2015C14 1.08512 13.9708 0.970909 13.9154 0.871066C13.8601 0.771222 13.7807 0.689487 13.6857 0.634581C13.5907 0.579675 13.4837 0.553657 13.3761 0.559303C13.2685 0.56495 13.1644 0.602049 13.0748 0.666643L10.43 2.57143Z" fill="#4681F4"/>
</svg>
