<svg width="33" height="43" viewBox="0 0 33 43" fill="none" xmlns="http://www.w3.org/2000/svg">
<path d="M17.8889 20C17.3366 20 16.8889 19.5523 16.8889 19V12.1111C16.8889 11.5588 17.3366 11.1111 17.8889 11.1111H23C23.5523 11.1111 24 11.5588 24 12.1111V19C24 19.5523 23.5523 20 23 20H17.8889ZM9 12.8889C8.44771 12.8889 8 12.4412 8 11.8889V5C8 4.44772 8.44772 4 9 4H14.1111C14.6634 4 15.1111 4.44772 15.1111 5V11.8889C15.1111 12.4412 14.6634 12.8889 14.1111 12.8889H9ZM9 20C8.44771 20 8 19.5523 8 19V15.6667C8 15.1144 8.44772 14.6667 9 14.6667H14.1111C14.6634 14.6667 15.1111 15.1144 15.1111 15.6667V19C15.1111 19.5523 14.6634 20 14.1111 20H9ZM16.8889 5C16.8889 4.44772 17.3366 4 17.8889 4H23C23.5523 4 24 4.44772 24 5V8.33333C24 8.88562 23.5523 9.33333 23 9.33333H17.8889C17.3366 9.33333 16.8889 8.88562 16.8889 8.33333V5Z" fill="#4681F4"/>
<path d="M6.50391 35.0312V36.1973H1.97461V35.0312H6.50391ZM2.33789 31.4688V40H0.867188V31.4688H2.33789ZM7.63477 31.4688V40H6.16992V31.4688H7.63477ZM8.97656 36.9004V36.7656C8.97656 36.3086 9.04297 35.8848 9.17578 35.4941C9.30859 35.0996 9.5 34.7578 9.75 34.4688C10.0039 34.1758 10.3125 33.9492 10.6758 33.7891C11.043 33.625 11.457 33.543 11.918 33.543C12.3828 33.543 12.7969 33.625 13.1602 33.7891C13.5273 33.9492 13.8379 34.1758 14.0918 34.4688C14.3457 34.7578 14.5391 35.0996 14.6719 35.4941C14.8047 35.8848 14.8711 36.3086 14.8711 36.7656V36.9004C14.8711 37.3574 14.8047 37.7812 14.6719 38.1719C14.5391 38.5625 14.3457 38.9043 14.0918 39.1973C13.8379 39.4863 13.5293 39.7129 13.166 39.877C12.8027 40.0371 12.3906 40.1172 11.9297 40.1172C11.4648 40.1172 11.0488 40.0371 10.6816 39.877C10.3184 39.7129 10.0098 39.4863 9.75586 39.1973C9.50195 38.9043 9.30859 38.5625 9.17578 38.1719C9.04297 37.7812 8.97656 37.3574 8.97656 36.9004ZM10.3887 36.7656V36.9004C10.3887 37.1855 10.418 37.4551 10.4766 37.709C10.5352 37.9629 10.627 38.1855 10.752 38.377C10.877 38.5684 11.0371 38.7188 11.2324 38.8281C11.4277 38.9375 11.6602 38.9922 11.9297 38.9922C12.1914 38.9922 12.418 38.9375 12.6094 38.8281C12.8047 38.7188 12.9648 38.5684 13.0898 38.377C13.2148 38.1855 13.3066 37.9629 13.3652 37.709C13.4277 37.4551 13.459 37.1855 13.459 36.9004V36.7656C13.459 36.4844 13.4277 36.2188 13.3652 35.9688C13.3066 35.7148 13.2129 35.4902 13.084 35.2949C12.959 35.0996 12.7988 34.9473 12.6035 34.8379C12.4121 34.7246 12.1836 34.668 11.918 34.668C11.6523 34.668 11.4219 34.7246 11.2266 34.8379C11.0352 34.9473 10.877 35.0996 10.752 35.2949C10.627 35.4902 10.5352 35.7148 10.4766 35.9688C10.418 36.2188 10.3887 36.4844 10.3887 36.7656ZM17.4668 34.9492V40H16.0547V33.6602H17.3848L17.4668 34.9492ZM17.2383 36.5957L16.7578 36.5898C16.7578 36.1523 16.8125 35.748 16.9219 35.377C17.0312 35.0059 17.1914 34.6836 17.4023 34.4102C17.6133 34.1328 17.875 33.9199 18.1875 33.7715C18.5039 33.6191 18.8691 33.543 19.2832 33.543C19.5723 33.543 19.8359 33.5859 20.0742 33.6719C20.3164 33.7539 20.5254 33.8848 20.7012 34.0645C20.8809 34.2441 21.0176 34.4746 21.1113 34.7559C21.209 35.0371 21.2578 35.377 21.2578 35.7754V40H19.8457V35.8984C19.8457 35.5898 19.7988 35.3477 19.7051 35.1719C19.6152 34.9961 19.4844 34.8711 19.3125 34.7969C19.1445 34.7188 18.9434 34.6797 18.709 34.6797C18.4434 34.6797 18.2168 34.7305 18.0293 34.832C17.8457 34.9336 17.6953 35.0723 17.5781 35.248C17.4609 35.4238 17.375 35.627 17.3203 35.8574C17.2656 36.0879 17.2383 36.334 17.2383 36.5957ZM21.1699 36.2207L20.5078 36.3672C20.5078 35.9844 20.5605 35.623 20.666 35.2832C20.7754 34.9395 20.9336 34.6387 21.1406 34.3809C21.3516 34.1191 21.6113 33.9141 21.9199 33.7656C22.2285 33.6172 22.582 33.543 22.9805 33.543C23.3047 33.543 23.5938 33.5879 23.8477 33.6777C24.1055 33.7637 24.3242 33.9004 24.5039 34.0879C24.6836 34.2754 24.8203 34.5195 24.9141 34.8203C25.0078 35.1172 25.0547 35.4766 25.0547 35.8984V40H23.6367V35.8926C23.6367 35.5723 23.5898 35.3242 23.4961 35.1484C23.4062 34.9727 23.2773 34.8516 23.1094 34.7852C22.9414 34.7148 22.7402 34.6797 22.5059 34.6797C22.2871 34.6797 22.0938 34.7207 21.9258 34.8027C21.7617 34.8809 21.623 34.9922 21.5098 35.1367C21.3965 35.2773 21.3105 35.4395 21.252 35.623C21.1973 35.8066 21.1699 36.0059 21.1699 36.2207ZM29.3027 40.1172C28.834 40.1172 28.4102 40.041 28.0312 39.8887C27.6562 39.7324 27.3359 39.5156 27.0703 39.2383C26.8086 38.9609 26.6074 38.6348 26.4668 38.2598C26.3262 37.8848 26.2559 37.4805 26.2559 37.0469V36.8125C26.2559 36.3164 26.3281 35.8672 26.4727 35.4648C26.6172 35.0625 26.8184 34.7188 27.0762 34.4336C27.334 34.1445 27.6387 33.9238 27.9902 33.7715C28.3418 33.6191 28.7227 33.543 29.1328 33.543C29.5859 33.543 29.9824 33.6191 30.3223 33.7715C30.6621 33.9238 30.9434 34.1387 31.166 34.416C31.3926 34.6895 31.5605 35.0156 31.6699 35.3945C31.7832 35.7734 31.8398 36.1914 31.8398 36.6484V37.252H26.9414V36.2383H30.4453V36.127C30.4375 35.873 30.3867 35.6348 30.293 35.4121C30.2031 35.1895 30.0645 35.0098 29.877 34.873C29.6895 34.7363 29.4395 34.668 29.127 34.668C28.8926 34.668 28.6836 34.7188 28.5 34.8203C28.3203 34.918 28.1699 35.0605 28.0488 35.248C27.9277 35.4355 27.834 35.6621 27.7676 35.9277C27.7051 36.1895 27.6738 36.4844 27.6738 36.8125V37.0469C27.6738 37.3242 27.7109 37.582 27.7852 37.8203C27.8633 38.0547 27.9766 38.2598 28.125 38.4355C28.2734 38.6113 28.4531 38.75 28.6641 38.8516C28.875 38.9492 29.1152 38.998 29.3848 38.998C29.7246 38.998 30.0273 38.9297 30.293 38.793C30.5586 38.6562 30.7891 38.4629 30.9844 38.2129L31.7285 38.9336C31.5918 39.1328 31.4141 39.3242 31.1953 39.5078C30.9766 39.6875 30.709 39.834 30.3926 39.9473C30.0801 40.0605 29.7168 40.1172 29.3027 40.1172Z" fill="#4681F4"/>
</svg>
