<svg width="33" height="43" viewBox="0 0 33 43" fill="none" xmlns="http://www.w3.org/2000/svg">
<path d="M17.8889 20C17.3366 20 16.8889 19.5523 16.8889 19V12.1111C16.8889 11.5588 17.3366 11.1111 17.8889 11.1111H23C23.5523 11.1111 24 11.5588 24 12.1111V19C24 19.5523 23.5523 20 23 20H17.8889ZM9 12.8889C8.44771 12.8889 8 12.4412 8 11.8889V5C8 4.44772 8.44772 4 9 4H14.1111C14.6634 4 15.1111 4.44772 15.1111 5V11.8889C15.1111 12.4412 14.6634 12.8889 14.1111 12.8889H9ZM9 20C8.44771 20 8 19.5523 8 19V15.6667C8 15.1144 8.44772 14.6667 9 14.6667H14.1111C14.6634 14.6667 15.1111 15.1144 15.1111 15.6667V19C15.1111 19.5523 14.6634 20 14.1111 20H9ZM16.8889 5C16.8889 4.44772 17.3366 4 17.8889 4H23C23.5523 4 24 4.44772 24 5V8.33333C24 8.88562 23.5523 9.33333 23 9.33333H17.8889C17.3366 9.33333 16.8889 8.88562 16.8889 8.33333V5Z" fill="#C4C4C4"/>
<path d="M6.5625 35.1367V36.0566H1.94531V35.1367H6.5625ZM2.12109 31.4688V40H0.990234V31.4688H2.12109ZM7.54688 31.4688V40H6.42188V31.4688H7.54688ZM9.10547 36.9004V36.7656C9.10547 36.3086 9.17188 35.8848 9.30469 35.4941C9.4375 35.0996 9.62891 34.7578 9.87891 34.4688C10.1289 34.1758 10.4316 33.9492 10.7871 33.7891C11.1426 33.625 11.541 33.543 11.9824 33.543C12.4277 33.543 12.8281 33.625 13.1836 33.7891C13.543 33.9492 13.8477 34.1758 14.0977 34.4688C14.3516 34.7578 14.5449 35.0996 14.6777 35.4941C14.8105 35.8848 14.877 36.3086 14.877 36.7656V36.9004C14.877 37.3574 14.8105 37.7812 14.6777 38.1719C14.5449 38.5625 14.3516 38.9043 14.0977 39.1973C13.8477 39.4863 13.5449 39.7129 13.1895 39.877C12.8379 40.0371 12.4395 40.1172 11.9941 40.1172C11.5488 40.1172 11.1484 40.0371 10.793 39.877C10.4375 39.7129 10.1328 39.4863 9.87891 39.1973C9.62891 38.9043 9.4375 38.5625 9.30469 38.1719C9.17188 37.7812 9.10547 37.3574 9.10547 36.9004ZM10.1895 36.7656V36.9004C10.1895 37.2168 10.2266 37.5156 10.3008 37.7969C10.375 38.0742 10.4863 38.3203 10.6348 38.5352C10.7871 38.75 10.9766 38.9199 11.2031 39.0449C11.4297 39.166 11.6934 39.2266 11.9941 39.2266C12.291 39.2266 12.5508 39.166 12.7734 39.0449C13 38.9199 13.1875 38.75 13.3359 38.5352C13.4844 38.3203 13.5957 38.0742 13.6699 37.7969C13.748 37.5156 13.7871 37.2168 13.7871 36.9004V36.7656C13.7871 36.4531 13.748 36.1582 13.6699 35.8809C13.5957 35.5996 13.4824 35.3516 13.3301 35.1367C13.1816 34.918 12.9941 34.7461 12.7676 34.6211C12.5449 34.4961 12.2832 34.4336 11.9824 34.4336C11.6855 34.4336 11.4238 34.4961 11.1973 34.6211C10.9746 34.7461 10.7871 34.918 10.6348 35.1367C10.4863 35.3516 10.375 35.5996 10.3008 35.8809C10.2266 36.1582 10.1895 36.4531 10.1895 36.7656ZM17.3145 34.9199V40H16.2246V33.6602H17.2559L17.3145 34.9199ZM17.0918 36.5898L16.5879 36.5723C16.5918 36.1387 16.6484 35.7383 16.7578 35.3711C16.8672 35 17.0293 34.6777 17.2441 34.4043C17.459 34.1309 17.7266 33.9199 18.0469 33.7715C18.3672 33.6191 18.7383 33.543 19.1602 33.543C19.457 33.543 19.7305 33.5859 19.9805 33.6719C20.2305 33.7539 20.4473 33.8848 20.6309 34.0645C20.8145 34.2441 20.957 34.4746 21.0586 34.7559C21.1602 35.0371 21.2109 35.377 21.2109 35.7754V40H20.127V35.8281C20.127 35.4961 20.0703 35.2305 19.957 35.0312C19.8477 34.832 19.6914 34.6875 19.4883 34.5977C19.2852 34.5039 19.0469 34.457 18.7734 34.457C18.4531 34.457 18.1855 34.5137 17.9707 34.627C17.7559 34.7402 17.584 34.8965 17.4551 35.0957C17.3262 35.2949 17.2324 35.5234 17.1738 35.7812C17.1191 36.0352 17.0918 36.3047 17.0918 36.5898ZM21.1992 35.9922L20.4727 36.2148C20.4766 35.8672 20.5332 35.5332 20.6426 35.2129C20.7559 34.8926 20.918 34.6074 21.1289 34.3574C21.3438 34.1074 21.6074 33.9102 21.9199 33.7656C22.2324 33.6172 22.5898 33.543 22.9922 33.543C23.332 33.543 23.6328 33.5879 23.8945 33.6777C24.1602 33.7676 24.3828 33.9062 24.5625 34.0938C24.7461 34.2773 24.8848 34.5137 24.9785 34.8027C25.0723 35.0918 25.1191 35.4355 25.1191 35.834V40H24.0293V35.8223C24.0293 35.4668 23.9727 35.1914 23.8594 34.9961C23.75 34.7969 23.5938 34.6582 23.3906 34.5801C23.1914 34.498 22.9531 34.457 22.6758 34.457C22.4375 34.457 22.2266 34.498 22.043 34.5801C21.8594 34.6621 21.7051 34.7754 21.5801 34.9199C21.4551 35.0605 21.3594 35.2227 21.293 35.4062C21.2305 35.5898 21.1992 35.7852 21.1992 35.9922ZM29.3906 40.1172C28.9492 40.1172 28.5488 40.043 28.1895 39.8945C27.834 39.7422 27.5273 39.5293 27.2695 39.2559C27.0156 38.9824 26.8203 38.6582 26.6836 38.2832C26.5469 37.9082 26.4785 37.498 26.4785 37.0527V36.8066C26.4785 36.291 26.5547 35.832 26.707 35.4297C26.8594 35.0234 27.0664 34.6797 27.3281 34.3984C27.5898 34.1172 27.8867 33.9043 28.2188 33.7598C28.5508 33.6152 28.8945 33.543 29.25 33.543C29.7031 33.543 30.0938 33.6211 30.4219 33.7773C30.7539 33.9336 31.0254 34.1523 31.2363 34.4336C31.4473 34.7109 31.6035 35.0391 31.7051 35.418C31.8066 35.793 31.8574 36.2031 31.8574 36.6484V37.1348H27.123V36.25H30.7734V36.168C30.7578 35.8867 30.6992 35.6133 30.5977 35.3477C30.5 35.082 30.3438 34.8633 30.1289 34.6914C29.9141 34.5195 29.6211 34.4336 29.25 34.4336C29.0039 34.4336 28.7773 34.4863 28.5703 34.5918C28.3633 34.6934 28.1855 34.8457 28.0371 35.0488C27.8887 35.252 27.7734 35.5 27.6914 35.793C27.6094 36.0859 27.5684 36.4238 27.5684 36.8066V37.0527C27.5684 37.3535 27.6094 37.6367 27.6914 37.9023C27.7773 38.1641 27.9004 38.3945 28.0605 38.5938C28.2246 38.793 28.4219 38.9492 28.6523 39.0625C28.8867 39.1758 29.1523 39.2324 29.4492 39.2324C29.832 39.2324 30.1562 39.1543 30.4219 38.998C30.6875 38.8418 30.9199 38.6328 31.1191 38.3711L31.7754 38.8926C31.6387 39.0996 31.4648 39.2969 31.2539 39.4844C31.043 39.6719 30.7832 39.8242 30.4746 39.9414C30.1699 40.0586 29.8086 40.1172 29.3906 40.1172Z" fill="#70747D"/>
</svg>
