<svg width="35" height="43" viewBox="0 0 35 43" fill="none" xmlns="http://www.w3.org/2000/svg">
<path d="M4.13672 36.6543H1.85742V35.7344H4.13672C4.57812 35.7344 4.93555 35.6641 5.20898 35.5234C5.48242 35.3828 5.68164 35.1875 5.80664 34.9375C5.93555 34.6875 6 34.4023 6 34.082C6 33.7891 5.93555 33.5137 5.80664 33.2559C5.68164 32.998 5.48242 32.791 5.20898 32.6348C4.93555 32.4746 4.57812 32.3945 4.13672 32.3945H2.12109V40H0.990234V31.4688H4.13672C4.78125 31.4688 5.32617 31.5801 5.77148 31.8027C6.2168 32.0254 6.55469 32.334 6.78516 32.7285C7.01562 33.1191 7.13086 33.5664 7.13086 34.0703C7.13086 34.6172 7.01562 35.084 6.78516 35.4707C6.55469 35.8574 6.2168 36.1523 5.77148 36.3555C5.32617 36.5547 4.78125 36.6543 4.13672 36.6543ZM9.48047 34.6562V40H8.39648V33.6602H9.45117L9.48047 34.6562ZM11.4609 33.625L11.4551 34.6328C11.3652 34.6133 11.2793 34.6016 11.1973 34.5977C11.1191 34.5898 11.0293 34.5859 10.9277 34.5859C10.6777 34.5859 10.457 34.625 10.2656 34.7031C10.0742 34.7812 9.91211 34.8906 9.7793 35.0312C9.64648 35.1719 9.54102 35.3398 9.46289 35.5352C9.38867 35.7266 9.33984 35.9375 9.31641 36.168L9.01172 36.3438C9.01172 35.9609 9.04883 35.6016 9.12305 35.2656C9.20117 34.9297 9.32031 34.6328 9.48047 34.375C9.64062 34.1133 9.84375 33.9102 10.0898 33.7656C10.3398 33.6172 10.6367 33.543 10.9805 33.543C11.0586 33.543 11.1484 33.5527 11.25 33.5723C11.3516 33.5879 11.4219 33.6055 11.4609 33.625ZM12.0586 36.9004V36.7656C12.0586 36.3086 12.125 35.8848 12.2578 35.4941C12.3906 35.0996 12.582 34.7578 12.832 34.4688C13.082 34.1758 13.3848 33.9492 13.7402 33.7891C14.0957 33.625 14.4941 33.543 14.9355 33.543C15.3809 33.543 15.7812 33.625 16.1367 33.7891C16.4961 33.9492 16.8008 34.1758 17.0508 34.4688C17.3047 34.7578 17.498 35.0996 17.6309 35.4941C17.7637 35.8848 17.8301 36.3086 17.8301 36.7656V36.9004C17.8301 37.3574 17.7637 37.7812 17.6309 38.1719C17.498 38.5625 17.3047 38.9043 17.0508 39.1973C16.8008 39.4863 16.498 39.7129 16.1426 39.877C15.791 40.0371 15.3926 40.1172 14.9473 40.1172C14.502 40.1172 14.1016 40.0371 13.7461 39.877C13.3906 39.7129 13.0859 39.4863 12.832 39.1973C12.582 38.9043 12.3906 38.5625 12.2578 38.1719C12.125 37.7812 12.0586 37.3574 12.0586 36.9004ZM13.1426 36.7656V36.9004C13.1426 37.2168 13.1797 37.5156 13.2539 37.7969C13.3281 38.0742 13.4395 38.3203 13.5879 38.5352C13.7402 38.75 13.9297 38.9199 14.1562 39.0449C14.3828 39.166 14.6465 39.2266 14.9473 39.2266C15.2441 39.2266 15.5039 39.166 15.7266 39.0449C15.9531 38.9199 16.1406 38.75 16.2891 38.5352C16.4375 38.3203 16.5488 38.0742 16.623 37.7969C16.7012 37.5156 16.7402 37.2168 16.7402 36.9004V36.7656C16.7402 36.4531 16.7012 36.1582 16.623 35.8809C16.5488 35.5996 16.4355 35.3516 16.2832 35.1367C16.1348 34.918 15.9473 34.7461 15.7207 34.6211C15.498 34.4961 15.2363 34.4336 14.9355 34.4336C14.6387 34.4336 14.377 34.4961 14.1504 34.6211C13.9277 34.7461 13.7402 34.918 13.5879 35.1367C13.4395 35.3516 13.3281 35.5996 13.2539 35.8809C13.1797 36.1582 13.1426 36.4531 13.1426 36.7656ZM20.6367 40H19.5527V33.1094C19.5527 32.6289 19.6465 32.2227 19.834 31.8906C20.0215 31.5586 20.2891 31.3066 20.6367 31.1348C20.9844 30.9629 21.3965 30.877 21.873 30.877C22.1543 30.877 22.4297 30.9121 22.6992 30.9824C22.9688 31.0488 23.2461 31.1328 23.5312 31.2344L23.3496 32.1484C23.1699 32.0781 22.9609 32.0117 22.7227 31.9492C22.4883 31.8828 22.2305 31.8496 21.9492 31.8496C21.4844 31.8496 21.1484 31.9551 20.9414 32.166C20.7383 32.373 20.6367 32.6875 20.6367 33.1094V40ZM21.9316 33.6602V34.4922H18.5508V33.6602H21.9316ZM24.0645 33.6602V40H22.9805V33.6602H24.0645ZM27.0234 31V40H25.9336V31H27.0234ZM31.3945 40.1172C30.9531 40.1172 30.5527 40.043 30.1934 39.8945C29.8379 39.7422 29.5312 39.5293 29.2734 39.2559C29.0195 38.9824 28.8242 38.6582 28.6875 38.2832C28.5508 37.9082 28.4824 37.498 28.4824 37.0527V36.8066C28.4824 36.291 28.5586 35.832 28.7109 35.4297C28.8633 35.0234 29.0703 34.6797 29.332 34.3984C29.5938 34.1172 29.8906 33.9043 30.2227 33.7598C30.5547 33.6152 30.8984 33.543 31.2539 33.543C31.707 33.543 32.0977 33.6211 32.4258 33.7773C32.7578 33.9336 33.0293 34.1523 33.2402 34.4336C33.4512 34.7109 33.6074 35.0391 33.709 35.418C33.8105 35.793 33.8613 36.2031 33.8613 36.6484V37.1348H29.127V36.25H32.7773V36.168C32.7617 35.8867 32.7031 35.6133 32.6016 35.3477C32.5039 35.082 32.3477 34.8633 32.1328 34.6914C31.918 34.5195 31.625 34.4336 31.2539 34.4336C31.0078 34.4336 30.7812 34.4863 30.5742 34.5918C30.3672 34.6934 30.1895 34.8457 30.041 35.0488C29.8926 35.252 29.7773 35.5 29.6953 35.793C29.6133 36.0859 29.5723 36.4238 29.5723 36.8066V37.0527C29.5723 37.3535 29.6133 37.6367 29.6953 37.9023C29.7812 38.1641 29.9043 38.3945 30.0645 38.5938C30.2285 38.793 30.4258 38.9492 30.6562 39.0625C30.8906 39.1758 31.1562 39.2324 31.4531 39.2324C31.8359 39.2324 32.1602 39.1543 32.4258 38.998C32.6914 38.8418 32.9238 38.6328 33.123 38.3711L33.7793 38.8926C33.6426 39.0996 33.4688 39.2969 33.2578 39.4844C33.0469 39.6719 32.7871 39.8242 32.4785 39.9414C32.1738 40.0586 31.8125 40.1172 31.3945 40.1172Z" fill="#000"/>
<path d="M17.6847 11.1367C19.9316 11.1367 21.7531 9.31526 21.7531 7.06836C21.7531 4.82147 19.9316 3 17.6847 3C15.4378 3 13.6163 4.82147 13.6163 7.06836C13.6163 9.31526 15.4378 11.1367 17.6847 11.1367Z" fill="#000"/>
<path d="M25.1582 17.9687C24.8417 16.5277 24.116 15.2086 23.0681 14.1699C22.8138 13.9147 22.5382 13.6816 22.2443 13.4732C20.9058 12.4692 19.2743 11.9331 17.6012 11.9475C15.5554 11.9371 13.5885 12.7359 12.1293 14.1699C11.0814 15.2086 10.3557 16.5277 10.0392 17.9687C9.98416 18.2235 9.98713 18.4875 10.0479 18.741C10.1086 18.9945 10.2256 19.2311 10.3901 19.4333C10.5604 19.6399 10.775 19.8056 11.0179 19.9183C11.2608 20.0309 11.5259 20.0877 11.7937 20.0843H23.4088C23.6774 20.0844 23.9425 20.0242 24.1846 19.908C24.4267 19.7918 24.6395 19.6226 24.8073 19.413C24.9689 19.2131 25.0842 18.98 25.1448 18.7302C25.2055 18.4805 25.2101 18.2204 25.1582 17.9687V17.9687Z" fill="#000"/>
</svg>
