<svg width="36" height="43" viewBox="0 0 36 43" fill="none" xmlns="http://www.w3.org/2000/svg">
<path d="M4.10742 36.8184H1.88672V35.6523H4.10742C4.49414 35.6523 4.80664 35.5898 5.04492 35.4648C5.2832 35.3398 5.45703 35.168 5.56641 34.9492C5.67969 34.7266 5.73633 34.4727 5.73633 34.1875C5.73633 33.918 5.67969 33.666 5.56641 33.4316C5.45703 33.1934 5.2832 33.002 5.04492 32.8574C4.80664 32.7129 4.49414 32.6406 4.10742 32.6406H2.33789V40H0.867188V31.4688H4.10742C4.76758 31.4688 5.32812 31.5859 5.78906 31.8203C6.25391 32.0508 6.60742 32.3711 6.84961 32.7812C7.0918 33.1875 7.21289 33.6523 7.21289 34.1758C7.21289 34.7266 7.0918 35.1992 6.84961 35.5938C6.60742 35.9883 6.25391 36.291 5.78906 36.502C5.32812 36.7129 4.76758 36.8184 4.10742 36.8184ZM9.80859 34.8672V40H8.39648V33.6602H9.74414L9.80859 34.8672ZM11.748 33.6191L11.7363 34.9316C11.6504 34.916 11.5566 34.9043 11.4551 34.8965C11.3574 34.8887 11.2598 34.8848 11.1621 34.8848C10.9199 34.8848 10.707 34.9199 10.5234 34.9902C10.3398 35.0566 10.1855 35.1543 10.0605 35.2832C9.93945 35.4082 9.8457 35.5605 9.7793 35.7402C9.71289 35.9199 9.67383 36.1211 9.66211 36.3438L9.33984 36.3672C9.33984 35.9688 9.37891 35.5996 9.45703 35.2598C9.53516 34.9199 9.65234 34.6211 9.80859 34.3633C9.96875 34.1055 10.168 33.9043 10.4062 33.7598C10.6484 33.6152 10.9277 33.543 11.2441 33.543C11.3301 33.543 11.4219 33.5508 11.5195 33.5664C11.6211 33.582 11.6973 33.5996 11.748 33.6191ZM12.2109 36.9004V36.7656C12.2109 36.3086 12.2773 35.8848 12.4102 35.4941C12.543 35.0996 12.7344 34.7578 12.9844 34.4688C13.2383 34.1758 13.5469 33.9492 13.9102 33.7891C14.2773 33.625 14.6914 33.543 15.1523 33.543C15.6172 33.543 16.0312 33.625 16.3945 33.7891C16.7617 33.9492 17.0723 34.1758 17.3262 34.4688C17.5801 34.7578 17.7734 35.0996 17.9062 35.4941C18.0391 35.8848 18.1055 36.3086 18.1055 36.7656V36.9004C18.1055 37.3574 18.0391 37.7812 17.9062 38.1719C17.7734 38.5625 17.5801 38.9043 17.3262 39.1973C17.0723 39.4863 16.7637 39.7129 16.4004 39.877C16.0371 40.0371 15.625 40.1172 15.1641 40.1172C14.6992 40.1172 14.2832 40.0371 13.916 39.877C13.5527 39.7129 13.2441 39.4863 12.9902 39.1973C12.7363 38.9043 12.543 38.5625 12.4102 38.1719C12.2773 37.7812 12.2109 37.3574 12.2109 36.9004ZM13.623 36.7656V36.9004C13.623 37.1855 13.6523 37.4551 13.7109 37.709C13.7695 37.9629 13.8613 38.1855 13.9863 38.377C14.1113 38.5684 14.2715 38.7188 14.4668 38.8281C14.6621 38.9375 14.8945 38.9922 15.1641 38.9922C15.4258 38.9922 15.6523 38.9375 15.8438 38.8281C16.0391 38.7188 16.1992 38.5684 16.3242 38.377C16.4492 38.1855 16.541 37.9629 16.5996 37.709C16.6621 37.4551 16.6934 37.1855 16.6934 36.9004V36.7656C16.6934 36.4844 16.6621 36.2188 16.5996 35.9688C16.541 35.7148 16.4473 35.4902 16.3184 35.2949C16.1934 35.0996 16.0332 34.9473 15.8379 34.8379C15.6465 34.7246 15.418 34.668 15.1523 34.668C14.8867 34.668 14.6562 34.7246 14.4609 34.8379C14.2695 34.9473 14.1113 35.0996 13.9863 35.2949C13.8613 35.4902 13.7695 35.7148 13.7109 35.9688C13.6523 36.2188 13.623 36.4844 13.623 36.7656ZM21.1055 40H19.6875V33.25C19.6875 32.7383 19.7891 32.3066 19.9922 31.9551C20.1992 31.6035 20.4941 31.3359 20.877 31.1523C21.2637 30.9688 21.7227 30.877 22.2539 30.877C22.5664 30.877 22.8672 30.9102 23.1562 30.9766C23.4492 31.043 23.752 31.127 24.0645 31.2285L23.8477 32.377C23.6484 32.3105 23.4277 32.248 23.1855 32.1895C22.9434 32.127 22.6641 32.0957 22.3477 32.0957C21.9219 32.0957 21.6074 32.1934 21.4043 32.3887C21.2051 32.5801 21.1055 32.8672 21.1055 33.25V40ZM22.377 33.6602V34.6914H18.7148V33.6602H22.377ZM24.7324 33.6602V40H23.3203V33.6602H24.7324ZM27.8203 31V40H26.4023V31H27.8203ZM32.1621 40.1172C31.6934 40.1172 31.2695 40.041 30.8906 39.8887C30.5156 39.7324 30.1953 39.5156 29.9297 39.2383C29.668 38.9609 29.4668 38.6348 29.3262 38.2598C29.1855 37.8848 29.1152 37.4805 29.1152 37.0469V36.8125C29.1152 36.3164 29.1875 35.8672 29.332 35.4648C29.4766 35.0625 29.6777 34.7188 29.9355 34.4336C30.1934 34.1445 30.498 33.9238 30.8496 33.7715C31.2012 33.6191 31.582 33.543 31.9922 33.543C32.4453 33.543 32.8418 33.6191 33.1816 33.7715C33.5215 33.9238 33.8027 34.1387 34.0254 34.416C34.252 34.6895 34.4199 35.0156 34.5293 35.3945C34.6426 35.7734 34.6992 36.1914 34.6992 36.6484V37.252H29.8008V36.2383H33.3047V36.127C33.2969 35.873 33.2461 35.6348 33.1523 35.4121C33.0625 35.1895 32.9238 35.0098 32.7363 34.873C32.5488 34.7363 32.2988 34.668 31.9863 34.668C31.752 34.668 31.543 34.7188 31.3594 34.8203C31.1797 34.918 31.0293 35.0605 30.9082 35.248C30.7871 35.4355 30.6934 35.6621 30.627 35.9277C30.5645 36.1895 30.5332 36.4844 30.5332 36.8125V37.0469C30.5332 37.3242 30.5703 37.582 30.6445 37.8203C30.7227 38.0547 30.8359 38.2598 30.9844 38.4355C31.1328 38.6113 31.3125 38.75 31.5234 38.8516C31.7344 38.9492 31.9746 38.998 32.2441 38.998C32.584 38.998 32.8867 38.9297 33.1523 38.793C33.418 38.6562 33.6484 38.4629 33.8438 38.2129L34.5879 38.9336C34.4512 39.1328 34.2734 39.3242 34.0547 39.5078C33.8359 39.6875 33.5684 39.834 33.252 39.9473C32.9395 40.0605 32.5762 40.1172 32.1621 40.1172Z" fill="#4681F4"/>
<path d="M17.6847 11.1367C19.9316 11.1367 21.7531 9.31526 21.7531 7.06836C21.7531 4.82147 19.9316 3 17.6847 3C15.4378 3 13.6163 4.82147 13.6163 7.06836C13.6163 9.31526 15.4378 11.1367 17.6847 11.1367Z" fill="#4681F4"/>
<path d="M25.1582 17.9687C24.8417 16.5277 24.116 15.2086 23.0681 14.1699C22.8138 13.9147 22.5382 13.6816 22.2443 13.4732C20.9058 12.4692 19.2743 11.9331 17.6012 11.9475C15.5554 11.9371 13.5885 12.7359 12.1293 14.1699C11.0814 15.2086 10.3557 16.5277 10.0392 17.9687C9.98416 18.2235 9.98713 18.4875 10.0479 18.741C10.1086 18.9945 10.2256 19.2311 10.3901 19.4333C10.5604 19.6399 10.775 19.8056 11.0179 19.9183C11.2608 20.0309 11.5259 20.0877 11.7937 20.0843H23.4088C23.6774 20.0844 23.9425 20.0242 24.1846 19.908C24.4267 19.7918 24.6395 19.6226 24.8073 19.413C24.9689 19.2131 25.0842 18.98 25.1448 18.7302C25.2055 18.4805 25.2101 18.2204 25.1582 17.9687V17.9687Z" fill="#4681F4"/>
</svg>
