<svg width="41" height="43" viewBox="0 0 41 43" fill="none" xmlns="http://www.w3.org/2000/svg">
<path d="M4.14258 31.4688V40H3.0293V31.4688H4.14258ZM6.88477 31.4688V32.3945H0.292969V31.4688H6.88477ZM8.625 34.6562V40H7.54102V33.6602H8.5957L8.625 34.6562ZM10.6055 33.625L10.5996 34.6328C10.5098 34.6133 10.4238 34.6016 10.3418 34.5977C10.2637 34.5898 10.1738 34.5859 10.0723 34.5859C9.82227 34.5859 9.60156 34.625 9.41016 34.7031C9.21875 34.7812 9.05664 34.8906 8.92383 35.0312C8.79102 35.1719 8.68555 35.3398 8.60742 35.5352C8.5332 35.7266 8.48438 35.9375 8.46094 36.168L8.15625 36.3438C8.15625 35.9609 8.19336 35.6016 8.26758 35.2656C8.3457 34.9297 8.46484 34.6328 8.625 34.375C8.78516 34.1133 8.98828 33.9102 9.23438 33.7656C9.48438 33.6172 9.78125 33.543 10.125 33.543C10.2031 33.543 10.293 33.5527 10.3945 33.5723C10.4961 33.5879 10.5664 33.6055 10.6055 33.625ZM15.1113 38.916V35.6523C15.1113 35.4023 15.0605 35.1855 14.959 35.002C14.8613 34.8145 14.7129 34.6699 14.5137 34.5684C14.3145 34.4668 14.0684 34.416 13.7754 34.416C13.502 34.416 13.2617 34.4629 13.0547 34.5566C12.8516 34.6504 12.6914 34.7734 12.5742 34.9258C12.4609 35.0781 12.4043 35.2422 12.4043 35.418H11.3203C11.3203 35.1914 11.3789 34.9668 11.4961 34.7441C11.6133 34.5215 11.7812 34.3203 12 34.1406C12.2227 33.957 12.4883 33.8125 12.7969 33.707C13.1094 33.5977 13.457 33.543 13.8398 33.543C14.3008 33.543 14.707 33.6211 15.0586 33.7773C15.4141 33.9336 15.6914 34.1699 15.8906 34.4863C16.0938 34.7988 16.1953 35.1914 16.1953 35.6641V38.6172C16.1953 38.8281 16.2129 39.0527 16.248 39.291C16.2871 39.5293 16.3438 39.7344 16.418 39.9062V40H15.2871C15.2324 39.875 15.1895 39.709 15.1582 39.502C15.127 39.291 15.1113 39.0957 15.1113 38.916ZM15.2988 36.1562L15.3105 36.918H14.2148C13.9062 36.918 13.6309 36.9434 13.3887 36.9941C13.1465 37.041 12.9434 37.1133 12.7793 37.2109C12.6152 37.3086 12.4902 37.4316 12.4043 37.5801C12.3184 37.7246 12.2754 37.8945 12.2754 38.0898C12.2754 38.2891 12.3203 38.4707 12.4102 38.6348C12.5 38.7988 12.6348 38.9297 12.8145 39.0273C12.998 39.1211 13.2227 39.168 13.4883 39.168C13.8203 39.168 14.1133 39.0977 14.3672 38.957C14.6211 38.8164 14.8223 38.6445 14.9707 38.4414C15.123 38.2383 15.2051 38.041 15.2168 37.8496L15.6797 38.3711C15.6523 38.5352 15.5781 38.7168 15.457 38.916C15.3359 39.1152 15.1738 39.3066 14.9707 39.4902C14.7715 39.6699 14.5332 39.8203 14.2559 39.9414C13.9824 40.0586 13.6738 40.1172 13.3301 40.1172C12.9004 40.1172 12.5234 40.0332 12.1992 39.8652C11.8789 39.6973 11.6289 39.4727 11.4492 39.1914C11.2734 38.9062 11.1855 38.5879 11.1855 38.2363C11.1855 37.8965 11.252 37.5977 11.3848 37.3398C11.5176 37.0781 11.709 36.8613 11.959 36.6895C12.209 36.5137 12.5098 36.3809 12.8613 36.291C13.2129 36.2012 13.6055 36.1562 14.0391 36.1562H15.2988ZM21.8965 38.7695V31H22.9863V40H21.9902L21.8965 38.7695ZM17.6309 36.9004V36.7773C17.6309 36.293 17.6895 35.8535 17.8066 35.459C17.9277 35.0605 18.0977 34.7188 18.3164 34.4336C18.5391 34.1484 18.8027 33.9297 19.1074 33.7773C19.416 33.6211 19.7598 33.543 20.1387 33.543C20.5371 33.543 20.8848 33.6133 21.1816 33.7539C21.4824 33.8906 21.7363 34.0918 21.9434 34.3574C22.1543 34.6191 22.3203 34.9355 22.4414 35.3066C22.5625 35.6777 22.6465 36.0977 22.6934 36.5664V37.1055C22.6504 37.5703 22.5664 37.9883 22.4414 38.3594C22.3203 38.7305 22.1543 39.0469 21.9434 39.3086C21.7363 39.5703 21.4824 39.7715 21.1816 39.9121C20.8809 40.0488 20.5293 40.1172 20.127 40.1172C19.7559 40.1172 19.416 40.0371 19.1074 39.877C18.8027 39.7168 18.5391 39.4922 18.3164 39.2031C18.0977 38.9141 17.9277 38.5742 17.8066 38.1836C17.6895 37.7891 17.6309 37.3613 17.6309 36.9004ZM18.7207 36.7773V36.9004C18.7207 37.2168 18.752 37.5137 18.8145 37.791C18.8809 38.0684 18.9824 38.3125 19.1191 38.5234C19.2559 38.7344 19.4297 38.9004 19.6406 39.0215C19.8516 39.1387 20.1035 39.1973 20.3965 39.1973C20.7559 39.1973 21.0508 39.1211 21.2812 38.9688C21.5156 38.8164 21.7031 38.6152 21.8438 38.3652C21.9844 38.1152 22.0938 37.8438 22.1719 37.5508V36.1387C22.125 35.9238 22.0566 35.7168 21.9668 35.5176C21.8809 35.3145 21.7676 35.1348 21.627 34.9785C21.4902 34.8184 21.3203 34.6914 21.1172 34.5977C20.918 34.5039 20.6816 34.457 20.4082 34.457C20.1113 34.457 19.8555 34.5195 19.6406 34.6445C19.4297 34.7656 19.2559 34.9336 19.1191 35.1484C18.9824 35.3594 18.8809 35.6055 18.8145 35.8867C18.752 36.1641 18.7207 36.4609 18.7207 36.7773ZM25.8516 33.6602V40H24.7617V33.6602H25.8516ZM24.6797 31.9785C24.6797 31.8027 24.7324 31.6543 24.8379 31.5332C24.9473 31.4121 25.1074 31.3516 25.3184 31.3516C25.5254 31.3516 25.6836 31.4121 25.793 31.5332C25.9062 31.6543 25.9629 31.8027 25.9629 31.9785C25.9629 32.1465 25.9062 32.291 25.793 32.4121C25.6836 32.5293 25.5254 32.5879 25.3184 32.5879C25.1074 32.5879 24.9473 32.5293 24.8379 32.4121C24.7324 32.291 24.6797 32.1465 24.6797 31.9785ZM28.6758 35.0137V40H27.5918V33.6602H28.6172L28.6758 35.0137ZM28.418 36.5898L27.9668 36.5723C27.9707 36.1387 28.0352 35.7383 28.1602 35.3711C28.2852 35 28.4609 34.6777 28.6875 34.4043C28.9141 34.1309 29.1836 33.9199 29.4961 33.7715C29.8125 33.6191 30.1621 33.543 30.5449 33.543C30.8574 33.543 31.1387 33.5859 31.3887 33.6719C31.6387 33.7539 31.8516 33.8867 32.0273 34.0703C32.207 34.2539 32.3438 34.4922 32.4375 34.7852C32.5312 35.0742 32.5781 35.4277 32.5781 35.8457V40H31.4883V35.834C31.4883 35.502 31.4395 35.2363 31.3418 35.0371C31.2441 34.834 31.1016 34.6875 30.9141 34.5977C30.7266 34.5039 30.4961 34.457 30.2227 34.457C29.9531 34.457 29.707 34.5137 29.4844 34.627C29.2656 34.7402 29.0762 34.8965 28.916 35.0957C28.7598 35.2949 28.6367 35.5234 28.5469 35.7812C28.4609 36.0352 28.418 36.3047 28.418 36.5898ZM38.332 33.6602H39.3164V39.8652C39.3164 40.4238 39.2031 40.9004 38.9766 41.2949C38.75 41.6895 38.4336 41.9883 38.0273 42.1914C37.625 42.3984 37.1602 42.502 36.6328 42.502C36.4141 42.502 36.1562 42.4668 35.8594 42.3965C35.5664 42.3301 35.2773 42.2148 34.9922 42.0508C34.7109 41.8906 34.4746 41.6738 34.2832 41.4004L34.8516 40.7559C35.1172 41.0762 35.3945 41.2988 35.6836 41.4238C35.9766 41.5488 36.2656 41.6113 36.5508 41.6113C36.8945 41.6113 37.1914 41.5469 37.4414 41.418C37.6914 41.2891 37.8848 41.0977 38.0215 40.8438C38.1621 40.5938 38.2324 40.2852 38.2324 39.918V35.0547L38.332 33.6602ZM33.9668 36.9004V36.7773C33.9668 36.293 34.0234 35.8535 34.1367 35.459C34.2539 35.0605 34.4199 34.7188 34.6348 34.4336C34.8535 34.1484 35.1172 33.9297 35.4258 33.7773C35.7344 33.6211 36.082 33.543 36.4688 33.543C36.8672 33.543 37.2148 33.6133 37.5117 33.7539C37.8125 33.8906 38.0664 34.0918 38.2734 34.3574C38.4844 34.6191 38.6504 34.9355 38.7715 35.3066C38.8926 35.6777 38.9766 36.0977 39.0234 36.5664V37.1055C38.9805 37.5703 38.8965 37.9883 38.7715 38.3594C38.6504 38.7305 38.4844 39.0469 38.2734 39.3086C38.0664 39.5703 37.8125 39.7715 37.5117 39.9121C37.2109 40.0488 36.8594 40.1172 36.457 40.1172C36.0781 40.1172 35.7344 40.0371 35.4258 39.877C35.1211 39.7168 34.8594 39.4922 34.6406 39.2031C34.4219 38.9141 34.2539 38.5742 34.1367 38.1836C34.0234 37.7891 33.9668 37.3613 33.9668 36.9004ZM35.0508 36.7773V36.9004C35.0508 37.2168 35.082 37.5137 35.1445 37.791C35.2109 38.0684 35.3105 38.3125 35.4434 38.5234C35.5801 38.7344 35.7539 38.9004 35.9648 39.0215C36.1758 39.1387 36.4277 39.1973 36.7207 39.1973C37.0801 39.1973 37.377 39.1211 37.6113 38.9688C37.8457 38.8164 38.0312 38.6152 38.168 38.3652C38.3086 38.1152 38.418 37.8438 38.4961 37.5508V36.1387C38.4531 35.9238 38.3867 35.7168 38.2969 35.5176C38.2109 35.3145 38.0977 35.1348 37.957 34.9785C37.8203 34.8184 37.6504 34.6914 37.4473 34.5977C37.2441 34.5039 37.0059 34.457 36.7324 34.457C36.4355 34.457 36.1797 34.5195 35.9648 34.6445C35.7539 34.7656 35.5801 34.9336 35.4434 35.1484C35.3105 35.3594 35.2109 35.6055 35.1445 35.8867C35.082 36.1641 35.0508 36.4609 35.0508 36.7773Z" fill="#70747D"/>
<path d="M14.32 12.4014H11.08C10.48 12.4014 10 12.8747 10 13.4664V19.935C10 20.5267 10.48 21 11.08 21H14.32C14.92 21 15.4 20.5267 15.4 19.935V13.4664C15.4 12.8747 14.92 12.4014 14.32 12.4014ZM21.64 9.91647H18.4C17.8 9.91647 17.32 10.3898 17.32 10.9814V19.935C17.32 20.5267 17.8 21 18.4 21H21.64C22.24 21 22.72 20.5267 22.72 19.935V10.9814C22.68 10.3898 22.2 9.91647 21.64 9.91647ZM28.92 4H25.68C25.08 4 24.6 4.47332 24.6 5.06497V19.935C24.6 20.5267 25.08 21 25.68 21H28.92C29.52 21 30 20.5267 30 19.935V5.02552C30 4.47332 29.52 4 28.92 4Z" fill="#C4C4C4"/>
</svg>
