<svg width="41" height="43" viewBox="0 0 41 43" fill="none" xmlns="http://www.w3.org/2000/svg">
<path d="M4.37695 31.4688V40H2.91797V31.4688H4.37695ZM7.05469 31.4688V32.6406H0.263672V31.4688H7.05469ZM9.03516 34.8672V40H7.62305V33.6602H8.9707L9.03516 34.8672ZM10.9746 33.6191L10.9629 34.9316C10.877 34.916 10.7832 34.9043 10.6816 34.8965C10.584 34.8887 10.4863 34.8848 10.3887 34.8848C10.1465 34.8848 9.93359 34.9199 9.75 34.9902C9.56641 35.0566 9.41211 35.1543 9.28711 35.2832C9.16602 35.4082 9.07227 35.5605 9.00586 35.7402C8.93945 35.9199 8.90039 36.1211 8.88867 36.3438L8.56641 36.3672C8.56641 35.9688 8.60547 35.5996 8.68359 35.2598C8.76172 34.9199 8.87891 34.6211 9.03516 34.3633C9.19531 34.1055 9.39453 33.9043 9.63281 33.7598C9.875 33.6152 10.1543 33.543 10.4707 33.543C10.5566 33.543 10.6484 33.5508 10.7461 33.5664C10.8477 33.582 10.9238 33.5996 10.9746 33.6191ZM15.2227 38.7285V35.7051C15.2227 35.4785 15.1816 35.2832 15.0996 35.1191C15.0176 34.9551 14.8926 34.8281 14.7246 34.7383C14.5605 34.6484 14.3535 34.6035 14.1035 34.6035C13.873 34.6035 13.6738 34.6426 13.5059 34.7207C13.3379 34.7988 13.207 34.9043 13.1133 35.0371C13.0195 35.1699 12.9727 35.3203 12.9727 35.4883H11.5664C11.5664 35.2383 11.627 34.9961 11.748 34.7617C11.8691 34.5273 12.0449 34.3184 12.2754 34.1348C12.5059 33.9512 12.7812 33.8066 13.1016 33.7012C13.4219 33.5957 13.7812 33.543 14.1797 33.543C14.6562 33.543 15.0781 33.623 15.4453 33.7832C15.8164 33.9434 16.1074 34.1855 16.3184 34.5098C16.5332 34.8301 16.6406 35.2324 16.6406 35.7168V38.5352C16.6406 38.8242 16.6602 39.084 16.6992 39.3145C16.7422 39.541 16.8027 39.7383 16.8809 39.9062V40H15.4336C15.3672 39.8477 15.3145 39.6543 15.2754 39.4199C15.2402 39.1816 15.2227 38.9512 15.2227 38.7285ZM15.4277 36.1445L15.4395 37.0176H14.4258C14.1641 37.0176 13.9336 37.043 13.7344 37.0938C13.5352 37.1406 13.3691 37.2109 13.2363 37.3047C13.1035 37.3984 13.0039 37.5117 12.9375 37.6445C12.8711 37.7773 12.8379 37.9277 12.8379 38.0957C12.8379 38.2637 12.877 38.418 12.9551 38.5586C13.0332 38.6953 13.1465 38.8027 13.2949 38.8809C13.4473 38.959 13.6309 38.998 13.8457 38.998C14.1348 38.998 14.3867 38.9395 14.6016 38.8223C14.8203 38.7012 14.9922 38.5547 15.1172 38.3828C15.2422 38.207 15.3086 38.041 15.3164 37.8848L15.7734 38.5117C15.7266 38.6719 15.6465 38.8438 15.5332 39.0273C15.4199 39.2109 15.2715 39.3867 15.0879 39.5547C14.9082 39.7188 14.6914 39.8535 14.4375 39.959C14.1875 40.0645 13.8984 40.1172 13.5703 40.1172C13.1562 40.1172 12.7871 40.0352 12.4629 39.8711C12.1387 39.7031 11.8848 39.4785 11.7012 39.1973C11.5176 38.9121 11.4258 38.5898 11.4258 38.2305C11.4258 37.8945 11.4883 37.5977 11.6133 37.3398C11.7422 37.0781 11.9297 36.8594 12.1758 36.6836C12.4258 36.5078 12.7305 36.375 13.0898 36.2852C13.4492 36.1914 13.8594 36.1445 14.3203 36.1445H15.4277ZM21.9844 38.6875V31H23.4023V40H22.1191L21.9844 38.6875ZM17.8594 36.9004V36.7773C17.8594 36.2969 17.916 35.8594 18.0293 35.4648C18.1426 35.0664 18.3066 34.7246 18.5215 34.4395C18.7363 34.1504 18.998 33.9297 19.3066 33.7773C19.6152 33.6211 19.9629 33.543 20.3496 33.543C20.7324 33.543 21.0684 33.6172 21.3574 33.7656C21.6465 33.9141 21.8926 34.127 22.0957 34.4043C22.2988 34.6777 22.4609 35.0059 22.582 35.3887C22.7031 35.7676 22.7891 36.1895 22.8398 36.6543V37.0469C22.7891 37.5 22.7031 37.9141 22.582 38.2891C22.4609 38.6641 22.2988 38.9883 22.0957 39.2617C21.8926 39.5352 21.6445 39.7461 21.3516 39.8945C21.0625 40.043 20.7246 40.1172 20.3379 40.1172C19.9551 40.1172 19.6094 40.0371 19.3008 39.877C18.9961 39.7168 18.7363 39.4922 18.5215 39.2031C18.3066 38.9141 18.1426 38.5742 18.0293 38.1836C17.916 37.7891 17.8594 37.3613 17.8594 36.9004ZM19.2715 36.7773V36.9004C19.2715 37.1895 19.2969 37.459 19.3477 37.709C19.4023 37.959 19.4863 38.1797 19.5996 38.3711C19.7129 38.5586 19.8594 38.707 20.0391 38.8164C20.2227 38.9219 20.4414 38.9746 20.6953 38.9746C21.0156 38.9746 21.2793 38.9043 21.4863 38.7637C21.6934 38.623 21.8555 38.4336 21.9727 38.1953C22.0938 37.9531 22.1758 37.6836 22.2188 37.3867V36.3262C22.1953 36.0957 22.1465 35.8809 22.0723 35.6816C22.002 35.4824 21.9062 35.3086 21.7852 35.1602C21.6641 35.0078 21.5137 34.8906 21.334 34.8086C21.1582 34.7227 20.9492 34.6797 20.707 34.6797C20.4492 34.6797 20.2305 34.7344 20.0508 34.8438C19.8711 34.9531 19.7227 35.1035 19.6055 35.2949C19.4922 35.4863 19.4082 35.709 19.3535 35.9629C19.2988 36.2168 19.2715 36.4883 19.2715 36.7773ZM26.3906 33.6602V40H24.9727V33.6602H26.3906ZM24.8789 31.9961C24.8789 31.7812 24.9492 31.6035 25.0898 31.4629C25.2344 31.3184 25.4336 31.2461 25.6875 31.2461C25.9375 31.2461 26.1348 31.3184 26.2793 31.4629C26.4238 31.6035 26.4961 31.7812 26.4961 31.9961C26.4961 32.207 26.4238 32.3828 26.2793 32.5234C26.1348 32.6641 25.9375 32.7344 25.6875 32.7344C25.4336 32.7344 25.2344 32.6641 25.0898 32.5234C24.9492 32.3828 24.8789 32.207 24.8789 31.9961ZM29.3379 35.0137V40H27.9258V33.6602H29.2559L29.3379 35.0137ZM29.0859 36.5957L28.6289 36.5898C28.6328 36.1406 28.6953 35.7285 28.8164 35.3535C28.9414 34.9785 29.1133 34.6562 29.332 34.3867C29.5547 34.1172 29.8203 33.9102 30.1289 33.7656C30.4375 33.6172 30.7812 33.543 31.1602 33.543C31.4648 33.543 31.7402 33.5859 31.9863 33.6719C32.2363 33.7539 32.4492 33.8887 32.625 34.0762C32.8047 34.2637 32.9414 34.5078 33.0352 34.8086C33.1289 35.1055 33.1758 35.4707 33.1758 35.9043V40H31.7578V35.8984C31.7578 35.5938 31.7129 35.3535 31.623 35.1777C31.5371 34.998 31.4102 34.8711 31.2422 34.7969C31.0781 34.7188 30.873 34.6797 30.627 34.6797C30.3848 34.6797 30.168 34.7305 29.9766 34.832C29.7852 34.9336 29.623 35.0723 29.4902 35.248C29.3613 35.4238 29.2617 35.627 29.1914 35.8574C29.1211 36.0879 29.0859 36.334 29.0859 36.5957ZM38.6777 33.6602H39.9609V39.8242C39.9609 40.3945 39.8398 40.8789 39.5977 41.2773C39.3555 41.6758 39.0176 41.9785 38.584 42.1855C38.1504 42.3965 37.6484 42.502 37.0781 42.502C36.8359 42.502 36.5664 42.4668 36.2695 42.3965C35.9766 42.3262 35.6914 42.2129 35.4141 42.0566C35.1406 41.9043 34.9121 41.7031 34.7285 41.4531L35.3906 40.6211C35.6172 40.8906 35.8672 41.0879 36.1406 41.2129C36.4141 41.3379 36.7012 41.4004 37.002 41.4004C37.3262 41.4004 37.6016 41.3398 37.8281 41.2188C38.0586 41.1016 38.2363 40.9277 38.3613 40.6973C38.4863 40.4668 38.5488 40.1855 38.5488 39.8535V35.0957L38.6777 33.6602ZM34.3711 36.9004V36.7773C34.3711 36.2969 34.4297 35.8594 34.5469 35.4648C34.6641 35.0664 34.832 34.7246 35.0508 34.4395C35.2695 34.1504 35.5352 33.9297 35.8477 33.7773C36.1602 33.6211 36.5137 33.543 36.9082 33.543C37.3184 33.543 37.668 33.6172 37.957 33.7656C38.25 33.9141 38.4941 34.127 38.6895 34.4043C38.8848 34.6777 39.0371 35.0059 39.1465 35.3887C39.2598 35.7676 39.3438 36.1895 39.3984 36.6543V37.0469C39.3477 37.5 39.2617 37.9141 39.1406 38.2891C39.0195 38.6641 38.8594 38.9883 38.6602 39.2617C38.4609 39.5352 38.2148 39.7461 37.9219 39.8945C37.6328 40.043 37.291 40.1172 36.8965 40.1172C36.5098 40.1172 36.1602 40.0371 35.8477 39.877C35.5391 39.7168 35.2734 39.4922 35.0508 39.2031C34.832 38.9141 34.6641 38.5742 34.5469 38.1836C34.4297 37.7891 34.3711 37.3613 34.3711 36.9004ZM35.7832 36.7773V36.9004C35.7832 37.1895 35.8105 37.459 35.8652 37.709C35.9238 37.959 36.0117 38.1797 36.1289 38.3711C36.25 38.5586 36.4023 38.707 36.5859 38.8164C36.7734 38.9219 36.9941 38.9746 37.248 38.9746C37.5801 38.9746 37.8516 38.9043 38.0625 38.7637C38.2773 38.623 38.4414 38.4336 38.5547 38.1953C38.6719 37.9531 38.7539 37.6836 38.8008 37.3867V36.3262C38.7773 36.0957 38.7285 35.8809 38.6543 35.6816C38.584 35.4824 38.4883 35.3086 38.3672 35.1602C38.2461 35.0078 38.0938 34.8906 37.9102 34.8086C37.7266 34.7227 37.5098 34.6797 37.2598 34.6797C37.0059 34.6797 36.7852 34.7344 36.5977 34.8438C36.4102 34.9531 36.2559 35.1035 36.1348 35.2949C36.0176 35.4863 35.9297 35.709 35.8711 35.9629C35.8125 36.2168 35.7832 36.4883 35.7832 36.7773Z" fill="#000"/>
<path d="M14.32 12.4014H11.08C10.48 12.4014 10 12.8747 10 13.4664V19.935C10 20.5267 10.48 21 11.08 21H14.32C14.92 21 15.4 20.5267 15.4 19.935V13.4664C15.4 12.8747 14.92 12.4014 14.32 12.4014ZM21.64 9.91647H18.4C17.8 9.91647 17.32 10.3898 17.32 10.9814V19.935C17.32 20.5267 17.8 21 18.4 21H21.64C22.24 21 22.72 20.5267 22.72 19.935V10.9814C22.68 10.3898 22.2 9.91647 21.64 9.91647ZM28.92 4H25.68C25.08 4 24.6 4.47332 24.6 5.06497V19.935C24.6 20.5267 25.08 21 25.68 21H28.92C29.52 21 30 20.5267 30 19.935V5.02552C30 4.47332 29.52 4 28.92 4Z" fill="#000"/>
</svg>
