<svg width="34" height="43" viewBox="0 0 34 43" fill="none" xmlns="http://www.w3.org/2000/svg">
<path d="M3.00586 38.084L4.70508 31.4688H5.5957L5.49609 33.1738L3.67969 40H2.75391L3.00586 38.084ZM1.73438 31.4688L3.11133 38.0312L3.23438 40H2.25L0.275391 31.4688H1.73438ZM7.52344 38.0137L8.88281 31.4688H10.3477L8.37305 40H7.38867L7.52344 38.0137ZM5.94141 31.4688L7.62305 38.1016L7.86914 40H6.94336L5.15625 33.1738L5.0625 31.4688H5.94141ZM14.6719 38.7285V35.7051C14.6719 35.4785 14.6309 35.2832 14.5488 35.1191C14.4668 34.9551 14.3418 34.8281 14.1738 34.7383C14.0098 34.6484 13.8027 34.6035 13.5527 34.6035C13.3223 34.6035 13.123 34.6426 12.9551 34.7207C12.7871 34.7988 12.6562 34.9043 12.5625 35.0371C12.4688 35.1699 12.4219 35.3203 12.4219 35.4883H11.0156C11.0156 35.2383 11.0762 34.9961 11.1973 34.7617C11.3184 34.5273 11.4941 34.3184 11.7246 34.1348C11.9551 33.9512 12.2305 33.8066 12.5508 33.7012C12.8711 33.5957 13.2305 33.543 13.6289 33.543C14.1055 33.543 14.5273 33.623 14.8945 33.7832C15.2656 33.9434 15.5566 34.1855 15.7676 34.5098C15.9824 34.8301 16.0898 35.2324 16.0898 35.7168V38.5352C16.0898 38.8242 16.1094 39.084 16.1484 39.3145C16.1914 39.541 16.252 39.7383 16.3301 39.9062V40H14.8828C14.8164 39.8477 14.7637 39.6543 14.7246 39.4199C14.6895 39.1816 14.6719 38.9512 14.6719 38.7285ZM14.877 36.1445L14.8887 37.0176H13.875C13.6133 37.0176 13.3828 37.043 13.1836 37.0938C12.9844 37.1406 12.8184 37.2109 12.6855 37.3047C12.5527 37.3984 12.4531 37.5117 12.3867 37.6445C12.3203 37.7773 12.2871 37.9277 12.2871 38.0957C12.2871 38.2637 12.3262 38.418 12.4043 38.5586C12.4824 38.6953 12.5957 38.8027 12.7441 38.8809C12.8965 38.959 13.0801 38.998 13.2949 38.998C13.584 38.998 13.8359 38.9395 14.0508 38.8223C14.2695 38.7012 14.4414 38.5547 14.5664 38.3828C14.6914 38.207 14.7578 38.041 14.7656 37.8848L15.2227 38.5117C15.1758 38.6719 15.0957 38.8438 14.9824 39.0273C14.8691 39.2109 14.7207 39.3867 14.5371 39.5547C14.3574 39.7188 14.1406 39.8535 13.8867 39.959C13.6367 40.0645 13.3477 40.1172 13.0195 40.1172C12.6055 40.1172 12.2363 40.0352 11.9121 39.8711C11.5879 39.7031 11.334 39.4785 11.1504 39.1973C10.9668 38.9121 10.875 38.5898 10.875 38.2305C10.875 37.8945 10.9375 37.5977 11.0625 37.3398C11.1914 37.0781 11.3789 36.8594 11.625 36.6836C11.875 36.5078 12.1797 36.375 12.5391 36.2852C12.8984 36.1914 13.3086 36.1445 13.7695 36.1445H14.877ZM19.0781 31V40H17.6602V31H19.0781ZM22.1367 31V40H20.7188V31H22.1367ZM26.4785 40.1172C26.0098 40.1172 25.5859 40.041 25.207 39.8887C24.832 39.7324 24.5117 39.5156 24.2461 39.2383C23.9844 38.9609 23.7832 38.6348 23.6426 38.2598C23.502 37.8848 23.4316 37.4805 23.4316 37.0469V36.8125C23.4316 36.3164 23.5039 35.8672 23.6484 35.4648C23.793 35.0625 23.9941 34.7188 24.252 34.4336C24.5098 34.1445 24.8145 33.9238 25.166 33.7715C25.5176 33.6191 25.8984 33.543 26.3086 33.543C26.7617 33.543 27.1582 33.6191 27.498 33.7715C27.8379 33.9238 28.1191 34.1387 28.3418 34.416C28.5684 34.6895 28.7363 35.0156 28.8457 35.3945C28.959 35.7734 29.0156 36.1914 29.0156 36.6484V37.252H24.1172V36.2383H27.6211V36.127C27.6133 35.873 27.5625 35.6348 27.4688 35.4121C27.3789 35.1895 27.2402 35.0098 27.0527 34.873C26.8652 34.7363 26.6152 34.668 26.3027 34.668C26.0684 34.668 25.8594 34.7188 25.6758 34.8203C25.4961 34.918 25.3457 35.0605 25.2246 35.248C25.1035 35.4355 25.0098 35.6621 24.9434 35.9277C24.8809 36.1895 24.8496 36.4844 24.8496 36.8125V37.0469C24.8496 37.3242 24.8867 37.582 24.9609 37.8203C25.0391 38.0547 25.1523 38.2598 25.3008 38.4355C25.4492 38.6113 25.6289 38.75 25.8398 38.8516C26.0508 38.9492 26.291 38.998 26.5605 38.998C26.9004 38.998 27.2031 38.9297 27.4688 38.793C27.7344 38.6562 27.9648 38.4629 28.1602 38.2129L28.9043 38.9336C28.7676 39.1328 28.5898 39.3242 28.3711 39.5078C28.1523 39.6875 27.8848 39.834 27.5684 39.9473C27.2559 40.0605 26.8926 40.1172 26.4785 40.1172ZM33.0234 33.6602V34.6914H29.4492V33.6602H33.0234ZM30.4805 32.1074H31.8926V38.248C31.8926 38.4434 31.9199 38.5938 31.9746 38.6992C32.0332 38.8008 32.1133 38.8691 32.2148 38.9043C32.3164 38.9395 32.4355 38.957 32.5723 38.957C32.6699 38.957 32.7637 38.9512 32.8535 38.9395C32.9434 38.9277 33.0156 38.916 33.0703 38.9043L33.0762 39.9824C32.959 40.0176 32.8223 40.0488 32.666 40.0762C32.5137 40.1035 32.3379 40.1172 32.1387 40.1172C31.8145 40.1172 31.5273 40.0605 31.2773 39.9473C31.0273 39.8301 30.832 39.6406 30.6914 39.3789C30.5508 39.1172 30.4805 38.7695 30.4805 38.3359V32.1074Z" fill="#4681F4"/>
<path d="M23.75 7.27421H9.6875V6.70231L22.0625 5.69575V6.70231H23.75V4.98658C23.75 3.72838 22.7476 2.84536 21.5236 3.02265L10.2275 4.66288C9.00238 4.84132 8 6.01602 8 7.27421V18.7124C8 19.3191 8.23705 19.901 8.65901 20.33C9.08097 20.759 9.65326 21 10.25 21H23.75C24.3467 21 24.919 20.759 25.341 20.33C25.7629 19.901 26 19.3191 26 18.7124V9.56184C26 8.95513 25.7629 8.37326 25.341 7.94424C24.919 7.51523 24.3467 7.27421 23.75 7.27421V7.27421ZM22.0625 15.2878C21.8408 15.2877 21.6213 15.2432 21.4165 15.1569C21.2118 15.0706 21.0257 14.9441 20.869 14.7847C20.7123 14.6253 20.588 14.436 20.5033 14.2278C20.4185 14.0195 20.3749 13.7963 20.375 13.5709C20.3751 13.3455 20.4188 13.1224 20.5037 12.9142C20.5886 12.706 20.713 12.5168 20.8698 12.3575C21.0266 12.1982 21.2128 12.0718 21.4176 11.9856C21.6224 11.8994 21.8419 11.8551 22.0636 11.8552C22.5113 11.8553 22.9406 12.0363 23.2571 12.3583C23.5736 12.6803 23.7513 13.1169 23.7511 13.5721C23.751 14.0273 23.573 14.4637 23.2563 14.7855C22.9396 15.1073 22.5102 15.2879 22.0625 15.2878Z" fill="#4681F4"/>
</svg>
