<svg width="34" height="43" viewBox="0 0 34 43" fill="none" xmlns="http://www.w3.org/2000/svg">
<path d="M3.23438 37.4219L4.92773 31.4688H5.74805L5.27344 33.7832L3.45117 40H2.63672L3.23438 37.4219ZM1.48242 31.4688L2.83008 37.3047L3.23438 40H2.42578L0.357422 31.4688H1.48242ZM7.93945 37.2988L9.25781 31.4688H10.3887L8.32617 40H7.51758L7.93945 37.2988ZM5.87109 31.4688L7.51758 37.4219L8.11523 40H7.30078L5.54297 33.7832L5.0625 31.4688H5.87109ZM15.0176 38.916V35.6523C15.0176 35.4023 14.9668 35.1855 14.8652 35.002C14.7676 34.8145 14.6191 34.6699 14.4199 34.5684C14.2207 34.4668 13.9746 34.416 13.6816 34.416C13.4082 34.416 13.168 34.4629 12.9609 34.5566C12.7578 34.6504 12.5977 34.7734 12.4805 34.9258C12.3672 35.0781 12.3105 35.2422 12.3105 35.418H11.2266C11.2266 35.1914 11.2852 34.9668 11.4023 34.7441C11.5195 34.5215 11.6875 34.3203 11.9062 34.1406C12.1289 33.957 12.3945 33.8125 12.7031 33.707C13.0156 33.5977 13.3633 33.543 13.7461 33.543C14.207 33.543 14.6133 33.6211 14.9648 33.7773C15.3203 33.9336 15.5977 34.1699 15.7969 34.4863C16 34.7988 16.1016 35.1914 16.1016 35.6641V38.6172C16.1016 38.8281 16.1191 39.0527 16.1543 39.291C16.1934 39.5293 16.25 39.7344 16.3242 39.9062V40H15.1934C15.1387 39.875 15.0957 39.709 15.0645 39.502C15.0332 39.291 15.0176 39.0957 15.0176 38.916ZM15.2051 36.1562L15.2168 36.918H14.1211C13.8125 36.918 13.5371 36.9434 13.2949 36.9941C13.0527 37.041 12.8496 37.1133 12.6855 37.2109C12.5215 37.3086 12.3965 37.4316 12.3105 37.5801C12.2246 37.7246 12.1816 37.8945 12.1816 38.0898C12.1816 38.2891 12.2266 38.4707 12.3164 38.6348C12.4062 38.7988 12.541 38.9297 12.7207 39.0273C12.9043 39.1211 13.1289 39.168 13.3945 39.168C13.7266 39.168 14.0195 39.0977 14.2734 38.957C14.5273 38.8164 14.7285 38.6445 14.877 38.4414C15.0293 38.2383 15.1113 38.041 15.123 37.8496L15.5859 38.3711C15.5586 38.5352 15.4844 38.7168 15.3633 38.916C15.2422 39.1152 15.0801 39.3066 14.877 39.4902C14.6777 39.6699 14.4395 39.8203 14.1621 39.9414C13.8887 40.0586 13.5801 40.1172 13.2363 40.1172C12.8066 40.1172 12.4297 40.0332 12.1055 39.8652C11.7852 39.6973 11.5352 39.4727 11.3555 39.1914C11.1797 38.9062 11.0918 38.5879 11.0918 38.2363C11.0918 37.8965 11.1582 37.5977 11.291 37.3398C11.4238 37.0781 11.6152 36.8613 11.8652 36.6895C12.1152 36.5137 12.416 36.3809 12.7676 36.291C13.1191 36.2012 13.5117 36.1562 13.9453 36.1562H15.2051ZM18.9844 31V40H17.8945V31H18.9844ZM21.9023 31V40H20.8125V31H21.9023ZM26.2734 40.1172C25.832 40.1172 25.4316 40.043 25.0723 39.8945C24.7168 39.7422 24.4102 39.5293 24.1523 39.2559C23.8984 38.9824 23.7031 38.6582 23.5664 38.2832C23.4297 37.9082 23.3613 37.498 23.3613 37.0527V36.8066C23.3613 36.291 23.4375 35.832 23.5898 35.4297C23.7422 35.0234 23.9492 34.6797 24.2109 34.3984C24.4727 34.1172 24.7695 33.9043 25.1016 33.7598C25.4336 33.6152 25.7773 33.543 26.1328 33.543C26.5859 33.543 26.9766 33.6211 27.3047 33.7773C27.6367 33.9336 27.9082 34.1523 28.1191 34.4336C28.3301 34.7109 28.4863 35.0391 28.5879 35.418C28.6895 35.793 28.7402 36.2031 28.7402 36.6484V37.1348H24.0059V36.25H27.6562V36.168C27.6406 35.8867 27.582 35.6133 27.4805 35.3477C27.3828 35.082 27.2266 34.8633 27.0117 34.6914C26.7969 34.5195 26.5039 34.4336 26.1328 34.4336C25.8867 34.4336 25.6602 34.4863 25.4531 34.5918C25.2461 34.6934 25.0684 34.8457 24.9199 35.0488C24.7715 35.252 24.6562 35.5 24.5742 35.793C24.4922 36.0859 24.4512 36.4238 24.4512 36.8066V37.0527C24.4512 37.3535 24.4922 37.6367 24.5742 37.9023C24.6602 38.1641 24.7832 38.3945 24.9434 38.5938C25.1074 38.793 25.3047 38.9492 25.5352 39.0625C25.7695 39.1758 26.0352 39.2324 26.332 39.2324C26.7148 39.2324 27.0391 39.1543 27.3047 38.998C27.5703 38.8418 27.8027 38.6328 28.002 38.3711L28.6582 38.8926C28.5215 39.0996 28.3477 39.2969 28.1367 39.4844C27.9258 39.6719 27.666 39.8242 27.3574 39.9414C27.0527 40.0586 26.6914 40.1172 26.2734 40.1172ZM32.6602 33.6602V34.4922H29.2324V33.6602H32.6602ZM30.3926 32.1191H31.4766V38.4297C31.4766 38.6445 31.5098 38.8066 31.5762 38.916C31.6426 39.0254 31.7285 39.0977 31.834 39.1328C31.9395 39.168 32.0527 39.1855 32.1738 39.1855C32.2637 39.1855 32.3574 39.1777 32.4551 39.1621C32.5566 39.1426 32.6328 39.127 32.6836 39.1152L32.6895 40C32.6035 40.0273 32.4902 40.0527 32.3496 40.0762C32.2129 40.1035 32.0469 40.1172 31.8516 40.1172C31.5859 40.1172 31.3418 40.0645 31.1191 39.959C30.8965 39.8535 30.7188 39.6777 30.5859 39.4316C30.457 39.1816 30.3926 38.8457 30.3926 38.4238V32.1191Z" fill="#70747D"/>
<path d="M23.75 7.27421H9.6875V6.70231L22.0625 5.69575V6.70231H23.75V4.98658C23.75 3.72838 22.7476 2.84536 21.5236 3.02265L10.2275 4.66288C9.00238 4.84132 8 6.01602 8 7.27421V18.7124C8 19.3191 8.23705 19.901 8.65901 20.33C9.08097 20.759 9.65326 21 10.25 21H23.75C24.3467 21 24.919 20.759 25.341 20.33C25.7629 19.901 26 19.3191 26 18.7124V9.56184C26 8.95513 25.7629 8.37326 25.341 7.94424C24.919 7.51523 24.3467 7.27421 23.75 7.27421ZM22.0625 15.2878C21.8408 15.2877 21.6213 15.2432 21.4165 15.1569C21.2118 15.0706 21.0257 14.9441 20.869 14.7847C20.7123 14.6253 20.588 14.436 20.5033 14.2278C20.4185 14.0195 20.3749 13.7963 20.375 13.5709C20.3751 13.3455 20.4188 13.1224 20.5037 12.9142C20.5886 12.706 20.713 12.5168 20.8698 12.3575C21.0266 12.1982 21.2128 12.0718 21.4176 11.9856C21.6224 11.8994 21.8419 11.8551 22.0636 11.8552C22.5113 11.8553 22.9406 12.0363 23.2571 12.3583C23.5736 12.6803 23.7513 13.1169 23.7511 13.5721C23.751 14.0273 23.573 14.4637 23.2563 14.7855C22.9396 15.1073 22.5102 15.2879 22.0625 15.2878Z" fill="#C5C5C5"/>
</svg>
