<svg width="21" height="21" viewBox="0 0 21 21" fill="none" xmlns="http://www.w3.org/2000/svg">
<circle cx="10.5" cy="10.5" r="10.5" fill="#F6C300"/>
<path d="M8.925 5.7749C8.34487 5.7749 7.875 6.24478 7.875 6.8249V7.3499H6.3C5.71987 7.3499 5.25 7.81978 5.25 8.3999V14.1749C5.25 14.755 5.71987 15.2249 6.3 15.2249H14.7C15.2801 15.2249 15.75 14.755 15.75 14.1749V8.3999C15.75 7.81978 15.2801 7.3499 14.7 7.3499H13.125V6.8249C13.125 6.24478 12.6551 5.7749 12.075 5.7749H8.925ZM10.5 8.3999C11.9474 8.3999 13.125 9.57748 13.125 11.0249C13.125 12.4723 11.9474 13.6499 10.5 13.6499C9.05257 13.6499 7.875 12.4723 7.875 11.0249C7.875 9.57748 9.05257 8.3999 10.5 8.3999ZM14.175 8.3999C14.4648 8.3999 14.7 8.6351 14.7 8.9249C14.7 9.2147 14.4648 9.4499 14.175 9.4499C13.8852 9.4499 13.65 9.2147 13.65 8.9249C13.65 8.6351 13.8852 8.3999 14.175 8.3999ZM10.5 9.4499C10.0823 9.4499 9.68168 9.61584 9.38631 9.91121C9.09094 10.2066 8.925 10.6072 8.925 11.0249C8.925 11.4426 9.09094 11.8432 9.38631 12.1386C9.68168 12.434 10.0823 12.5999 10.5 12.5999C10.9177 12.5999 11.3183 12.434 11.6137 12.1386C11.9091 11.8432 12.075 11.4426 12.075 11.0249C12.075 10.6072 11.9091 10.2066 11.6137 9.91121C11.3183 9.61584 10.9177 9.4499 10.5 9.4499Z" fill="white"/>
</svg>
