<svg width="24" height="24" viewBox="0 0 24 24" fill="none" xmlns="http://www.w3.org/2000/svg">
<path d="M3.81818 4C2.81364 4 2 4.79556 2 5.77778V18.2222C2 19.2044 2.81364 20 3.81818 20H11.0909V18.5642C11.0909 16.886 12.1284 15.4626 13.7702 14.6146C13.2321 13.8839 12.9091 12.9884 12.9091 12C12.9091 10.5511 13.6291 9.27594 14.7273 8.46528V5.77778C14.7273 4.79556 13.9136 4 12.9091 4H3.81818ZM6.09091 7.55556H7C7.25091 7.55556 7.45455 7.75467 7.45455 8V8.88889C7.45455 9.13422 7.25091 9.33333 7 9.33333H6.09091C5.84 9.33333 5.63636 9.13422 5.63636 8.88889V8C5.63636 7.75467 5.84 7.55556 6.09091 7.55556ZM9.72727 7.55556H10.6364C10.8873 7.55556 11.0909 7.75467 11.0909 8V8.88889C11.0909 9.13422 10.8873 9.33333 10.6364 9.33333H9.72727C9.47636 9.33333 9.27273 9.13422 9.27273 8.88889V8C9.27273 7.75467 9.47636 7.55556 9.72727 7.55556ZM17.4545 9.33333C16.7312 9.33333 16.0375 9.61428 15.5261 10.1144C15.0146 10.6145 14.7273 11.2928 14.7273 12C14.7273 12.7072 15.0146 13.3855 15.5261 13.8856C16.0375 14.3857 16.7312 14.6667 17.4545 14.6667C18.1779 14.6667 18.8716 14.3857 19.383 13.8856C19.8945 13.3855 20.1818 12.7072 20.1818 12C20.1818 11.2928 19.8945 10.6145 19.383 10.1144C18.8716 9.61428 18.1779 9.33333 17.4545 9.33333ZM6.09091 11.1111H7C7.25091 11.1111 7.45455 11.3102 7.45455 11.5556V12.4444C7.45455 12.6898 7.25091 12.8889 7 12.8889H6.09091C5.84 12.8889 5.63636 12.6898 5.63636 12.4444V11.5556C5.63636 11.3102 5.84 11.1111 6.09091 11.1111ZM9.72727 11.1111H10.6364C10.8873 11.1111 11.0909 11.3102 11.0909 11.5556V12.4444C11.0909 12.6898 10.8873 12.8889 10.6364 12.8889H9.72727C9.47636 12.8889 9.27273 12.6898 9.27273 12.4444V11.5556C9.27273 11.3102 9.47636 11.1111 9.72727 11.1111ZM6.09091 14.6667H7C7.25091 14.6667 7.45455 14.8658 7.45455 15.1111V16C7.45455 16.2453 7.25091 16.4444 7 16.4444H6.09091C5.84 16.4444 5.63636 16.2453 5.63636 16V15.1111C5.63636 14.8658 5.84 14.6667 6.09091 14.6667ZM9.72727 14.6667H10.6364C10.8873 14.6667 11.0909 14.8658 11.0909 15.1111V16C11.0909 16.2453 10.8873 16.4444 10.6364 16.4444H9.72727C9.47636 16.4444 9.27273 16.2453 9.27273 16V15.1111C9.27273 14.8658 9.47636 14.6667 9.72727 14.6667ZM17.4545 15.5556C14.8627 15.5556 12.9091 16.8496 12.9091 18.5642V19.1111C12.9091 19.6018 13.3164 20 13.8182 20H21.0909C21.5927 20 22 19.6018 22 19.1111V18.5642C22 16.8496 20.0464 15.5556 17.4545 15.5556Z" fill="#4681F4"/>
</svg>
