<svg width="24" height="24" viewBox="0 0 24 24" fill="none" xmlns="http://www.w3.org/2000/svg">
<path d="M20.6429 5H3.35714C2.73199 5 2.13244 5.24583 1.69039 5.68342C1.24834 6.121 1 6.71449 1 7.33333V16.6667C1 17.2855 1.24834 17.879 1.69039 18.3166C2.13244 18.7542 2.73199 19 3.35714 19H20.6429C21.268 19 21.8676 18.7542 22.3096 18.3166C22.7517 17.879 23 17.2855 23 16.6667V7.33333C23 6.71449 22.7517 6.121 22.3096 5.68342C21.8676 5.24583 21.268 5 20.6429 5ZM21.4286 13.6178H21.3736C21.1612 13.6577 20.9513 13.7096 20.745 13.7733L20.635 13.8122C20.4543 13.8822 20.2736 13.9522 20.1007 14.0378L20.0143 14.0844C19.829 14.1813 19.6505 14.2904 19.48 14.4111L19.37 14.4967C19.0272 14.7505 18.7229 15.0517 18.4664 15.3911L18.38 15.5C18.2581 15.6687 18.1478 15.8454 18.05 16.0289L18.0029 16.1222C17.9175 16.2917 17.8414 16.4657 17.775 16.6433C17.7655 16.6833 17.7523 16.7224 17.7357 16.76C17.6704 16.9614 17.618 17.1666 17.5786 17.3744C17.5812 17.3925 17.5812 17.4108 17.5786 17.4289H6.43714C6.43456 17.4108 6.43456 17.3925 6.43714 17.3744C6.39776 17.1666 6.34527 16.9614 6.28 16.76C6.27665 16.7212 6.27665 16.6822 6.28 16.6433C6.21359 16.4657 6.13752 16.2917 6.05214 16.1222L5.95 16.0444C5.85216 15.861 5.74191 15.6843 5.62 15.5156L5.53357 15.4067C5.27712 15.0673 4.97283 14.7661 4.63 14.5122L4.52 14.4267C4.34954 14.306 4.17104 14.1969 3.98571 14.1L3.89929 14.0533C3.72643 13.9678 3.54571 13.8978 3.365 13.8278L3.255 13.7889C3.04865 13.7252 2.83879 13.6732 2.62643 13.6333H2.57143V10.3822H2.62643C2.83879 10.3423 3.04865 10.2904 3.255 10.2267H3.365C3.54571 10.1567 3.72643 10.0867 3.89929 10.0011L3.98571 9.95444C4.17104 9.85759 4.34954 9.74846 4.52 9.62778L4.63 9.54222C4.97283 9.28836 5.27712 8.98715 5.53357 8.64778L5.62 8.53889C5.74191 8.37015 5.85216 8.19345 5.95 8.01L5.99714 7.91667C6.08472 7.72687 6.16081 7.53208 6.225 7.33333C6.22165 7.29452 6.22165 7.25549 6.225 7.21667C6.29027 7.0153 6.34276 6.81008 6.38214 6.60222C6.37956 6.58416 6.37956 6.56584 6.38214 6.54778H17.5629C17.5654 6.56584 17.5654 6.58416 17.5629 6.60222C17.6022 6.81008 17.6547 7.0153 17.72 7.21667C17.7366 7.25431 17.7498 7.29336 17.7593 7.33333C17.8257 7.51097 17.9018 7.68493 17.9871 7.85444L18.0343 7.94778C18.1321 8.13123 18.2424 8.30793 18.3643 8.47667L18.4507 8.58556C18.7072 8.92492 19.0115 9.22614 19.3543 9.48L19.4643 9.56556C19.6347 9.68623 19.8132 9.79537 19.9986 9.89222L20.085 9.93889C20.2579 10.0244 20.4386 10.0944 20.6193 10.1644H20.7293C20.9356 10.2282 21.1455 10.2801 21.3579 10.32H21.4129L21.4286 13.6178ZM15.9286 12C15.9286 12.7691 15.6982 13.521 15.2665 14.1606C14.8348 14.8001 14.2213 15.2985 13.5034 15.5929C12.7855 15.8872 11.9956 15.9642 11.2336 15.8142C10.4715 15.6641 9.7715 15.2937 9.22208 14.7499C8.67266 14.206 8.2985 13.5131 8.14691 12.7587C7.99533 12.0043 8.07313 11.2224 8.37047 10.5118C8.66782 9.80119 9.17135 9.19382 9.8174 8.76651C10.4635 8.33919 11.223 8.11111 12 8.11111C13.0419 8.11111 14.0412 8.52083 14.7779 9.25014C15.5147 9.97945 15.9286 10.9686 15.9286 12Z" fill="#4681F4"/>
</svg>
