<svg width="24" height="24" viewBox="0 0 24 24" fill="none" xmlns="http://www.w3.org/2000/svg">
<path d="M12 2C9.09167 2 6.75 4.42132 6.75 7.42857V8.33333C5.7875 8.33333 5 9.14762 5 10.1429V19.1905C5 20.1857 5.7875 21 6.75 21H17.25C18.2125 21 19 20.1857 19 19.1905V10.1429C19 9.14762 18.2125 8.33333 17.25 8.33333V7.42857C17.25 4.42132 14.9083 2 12 2ZM12 3.80952C13.9917 3.80952 15.5 5.36916 15.5 7.42857V8.33333H8.5V7.42857C8.5 5.36916 10.0083 3.80952 12 3.80952ZM12 11.0476C13.925 11.0476 15.5 12.6762 15.5 14.6667C15.5 16.6571 13.925 18.2857 12 18.2857C10.075 18.2857 8.5 16.6571 8.5 14.6667C8.5 12.6762 10.075 11.0476 12 11.0476ZM12 12.8571C11.0331 12.8571 10.25 13.6669 10.25 14.6667C10.25 15.6664 11.0331 16.4762 12 16.4762C12.9669 16.4762 13.75 15.6664 13.75 14.6667C13.75 14.4812 13.7144 14.3066 13.6646 14.1383C13.5263 14.4486 13.2276 14.6667 12.875 14.6667C12.392 14.6667 12 14.2613 12 13.7619C12 13.3973 12.2109 13.0885 12.511 12.9455C12.3482 12.8939 12.1794 12.8571 12 12.8571Z" fill="#4681F4"/>
</svg>
