<svg width="24" height="24" viewBox="0 0 24 24" fill="none" xmlns="http://www.w3.org/2000/svg">
<path d="M3.02543 9.2287C3.41232 8.01939 4.04964 6.90932 4.89058 5.96856C5.03277 5.80948 5.25587 5.75277 5.45561 5.82496L7.46528 6.55121C8.01012 6.748 8.60964 6.46112 8.80435 5.91045C8.82349 5.85629 8.83824 5.80067 8.84843 5.74419L9.2313 3.62019C9.26936 3.40901 9.42984 3.24196 9.63758 3.19726C10.2454 3.0665 10.8686 3 11.5 3C12.131 3 12.7538 3.06643 13.3613 3.19702C13.569 3.24167 13.7294 3.40862 13.7676 3.61972L14.1516 5.7441C14.2554 6.31938 14.8009 6.70069 15.3701 6.59579C15.4262 6.58546 15.4812 6.57056 15.5347 6.55124L17.5444 5.82496C17.7441 5.75277 17.9671 5.80948 18.1094 5.96856C18.9503 6.90932 19.5876 8.01939 19.9746 9.2287C20.0398 9.43271 19.9768 9.65637 19.8151 9.79514L18.1862 11.1929C17.7453 11.5714 17.6913 12.2396 18.0657 12.6853C18.1026 12.7292 18.1429 12.7699 18.1862 12.8071L19.8151 14.2048C19.9768 14.3436 20.0398 14.5673 19.9746 14.7713C19.5876 15.9807 18.9503 17.0907 18.1094 18.0314C17.9671 18.1905 17.7441 18.2472 17.5444 18.175L15.5347 17.4488C14.9899 17.252 14.3904 17.5389 14.1956 18.0895C14.1765 18.1436 14.1618 18.1993 14.1515 18.256L13.7676 20.3803C13.7294 20.5914 13.569 20.7583 13.3613 20.803C12.7538 20.9335 12.131 21 11.5 21C10.8686 21 10.2454 20.9335 9.63758 20.8027C9.42984 20.758 9.26936 20.591 9.2313 20.3798L8.84844 18.2559C8.74464 17.6806 8.19907 17.2993 7.62987 17.4042C7.57389 17.4146 7.51885 17.4294 7.46537 17.4488L5.45561 18.175C5.25587 18.2472 5.03277 18.1905 4.89058 18.0314C4.04964 17.0907 3.41232 15.9807 3.02543 14.7713C2.96016 14.5673 3.02309 14.3436 3.18483 14.2048L4.81372 12.8071C5.25476 12.4286 5.3087 11.7604 4.93422 11.3147C4.89739 11.2708 4.8571 11.2301 4.81374 11.1929L3.18483 9.79514C3.02309 9.65637 2.96016 9.43271 3.02543 9.2287ZM8.91286 11.9999C8.91286 13.4501 10.0711 14.6258 11.4998 14.6258C12.9286 14.6258 14.0868 13.4501 14.0868 11.9999C14.0868 10.5497 12.9286 9.37402 11.4998 9.37402C10.0711 9.37402 8.91286 10.5497 8.91286 11.9999Z" fill="#B5B5B5"/>
</svg>
