<svg width="24" height="24" viewBox="0 0 24 24" fill="none" xmlns="http://www.w3.org/2000/svg">
<path d="M5.78947 2C4.80526 2 4 2.81818 4 3.81818V15.6364C4 16.1382 4.40084 16.5455 4.89474 16.5455C5.38863 16.5455 5.78947 16.1382 5.78947 15.6364V4.72727C5.78947 4.22545 6.19032 3.81818 6.68421 3.81818H15.6316C16.1255 3.81818 16.5263 3.41091 16.5263 2.90909C16.5263 2.40727 16.1255 2 15.6316 2H5.78947ZM9.36842 5.63636C8.38421 5.63636 7.57895 6.45455 7.57895 7.45455V20.1818C7.57895 21.1818 8.38421 22 9.36842 22H19.2105C20.1947 22 21 21.1818 21 20.1818V7.45455C21 6.45 20.1992 5.63636 19.2105 5.63636H9.36842ZM12.0526 9.27273H16.5263C17.0202 9.27273 17.4211 9.68 17.4211 10.1818C17.4211 10.6836 17.0202 11.0909 16.5263 11.0909H12.0526C11.5587 11.0909 11.1579 10.6836 11.1579 10.1818C11.1579 9.68 11.5587 9.27273 12.0526 9.27273ZM12.0526 12.9091H16.5263C17.0202 12.9091 17.4211 13.3164 17.4211 13.8182C17.4211 14.32 17.0202 14.7273 16.5263 14.7273H12.0526C11.5587 14.7273 11.1579 14.32 11.1579 13.8182C11.1579 13.3164 11.5587 12.9091 12.0526 12.9091ZM12.0526 16.5455H16.5263C17.0202 16.5455 17.4211 16.9527 17.4211 17.4545C17.4211 17.9564 17.0202 18.3636 16.5263 18.3636H12.0526C11.5587 18.3636 11.1579 17.9564 11.1579 17.4545C11.1579 16.9527 11.5587 16.5455 12.0526 16.5455Z" fill="#4681F4"/>
</svg>
