<svg width="29" height="29" viewBox="0 0 29 29" fill="none" xmlns="http://www.w3.org/2000/svg">
<path d="M14.4999 0.325195C12.8291 0.325195 11.2267 0.988943 10.0452 2.17042C8.8637 3.3519 8.19995 4.95433 8.19995 6.62519C8.19995 8.29606 8.8637 9.89849 10.0452 11.08C11.2267 12.2614 12.8291 12.9252 14.4999 12.9252C16.1708 12.9252 17.7732 12.2614 18.9547 11.08C20.1362 9.89849 20.7999 8.29606 20.7999 6.62519C20.7999 4.95433 20.1362 3.3519 18.9547 2.17042C17.7732 0.988943 16.1708 0.325195 14.4999 0.325195ZM14.4999 17.6502C9.76865 17.6502 0.324951 20.0253 0.324951 24.7377V27.1002C0.324951 27.9696 1.03055 28.6752 1.89995 28.6752H27.0999C27.9693 28.6752 28.6749 27.9696 28.6749 27.1002V24.7377C28.6749 20.0253 19.2312 17.6502 14.4999 17.6502Z" fill="#B5B5B5"/>
</svg>
