<svg width="39" height="39" viewBox="0 0 39 39" fill="none" xmlns="http://www.w3.org/2000/svg">
<path d="M19.4999 5.3252C17.8291 5.3252 16.2267 5.98894 15.0452 7.17042C13.8637 8.3519 13.2 9.95433 13.2 11.6252C13.2 13.2961 13.8637 14.8985 15.0452 16.08C16.2267 17.2614 17.8291 17.9252 19.4999 17.9252C21.1708 17.9252 22.7732 17.2614 23.9547 16.08C25.1362 14.8985 25.7999 13.2961 25.7999 11.6252C25.7999 9.95433 25.1362 8.3519 23.9547 7.17042C22.7732 5.98894 21.1708 5.3252 19.4999 5.3252ZM19.4999 22.6502C14.7687 22.6502 5.32495 25.0253 5.32495 29.7377V32.1002C5.32495 32.9696 6.03055 33.6752 6.89995 33.6752H32.0999C32.9693 33.6752 33.6749 32.9696 33.6749 32.1002V29.7377C33.6749 25.0253 24.2312 22.6502 19.4999 22.6502Z" fill="#B5B5B5"/>
</svg>
