<svg width="80" height="36" viewBox="0 0 80 36" fill="none" xmlns="http://www.w3.org/2000/svg">
<path d="M3.40131 30.3077H0.779297V34.5515C0.779297 35.1038 1.22701 35.5515 1.7793 35.5515H78.2205C78.7728 35.5515 79.2205 35.1038 79.2205 34.5515V2.3956L76.848 5.39532C76.3417 6.03554 75.323 5.83219 75.1013 5.04662L74.1648 1.72837C74.0432 1.29753 73.65 1 73.2024 1H69.8325C69.5655 1 69.3097 1.10673 69.1218 1.29643L66.7971 3.64442C66.5023 3.94223 66.053 4.0246 65.6717 3.85075L63.5187 2.86918C62.9686 2.61838 62.3235 2.90932 62.1473 3.48766L60.163 10.0013C59.9286 10.7707 58.9278 10.9626 58.4254 10.3344L56.8199 8.32666C56.558 7.99914 56.0455 8.05048 55.8537 8.42345C55.6914 8.7393 55.2854 8.83559 54.9984 8.6263L54.5346 8.28795C54.0529 7.93657 53.3727 8.08212 53.077 8.59986L51.6132 11.1624C51.3922 11.5494 50.9417 11.7434 50.5086 11.6381L49.297 11.3435C48.7782 11.2174 48.2518 11.521 48.1013 12.0333L45.6365 20.4239C45.5505 20.7167 45.3355 20.9542 45.0526 21.0688L42.0148 22.2999C41.547 22.4895 41.0112 22.3007 40.7656 21.8597L38.9956 18.6815C38.607 17.9838 37.5977 18.0006 37.2326 18.7109L36.8308 19.4925C36.7157 19.7163 36.5205 19.8886 36.284 19.9748L34.2305 20.7238C33.9468 20.8272 33.7251 21.0534 33.6272 21.339L32.2795 25.2713C32.1722 25.5845 31.9168 25.8243 31.5974 25.9116L28.6107 26.7286C28.3973 26.787 28.2093 26.9145 28.0761 27.0912L26.389 29.3288C26.0079 29.8342 25.2589 29.8629 24.8403 29.3879L24.074 28.5183C23.7441 28.144 23.1887 28.0701 22.7724 28.3452L18.0877 31.4409C17.745 31.6674 17.2987 31.6613 16.9624 31.4255L15.953 30.7181C15.6028 30.4726 15.1353 30.4771 14.7898 30.7291L13.7176 31.5112C13.5465 31.636 13.3401 31.7033 13.1283 31.7033H10.0429C9.7772 31.7033 9.52239 31.5975 9.33477 31.4093L6.59966 28.666C6.17553 28.2406 5.47471 28.2825 5.10427 28.7554L4.18853 29.9244C3.99898 30.1663 3.70868 30.3077 3.40131 30.3077Z" fill="url(#paint0_linear_634_1463)"/>
<path d="M1.24622 30.3077H3.40134C3.70871 30.3077 3.99901 30.1663 4.18856 29.9244L5.1043 28.7554C5.47474 28.2825 6.17556 28.2406 6.59969 28.666L9.3348 31.4093C9.52242 31.5975 9.77723 31.7033 10.043 31.7033H13.1283C13.3401 31.7033 13.5465 31.636 13.7176 31.5112L14.6308 30.8451C15.0482 30.5406 15.6288 30.6042 15.9704 30.9918L16.8829 32.0273C17.2385 32.4307 17.8494 32.4807 18.2658 32.1405L22.7526 28.4749C23.169 28.1346 23.7799 28.1847 24.1355 28.5881L24.8403 29.3879C25.2589 29.8628 26.0079 29.8342 26.389 29.3288L28.0761 27.0912C28.2093 26.9145 28.3973 26.787 28.6107 26.7286L31.5974 25.9116C31.9168 25.8243 32.1722 25.5845 32.2796 25.2713L33.6272 21.339C33.7251 21.0534 33.9469 20.8272 34.2306 20.7238L36.2841 19.9748C36.5205 19.8886 36.7157 19.7163 36.8308 19.4925L37.2326 18.7109C37.5978 18.0006 38.6071 17.9838 38.9956 18.6815L40.7656 21.8597C41.0112 22.3007 41.547 22.4895 42.0148 22.2999L45.0527 21.0688C45.3355 20.9542 45.5505 20.7167 45.6365 20.4239L48.1013 12.0333C48.2518 11.521 48.7782 11.2174 49.297 11.3435L50.5087 11.6381C50.9417 11.7434 51.3922 11.5494 51.6133 11.1624L53.077 8.59986C53.3727 8.08212 54.0529 7.93656 54.5346 8.28795L54.9985 8.6263C55.2854 8.83559 55.6914 8.7393 55.8538 8.42345V8.42345C56.0455 8.05048 56.558 7.99914 56.8199 8.32666L58.4255 10.3344C58.9278 10.9626 59.9286 10.7707 60.163 10.0013L62.1473 3.48766C62.3235 2.90932 62.9686 2.61838 63.5188 2.86918L65.6717 3.85075C66.0531 4.0246 66.5023 3.94223 66.7972 3.64442L69.1219 1.29643C69.3097 1.10673 69.5656 1 69.8325 1H73.2024C73.6501 1 74.0432 1.29753 74.1648 1.72837L75.0545 4.88087C75.2846 5.6961 76.3607 5.8739 76.8408 5.17602L78.7536 2.3956" stroke="#F6543E" stroke-linecap="round"/>
<defs>
<linearGradient id="paint0_linear_634_1463" x1="39.9999" y1="1" x2="39.9999" y2="35.5515" gradientUnits="userSpaceOnUse">
<stop stop-color="#FEF0EE"/>
<stop offset="1" stop-color="#FEF0EE" stop-opacity="0"/>
</linearGradient>
</defs>
</svg>
