<svg width="36" height="35" viewBox="0 0 36 35" fill="none" xmlns="http://www.w3.org/2000/svg">
<mask id="mask0_634_1443" style="mask-type:alpha" maskUnits="userSpaceOnUse" x="0" y="0" width="36" height="35">
<circle cx="17.634" cy="17.4661" r="17.4661" fill="#C4C4C4"/>
</mask>
<g mask="url(#mask0_634_1443)">
<circle cx="22.7858" cy="22.9659" r="25" fill="#F68520"/>
<path d="M25.6948 24.4297V14.5058C25.6948 14.3303 25.624 14.162 25.498 14.038C25.3721 13.9139 25.2012 13.8442 25.023 13.8442H17.6335V10.5362C17.6335 10.3608 17.5628 10.1925 17.4368 10.0684C17.3108 9.94434 17.1399 9.87463 16.9618 9.87463H10.2441C10.0659 9.87463 9.89502 9.94434 9.76904 10.0684C9.64306 10.1925 9.57228 10.3608 9.57228 10.5362V24.4297C9.39412 24.4297 9.22325 24.4994 9.09727 24.6235C8.97129 24.7475 8.90051 24.9158 8.90051 25.0913C8.90051 25.2667 8.97129 25.435 9.09727 25.5591C9.22325 25.6832 9.39412 25.7529 9.57228 25.7529H11.5876V21.1217C11.5876 20.9462 11.6584 20.778 11.7844 20.6539C11.9103 20.5298 12.0812 20.4601 12.2594 20.4601H14.9465C15.1246 20.4601 15.2955 20.5298 15.4215 20.6539C15.5475 20.778 15.6182 20.9462 15.6182 21.1217V25.7529H18.9771V21.1217C18.9771 20.9462 19.0479 20.778 19.1738 20.6539C19.2998 20.5298 19.4707 20.4601 19.6489 20.4601H22.3359C22.5141 20.4601 22.685 20.5298 22.811 20.6539C22.9369 20.778 23.0077 20.9462 23.0077 21.1217V25.7529H25.6948C25.873 25.7529 26.0438 25.6832 26.1698 25.5591C26.2958 25.435 26.3666 25.2667 26.3666 25.0913C26.3666 24.9158 26.2958 24.7475 26.1698 24.6235C26.0438 24.4994 25.873 24.4297 25.6948 24.4297ZM14.2747 16.4906H12.9311C12.753 16.4906 12.5821 16.4209 12.4561 16.2968C12.3301 16.1727 12.2594 16.0044 12.2594 15.829C12.2594 15.6535 12.3301 15.4852 12.4561 15.3612C12.5821 15.2371 12.753 15.1674 12.9311 15.1674H14.2747C14.4528 15.1674 14.6237 15.2371 14.7497 15.3612C14.8757 15.4852 14.9465 15.6535 14.9465 15.829C14.9465 16.0044 14.8757 16.1727 14.7497 16.2968C14.6237 16.4209 14.4528 16.4906 14.2747 16.4906ZM14.2747 13.8442H12.9311C12.753 13.8442 12.5821 13.7745 12.4561 13.6504C12.3301 13.5263 12.2594 13.3581 12.2594 13.1826C12.2594 13.0071 12.3301 12.8389 12.4561 12.7148C12.5821 12.5907 12.753 12.521 12.9311 12.521H14.2747C14.4528 12.521 14.6237 12.5907 14.7497 12.7148C14.8757 12.8389 14.9465 13.0071 14.9465 13.1826C14.9465 13.3581 14.8757 13.5263 14.7497 13.6504C14.6237 13.7745 14.4528 13.8442 14.2747 13.8442ZM21.6642 17.8137H20.3206C20.1425 17.8137 19.9716 17.744 19.8456 17.62C19.7196 17.4959 19.6489 17.3276 19.6489 17.1522C19.6489 16.9767 19.7196 16.8084 19.8456 16.6843C19.9716 16.5603 20.1425 16.4906 20.3206 16.4906H21.6642C21.8423 16.4906 22.0132 16.5603 22.1392 16.6843C22.2652 16.8084 22.3359 16.9767 22.3359 17.1522C22.3359 17.3276 22.2652 17.4959 22.1392 17.62C22.0132 17.744 21.8423 17.8137 21.6642 17.8137Z" fill="white"/>
</g>
</svg>
