<svg width="16" height="16" viewBox="0 0 16 16" fill="none" xmlns="http://www.w3.org/2000/svg">
<path d="M5.09091 14.5455H2.18182C1.98893 14.5455 1.80395 14.4688 1.66756 14.3324C1.53117 14.1961 1.45455 14.0111 1.45455 13.8182V10.9091C1.45455 10.7162 1.37792 10.5312 1.24153 10.3948C1.10514 10.2584 0.920157 10.1818 0.727273 10.1818C0.534388 10.1818 0.349403 10.2584 0.213013 10.3948C0.0766231 10.5312 0 10.7162 0 10.9091V13.8182C0 14.3968 0.229869 14.9518 0.63904 15.361C1.04821 15.7701 1.60316 16 2.18182 16H5.09091C5.28379 16 5.46878 15.9234 5.60517 15.787C5.74156 15.6506 5.81818 15.4656 5.81818 15.2727C5.81818 15.0798 5.74156 14.8949 5.60517 14.7585C5.46878 14.6221 5.28379 14.5455 5.09091 14.5455ZM15.2727 10.1818C15.0798 10.1818 14.8949 10.2584 14.7585 10.3948C14.6221 10.5312 14.5455 10.7162 14.5455 10.9091V13.8182C14.5455 14.0111 14.4688 14.1961 14.3324 14.3324C14.1961 14.4688 14.0111 14.5455 13.8182 14.5455H10.9091C10.7162 14.5455 10.5312 14.6221 10.3948 14.7585C10.2584 14.8949 10.1818 15.0798 10.1818 15.2727C10.1818 15.4656 10.2584 15.6506 10.3948 15.787C10.5312 15.9234 10.7162 16 10.9091 16H13.8182C14.3968 16 14.9518 15.7701 15.361 15.361C15.7701 14.9518 16 14.3968 16 13.8182V10.9091C16 10.7162 15.9234 10.5312 15.787 10.3948C15.6506 10.2584 15.4656 10.1818 15.2727 10.1818ZM13.8182 0H10.9091C10.7162 0 10.5312 0.0766231 10.3948 0.213013C10.2584 0.349403 10.1818 0.534388 10.1818 0.727273C10.1818 0.920157 10.2584 1.10514 10.3948 1.24153C10.5312 1.37792 10.7162 1.45455 10.9091 1.45455H13.8182C14.0111 1.45455 14.1961 1.53117 14.3324 1.66756C14.4688 1.80395 14.5455 1.98893 14.5455 2.18182V5.09091C14.5455 5.28379 14.6221 5.46878 14.7585 5.60517C14.8949 5.74156 15.0798 5.81818 15.2727 5.81818C15.4656 5.81818 15.6506 5.74156 15.787 5.60517C15.9234 5.46878 16 5.28379 16 5.09091V2.18182C16 1.60316 15.7701 1.04821 15.361 0.63904C14.9518 0.229869 14.3968 0 13.8182 0ZM0.727273 5.81818C0.920157 5.81818 1.10514 5.74156 1.24153 5.60517C1.37792 5.46878 1.45455 5.28379 1.45455 5.09091V2.18182C1.45455 1.98893 1.53117 1.80395 1.66756 1.66756C1.80395 1.53117 1.98893 1.45455 2.18182 1.45455H5.09091C5.28379 1.45455 5.46878 1.37792 5.60517 1.24153C5.74156 1.10514 5.81818 0.920157 5.81818 0.727273C5.81818 0.534388 5.74156 0.349403 5.60517 0.213013C5.46878 0.0766231 5.28379 0 5.09091 0H2.18182C1.60316 0 1.04821 0.229869 0.63904 0.63904C0.229869 1.04821 0 1.60316 0 2.18182V5.09091C0 5.28379 0.0766231 5.46878 0.213013 5.60517C0.349403 5.74156 0.534388 5.81818 0.727273 5.81818ZM6.54545 2.90909H3.63636C3.44348 2.90909 3.25849 2.98571 3.1221 3.1221C2.98571 3.25849 2.90909 3.44348 2.90909 3.63636V6.54545C2.90909 6.73834 2.98571 6.92332 3.1221 7.05971C3.25849 7.1961 3.44348 7.27273 3.63636 7.27273H6.54545C6.73834 7.27273 6.92332 7.1961 7.05971 7.05971C7.1961 6.92332 7.27273 6.73834 7.27273 6.54545V3.63636C7.27273 3.44348 7.1961 3.25849 7.05971 3.1221C6.92332 2.98571 6.73834 2.90909 6.54545 2.90909ZM5.81818 5.81818H4.36364V4.36364H5.81818V5.81818ZM9.45455 7.27273H12.3636C12.5565 7.27273 12.7415 7.1961 12.8779 7.05971C13.0143 6.92332 13.0909 6.73834 13.0909 6.54545V3.63636C13.0909 3.44348 13.0143 3.25849 12.8779 3.1221C12.7415 2.98571 12.5565 2.90909 12.3636 2.90909H9.45455C9.26166 2.90909 9.07668 2.98571 8.94029 3.1221C8.8039 3.25849 8.72727 3.44348 8.72727 3.63636V6.54545C8.72727 6.73834 8.8039 6.92332 8.94029 7.05971C9.07668 7.1961 9.26166 7.27273 9.45455 7.27273ZM10.1818 4.36364H11.6364V5.81818H10.1818V4.36364ZM6.54545 8.72727H3.63636C3.44348 8.72727 3.25849 8.8039 3.1221 8.94029C2.98571 9.07668 2.90909 9.26166 2.90909 9.45455V12.3636C2.90909 12.5565 2.98571 12.7415 3.1221 12.8779C3.25849 13.0143 3.44348 13.0909 3.63636 13.0909H6.54545C6.73834 13.0909 6.92332 13.0143 7.05971 12.8779C7.1961 12.7415 7.27273 12.5565 7.27273 12.3636V9.45455C7.27273 9.26166 7.1961 9.07668 7.05971 8.94029C6.92332 8.8039 6.73834 8.72727 6.54545 8.72727ZM5.81818 11.6364H4.36364V10.1818H5.81818V11.6364ZM9.45455 10.9091C9.64743 10.9091 9.83241 10.8325 9.96881 10.6961C10.1052 10.5597 10.1818 10.3747 10.1818 10.1818C10.3747 10.1818 10.5597 10.1052 10.6961 9.96881C10.8325 9.83241 10.9091 9.64743 10.9091 9.45455C10.9091 9.26166 10.8325 9.07668 10.6961 8.94029C10.5597 8.8039 10.3747 8.72727 10.1818 8.72727H9.45455C9.26166 8.72727 9.07668 8.8039 8.94029 8.94029C8.8039 9.07668 8.72727 9.26166 8.72727 9.45455V10.1818C8.72727 10.3747 8.8039 10.5597 8.94029 10.6961C9.07668 10.8325 9.26166 10.9091 9.45455 10.9091ZM12.3636 8.72727C12.1708 8.72727 11.9858 8.8039 11.8494 8.94029C11.713 9.07668 11.6364 9.26166 11.6364 9.45455V11.6364C11.4435 11.6364 11.2585 11.713 11.1221 11.8494C10.9857 11.9858 10.9091 12.1708 10.9091 12.3636C10.9091 12.5565 10.9857 12.7415 11.1221 12.8779C11.2585 13.0143 11.4435 13.0909 11.6364 13.0909H12.3636C12.5565 13.0909 12.7415 13.0143 12.8779 12.8779C13.0143 12.7415 13.0909 12.5565 13.0909 12.3636V9.45455C13.0909 9.26166 13.0143 9.07668 12.8779 8.94029C12.7415 8.8039 12.5565 8.72727 12.3636 8.72727ZM9.45455 11.6364C9.31071 11.6364 9.17009 11.679 9.05049 11.7589C8.93089 11.8388 8.83768 11.9524 8.78263 12.0853C8.72759 12.2182 8.71319 12.3644 8.74125 12.5055C8.76931 12.6466 8.83858 12.7762 8.94029 12.8779C9.042 12.9796 9.17159 13.0489 9.31266 13.0769C9.45374 13.105 9.59997 13.0906 9.73286 13.0355C9.86575 12.9805 9.97934 12.8873 10.0593 12.7677C10.1392 12.6481 10.1818 12.5075 10.1818 12.3636C10.1818 12.1708 10.1052 11.9858 9.96881 11.8494C9.83241 11.713 9.64743 11.6364 9.45455 11.6364Z" fill="#70747D"/>
</svg>
