<svg width="15" height="15" viewBox="0 0 15 15" fill="none" xmlns="http://www.w3.org/2000/svg">
<path d="M6.56639 2.35721C7.30731 2.35608 8.03421 2.55954 8.66732 2.94524C9.30044 3.33095 9.81529 3.884 10.1554 4.54369C10.4955 5.20338 10.6476 5.94422 10.5952 6.68489C10.5427 7.42556 10.2877 8.13743 9.85804 8.74238L9.45921 9.30399L8.89882 9.7037C8.38064 10.0717 7.78312 10.312 7.15484 10.405C6.52655 10.498 5.88523 10.4412 5.283 10.2391C4.68076 10.037 4.13461 9.69534 3.68892 9.24189C3.24323 8.78845 2.91058 8.23601 2.71802 7.62948C2.52545 7.02296 2.4784 6.37945 2.58068 5.75127C2.68297 5.12309 2.93171 4.52796 3.30668 4.01425C3.68165 3.50054 4.17228 3.08274 4.73868 2.79481C5.30509 2.50689 5.93129 2.35696 6.56639 2.35721ZM6.56639 0.333379C5.61265 0.332096 4.67209 0.556498 3.82123 0.988322C2.97038 1.42015 2.23327 2.04719 1.6699 2.81844C1.10653 3.58968 0.732804 4.48333 0.579145 5.42666C0.425486 6.37 0.496231 7.33636 0.785624 8.24712C1.07502 9.15788 1.57488 9.98729 2.24454 10.6679C2.91419 11.3485 3.73472 11.861 4.63935 12.1637C5.54399 12.4665 6.50716 12.5509 7.4505 12.4101C8.39384 12.2694 9.29069 11.9074 10.0681 11.3536L12.9129 14.2052C13.3057 14.5983 13.9428 14.5983 14.3351 14.2052L14.3497 14.1905C14.4495 14.1007 14.5292 13.9908 14.5838 13.868C14.6384 13.7452 14.6667 13.6123 14.6667 13.4779C14.6667 13.3435 14.6384 13.2105 14.5838 13.0878C14.5292 12.965 14.4495 12.8551 14.3497 12.7652L11.5044 9.91418C12.1486 9.00644 12.5309 7.93846 12.6094 6.82734C12.688 5.71623 12.4597 4.6049 11.9496 3.61523C11.4395 2.62555 10.6673 1.79576 9.71775 1.21686C8.76817 0.63795 7.67786 0.332283 6.56639 0.333379Z" fill="#70747D"/>
</svg>
