<svg width="13" height="13" viewBox="0 0 13 13" fill="none" xmlns="http://www.w3.org/2000/svg">
<path fill-rule="evenodd" clip-rule="evenodd" d="M12.7001 6.95512L6.87213 12.6974C6.47352 13.1009 5.82325 13.1009 5.42457 12.6974L0.299003 7.51068C-0.0996676 7.10731 -0.0996676 6.44927 0.299003 6.04581L6.12694 0.303436C6.33164 0.0963273 6.58295 -0.00584956 6.87242 0.000258478L11.0275 0.0890905C11.5227 0.0996136 11.9657 0.29683 12.3361 0.67181C12.7067 1.04679 12.9016 1.4949 12.912 1.99603L12.9997 6.20075C13.0059 6.49367 12.9048 6.74801 12.7001 6.95512ZM9.92636 3.11034C9.43971 2.61788 8.6507 2.61788 8.16405 3.11034C7.6774 3.6028 7.6774 4.40123 8.16405 4.89366C8.6507 5.38612 9.43971 5.38612 9.92646 4.89366C10.4131 4.40123 10.4131 3.6028 9.92636 3.11034Z" fill="#4681F4"/>
</svg>
