<svg width="13" height="13" viewBox="0 0 13 13" fill="none" xmlns="http://www.w3.org/2000/svg">
<path fill-rule="evenodd" clip-rule="evenodd" d="M12.7001 6.04488L6.87213 0.302572C6.47352 -0.100857 5.82325 -0.100857 5.42457 0.302572L0.299003 5.48932C-0.0996676 5.89269 -0.0996676 6.55073 0.299003 6.95419L6.12694 12.6966C6.33164 12.9037 6.58295 13.0058 6.87242 12.9997L11.0275 12.9109C11.5227 12.9004 11.9657 12.7032 12.3361 12.3282C12.7067 11.9532 12.9016 11.5051 12.912 11.004L12.9997 6.79925C13.0059 6.50633 12.9048 6.25199 12.7001 6.04488ZM9.92636 9.88966C9.43971 10.3821 8.6507 10.3821 8.16405 9.88966C7.6774 9.3972 7.6774 8.59877 8.16405 8.10634C8.6507 7.61388 9.43971 7.61388 9.92646 8.10634C10.4131 8.59877 10.4131 9.3972 9.92636 9.88966Z" fill="#4681F4"/>
</svg>
