<svg width="17" height="17" viewBox="0 0 17 17" fill="none" xmlns="http://www.w3.org/2000/svg">
<path d="M5.79803 5.51996L7.85478 1.37796C7.91465 1.25809 8.00673 1.15727 8.12069 1.0868C8.23465 1.01633 8.36599 0.979004 8.49998 0.979004C8.63398 0.979004 8.76532 1.01633 8.87928 1.0868C8.99324 1.15727 9.08532 1.25809 9.14519 1.37796L11.2019 5.51996L15.7999 6.18812C15.9326 6.20651 16.0574 6.26182 16.16 6.34773C16.2627 6.43364 16.3392 6.5467 16.3807 6.67399C16.4223 6.80128 16.4272 6.93769 16.3949 7.06763C16.3626 7.19757 16.2944 7.31582 16.1982 7.40887L12.8716 10.631L13.6569 15.183C13.7574 15.7673 13.1399 16.2122 12.6119 15.9367L8.49998 13.7865L4.38728 15.9367C3.86003 16.213 3.24253 15.7673 3.34307 15.1822L4.1284 10.6302L0.801818 7.40808C0.706016 7.31496 0.638258 7.19683 0.606248 7.06712C0.574238 6.93741 0.579259 6.80132 0.62074 6.67432C0.662221 6.54732 0.738498 6.43451 0.840902 6.3487C0.943306 6.26289 1.06773 6.20753 1.20003 6.18892L5.79803 5.51996Z" fill="#4681F4"/>
</svg>
