<svg width="28" height="28" viewBox="0 0 28 28" fill="none" xmlns="http://www.w3.org/2000/svg">
<circle cx="14" cy="14" r="14" fill="#E7EBF3"/>
<path d="M14 8C12.6744 8.00155 11.4035 8.54992 10.4661 9.52479C9.52875 10.4997 9.00149 11.8214 9 13.2001C9 15.3159 10.4769 17.0729 12.0413 18.9326C12.5363 19.5216 13.0487 20.1306 13.505 20.7468C13.5634 20.8256 13.6384 20.8894 13.7242 20.9333C13.81 20.9772 13.9044 21 14 21C14.0956 21 14.19 20.9772 14.2758 20.9333C14.3616 20.8894 14.4366 20.8256 14.495 20.7468C14.9513 20.1306 15.4637 19.5216 15.9587 18.9326C17.5231 17.0729 19 15.3159 19 13.2001C18.9985 11.8214 18.4712 10.4997 17.5339 9.52479C16.5965 8.54992 15.3256 8.00155 14 8ZM14 15.1502C13.6292 15.1502 13.2666 15.0358 12.9583 14.8215C12.65 14.6073 12.4096 14.3027 12.2677 13.9464C12.1258 13.5901 12.0887 13.198 12.161 12.8197C12.2334 12.4414 12.412 12.094 12.6742 11.8212C12.9364 11.5485 13.2705 11.3628 13.6342 11.2876C13.9979 11.2123 14.3749 11.2509 14.7175 11.3985C15.0601 11.5461 15.353 11.7961 15.559 12.1167C15.765 12.4374 15.875 12.8145 15.875 13.2001C15.875 13.7173 15.6775 14.2133 15.3258 14.579C14.9742 14.9447 14.4973 15.1502 14 15.1502Z" fill="#4681F4"/>
</svg>
