<svg width="18" height="18" viewBox="0 0 18 18" fill="none" xmlns="http://www.w3.org/2000/svg">
<g clip-path="url(#clip0_594_938)">
<path d="M17.7851 9.20714C17.7851 8.59535 17.7355 7.98025 17.6297 7.37837H9.14062V10.8441H14.0019C13.8002 11.9619 13.152 12.9507 12.2029 13.579V15.8278H15.1031C16.8063 14.2602 17.7851 11.9453 17.7851 9.20714Z" fill="#4285F4"/>
<path d="M9.14071 18.0006C11.568 18.0006 13.6151 17.2036 15.1065 15.8279L12.2063 13.5792C11.3994 14.1281 10.3577 14.439 9.14401 14.439C6.79604 14.439 4.80523 12.8549 4.09092 10.7252H1.09808V13.0434C2.62592 16.0826 5.7378 18.0006 9.14071 18.0006Z" fill="#34A853"/>
<path d="M4.08753 10.7253C3.71053 9.60753 3.71053 8.39717 4.08753 7.2794V4.9612H1.098C-0.1785 7.50428 -0.1785 10.5004 1.098 13.0435L4.08753 10.7253Z" fill="#FBBC04"/>
<path d="M9.14071 3.56224C10.4238 3.5424 11.6639 4.02522 12.5932 4.9115L15.1628 2.34196C13.5357 0.814128 11.3762 -0.0258495 9.14071 0.000606499C5.7378 0.000606499 2.62592 1.91867 1.09808 4.96111L4.08761 7.27931C4.79862 5.1463 6.79274 3.56224 9.14071 3.56224Z" fill="#EA4335"/>
</g>
<defs>
<clipPath id="clip0_594_938">
<rect width="18" height="18" fill="white"/>
</clipPath>
</defs>
</svg>
