<svg width="144" height="131" viewBox="0 0 144 131" fill="none" xmlns="http://www.w3.org/2000/svg">
<g clip-path="url(#clip0_590_810)">
<path d="M78.2921 67.9995L93.1066 40.6653L84.3724 25.3754L61.2691 67.9995H78.2921Z" fill="url(#paint0_linear_590_810)"/>
<path d="M84.4648 25.3759L64.3334 44.6101L51.6548 68L69.1504 53.6295L84.4648 25.3759Z" fill="#D7850C"/>
<path d="M98.1008 49.4005L84.386 56.7742L78.3057 68.0003L91.4206 61.7299L98.1008 49.4005Z" fill="#A81C1F"/>
<path d="M87.9594 67.9992H108.663L98.0477 49.3994L87.9594 67.9992Z" fill="url(#paint1_linear_590_810)"/>
<path d="M82.7883 18.8112L79.2347 17.2023L51.8506 67.715H36L67.9193 12.1087L63.2114 9.97566L80.4616 0L82.7883 18.8112Z" fill="url(#paint2_linear_590_810)"/>
</g>
<path d="M1.334 101.113C1.334 99.2377 1.87533 97.8167 2.958 96.85C4.06 95.864 5.568 95.371 7.482 95.371H11.31C11.774 95.371 12.1607 95.2067 12.47 94.878C12.7987 94.5493 12.963 94.153 12.963 93.689C12.963 93.225 12.7987 92.8287 12.47 92.5C12.1607 92.152 11.7837 91.978 11.339 91.978H1.334V87.918H10.846C11.9287 87.918 12.8567 88.0727 13.63 88.382C14.4227 88.6913 15.0703 89.107 15.573 89.629C16.0757 90.151 16.443 90.76 16.675 91.456C16.907 92.152 17.023 92.8867 17.023 93.66C17.023 94.3753 16.907 95.081 16.675 95.777C16.4623 96.4537 16.1047 97.0627 15.602 97.604C15.1187 98.1453 14.4807 98.59 13.688 98.938C12.9147 99.2667 11.9673 99.431 10.846 99.431H6.931C6.48633 99.431 6.119 99.605 5.829 99.953C5.539 100.301 5.394 100.707 5.394 101.171V107H1.334V101.113ZM22.9236 91.978V95.371H28.8396C29.3036 95.371 29.6903 95.2067 29.9996 94.878C30.3283 94.5493 30.4926 94.1433 30.4926 93.66C30.4926 93.2153 30.3283 92.8287 29.9996 92.5C29.6903 92.152 29.3133 91.978 28.8686 91.978H22.9236ZM28.3756 87.918C29.4583 87.918 30.3863 88.0727 31.1596 88.382C31.9523 88.6913 32.5999 89.107 33.1026 89.629C33.6053 90.151 33.9726 90.7697 34.2046 91.485C34.4366 92.181 34.5526 92.9253 34.5526 93.718C34.5526 95.5353 34.0306 96.9273 32.9866 97.894C31.9426 98.8607 30.3573 99.373 28.2306 99.431L34.6976 102.853V107.725L22.9236 100.562V107H18.8636V87.918H28.3756ZM44.5313 91.978C43.236 91.978 42.2693 92.4227 41.6313 93.312C40.9933 94.182 40.6743 95.5837 40.6743 97.517C40.6743 101.132 41.9503 102.94 44.5023 102.94H47.5763C50.1283 102.94 51.4043 101.132 51.4043 97.517C51.4043 95.5837 51.0853 94.182 50.4473 93.312C49.8093 92.4227 48.8426 91.978 47.5473 91.978H44.5313ZM46.7353 87.918C52.4966 87.918 55.4063 91.079 55.4643 97.401V97.488C55.4643 103.829 52.5643 107 46.7643 107H45.3143C39.5143 107 36.6143 103.829 36.6143 97.488V97.401C36.653 94.2497 37.407 91.8813 38.8763 90.296C40.3456 88.7107 42.5013 87.918 45.3433 87.918H46.7353ZM61.864 91.978V95.371H67.78C68.244 95.371 68.6307 95.2067 68.94 94.878C69.2687 94.5493 69.433 94.1433 69.433 93.66C69.433 93.2153 69.2687 92.8287 68.94 92.5C68.6307 92.152 68.2537 91.978 67.809 91.978H61.864ZM67.316 87.918C68.3987 87.918 69.3267 88.0727 70.1 88.382C70.8927 88.6913 71.5404 89.107 72.043 89.629C72.5457 90.151 72.913 90.7697 73.145 91.485C73.377 92.181 73.493 92.9253 73.493 93.718C73.493 94.414 73.377 95.1003 73.145 95.777C72.9324 96.4537 72.5747 97.0627 72.072 97.604C71.5887 98.1453 70.9507 98.59 70.158 98.938C69.3847 99.2667 68.4374 99.431 67.316 99.431H61.864V107H57.804V87.918H67.316ZM83.7907 91.978V107H79.7307V91.978H75.2357V87.918H88.0247V91.978H83.7907ZM105.46 91.978H95.4549C95.0102 91.978 94.6235 92.152 94.2949 92.5C93.9855 92.8287 93.8309 93.225 93.8309 93.689C93.8309 94.153 93.9759 94.5493 94.2659 94.878C94.5752 95.2067 94.9812 95.371 95.4839 95.371H105.46V99.431H95.4549C95.0102 99.431 94.6235 99.605 94.2949 99.953C93.9855 100.282 93.8309 100.697 93.8309 101.2C93.8309 101.683 93.9855 102.099 94.2949 102.447C94.6235 102.776 95.0199 102.94 95.4839 102.94H105.46V107H95.9479C94.8072 107 93.8405 106.836 93.0479 106.507C92.2745 106.178 91.6365 105.743 91.1339 105.202C90.6505 104.641 90.2929 104.013 90.0609 103.317C89.8482 102.621 89.7419 101.906 89.7419 101.171C89.7419 100.823 89.7709 100.456 89.8289 100.069C89.8869 99.663 89.9932 99.286 90.1479 98.938C90.3025 98.59 90.5055 98.2807 90.7569 98.01C91.0275 97.7393 91.3755 97.5363 91.8009 97.401C91.0275 97.0337 90.4959 96.4923 90.2059 95.777C89.9159 95.0423 89.7709 94.182 89.7709 93.196C89.7709 91.514 90.3025 90.2187 91.3659 89.31C92.4292 88.382 93.9565 87.918 95.9479 87.918H105.46V91.978ZM123.588 107H116.512C110.712 107 107.812 103.829 107.812 97.488V97.401C107.87 91.079 110.779 87.918 116.541 87.918H123.617V91.978H115.729C114.433 91.978 113.467 92.4227 112.829 93.312C112.191 94.182 111.872 95.5837 111.872 97.517V97.749C111.872 101.21 113.148 102.94 115.7 102.94H123.588V107ZM137.713 107V99.431H130.144V107H126.084V87.918H130.144V95.371H137.713V87.918H141.773V107H137.713Z" fill="#070707"/>
<path d="M40.498 126.404C39.742 126.95 38.874 127.16 37.936 127.16C35.528 127.16 33.75 125.424 33.75 123.1C33.75 120.762 35.528 119.04 37.95 119.04C39.098 119.04 40.078 119.376 40.904 120.188L41.548 119.53C40.68 118.592 39.392 118.116 37.908 118.116C34.912 118.116 32.728 120.23 32.728 123.1C32.728 125.97 34.912 128.084 37.894 128.084C39.252 128.084 40.568 127.664 41.492 126.838V123.1H40.498V126.404ZM48.6241 128H55.1481V127.104H49.6601V118.2H48.6241V128ZM65.1609 128.084C68.1009 128.084 70.2989 125.97 70.2989 123.1C70.2989 120.23 68.1009 118.116 65.1609 118.116C62.1929 118.116 60.0089 120.244 60.0089 123.1C60.0089 125.956 62.1929 128.084 65.1609 128.084ZM65.1609 127.16C62.7949 127.16 61.0309 125.438 61.0309 123.1C61.0309 120.762 62.7949 119.04 65.1609 119.04C67.5129 119.04 69.2629 120.762 69.2629 123.1C69.2629 125.438 67.5129 127.16 65.1609 127.16ZM82.995 122.946C83.891 122.582 84.493 121.84 84.493 120.72C84.493 119.124 83.233 118.2 81.049 118.2H76.821V128H81.329C83.779 128 85.011 127.048 85.011 125.382C85.011 124.052 84.255 123.226 82.995 122.946ZM80.979 119.054C82.547 119.054 83.457 119.656 83.457 120.832C83.457 122.008 82.547 122.61 80.979 122.61H77.857V119.054H80.979ZM81.315 127.146H77.857V123.464H81.315C83.037 123.464 83.975 124.024 83.975 125.298C83.975 126.586 83.037 127.146 81.315 127.146ZM98.8977 128H99.9897L95.5097 118.2H94.4877L90.0077 128H91.0857L92.2617 125.382H97.7217L98.8977 128ZM92.6397 124.542L94.9917 119.278L97.3437 124.542H92.6397ZM105.811 128H112.335V127.104H106.847V118.2H105.811V128Z" fill="#070707"/>
<defs>
<linearGradient id="paint0_linear_590_810" x1="72.3395" y1="65.1091" x2="87.4729" y2="34.1435" gradientUnits="userSpaceOnUse">
<stop stop-color="#F6C300"/>
<stop offset="1" stop-color="#F0A108"/>
</linearGradient>
<linearGradient id="paint1_linear_590_810" x1="94.9617" y1="68.944" x2="100.666" y2="51.974" gradientUnits="userSpaceOnUse">
<stop stop-color="#C61E21"/>
<stop offset="1" stop-color="#F82126"/>
</linearGradient>
<linearGradient id="paint2_linear_590_810" x1="46.2949" y1="68" x2="83.3105" y2="0.281857" gradientUnits="userSpaceOnUse">
<stop stop-color="#6A9DFF"/>
<stop offset="1" stop-color="#4681F4"/>
</linearGradient>
<clipPath id="clip0_590_810">
<rect width="73" height="68" fill="white" transform="translate(36)"/>
</clipPath>
</defs>
</svg>
