<svg width="18" height="18" viewBox="0 0 18 18" fill="none" xmlns="http://www.w3.org/2000/svg">
<path d="M9.00409 5.15789C11.2633 5.15789 13.0969 6.92632 13.0969 9.10526C13.0969 9.61842 12.9904 10.1 12.8022 10.55L15.1924 12.8553C16.4284 11.8605 17.4025 10.5737 18 9.10526C16.5839 5.63947 13.0887 3.18421 8.99591 3.18421C7.84993 3.18421 6.75307 3.38158 5.73806 3.73684L7.50614 5.44211C7.97272 5.26053 8.47203 5.15789 9.00409 5.15789ZM0.818554 3.00263L2.68486 4.80263L3.06139 5.16579C1.69323 6.19053 0.635867 7.55117 0 9.10526C1.4161 12.5711 4.91132 15.0263 9.00409 15.0263C10.2729 15.0263 11.4843 14.7895 12.5894 14.3632L12.9332 14.6947L15.3315 17L16.3711 15.9974L1.85812 2L0.818554 3.00263ZM5.34516 7.36842L6.61392 8.59211C6.57299 8.7579 6.54843 8.93158 6.54843 9.10526C6.54843 10.4158 7.64529 11.4737 9.00409 11.4737C9.18418 11.4737 9.36426 11.45 9.53615 11.4105L10.8049 12.6342C10.2565 12.8947 9.65075 13.0526 9.00409 13.0526C6.74488 13.0526 4.91132 11.2842 4.91132 9.10526C4.91132 8.48158 5.07503 7.89737 5.34516 7.36842ZM8.87313 6.75263L11.4516 9.23947L11.4679 9.11316C11.4679 7.80263 10.3711 6.74474 9.01228 6.74474L8.87313 6.75263Z" fill="#C6C6C7"/>
</svg>
