<svg width="24" height="24" viewBox="0 0 24 24" fill="none" xmlns="http://www.w3.org/2000/svg">
<path fill-rule="evenodd" clip-rule="evenodd" d="M16.5714 10.8571C17.8338 10.8571 18.8571 11.8805 18.8571 13.1429V17.7143C18.8571 18.9767 17.8338 20 16.5714 20H7.42857C6.16621 20 5.14286 18.9767 5.14286 17.7143V13.1429C5.14286 11.8805 6.16621 10.8571 7.42857 10.8571V8.57143C7.42857 6.0467 9.47527 4 12 4C14.5247 4 16.5714 6.0467 16.5714 8.57143V10.8571ZM12 5.52387C13.6831 5.52387 15.0476 6.88834 15.0476 8.57149V10.8572H8.95238V8.57149C8.95238 6.88834 10.3168 5.52387 12 5.52387ZM16.5714 12.3809H7.42857C7.00779 12.3809 6.66667 12.722 6.66667 13.1428V17.7142C6.66667 18.135 7.00779 18.4761 7.42857 18.4761H16.5714C16.9922 18.4761 17.3333 18.135 17.3333 17.7142V13.1428C17.3333 12.722 16.9922 12.3809 16.5714 12.3809Z" fill="#171717"/>
</svg>
