<svg width="375" height="233" viewBox="0 0 375 233" fill="none" xmlns="http://www.w3.org/2000/svg">
<g filter="url(#filter0_d_623_796)">
<mask id="mask0_623_796" style="mask-type:alpha" maskUnits="userSpaceOnUse" x="0" y="0" width="375" height="207">
<path d="M5 0C5 0 5 0 5 0H370C371.326 0 372.598 0.348384 373.536 0.968513C374.473 1.58864 375 2.42972 375 3.30671V157C375 184.614 352.614 207 325 207H5C3.67392 207 2.40215 206.652 1.46447 206.031C0.526784 205.411 0 204.57 0 203.693L0 3.30671C0 2.42972 0.526784 1.58864 1.46447 0.968513C2.40215 0.348384 3.67392 0 5 0C5 0 5 0 5 0V0Z" fill="#4681F4"/>
</mask>
<g mask="url(#mask0_623_796)">
<path d="M5 0C5 0 5 0 5 0H370C371.326 0 372.598 0.348384 373.536 0.968513C374.473 1.58864 375 2.42972 375 3.30671V157C375 184.614 352.614 207 325 207H5C3.67392 207 2.40215 206.652 1.46447 206.031C0.526784 205.411 0 204.57 0 203.693L0 3.30671C0 2.42972 0.526784 1.58864 1.46447 0.968513C2.40215 0.348384 3.67392 0 5 0C5 0 5 0 5 0V0Z" fill="#4681F4"/>
<circle opacity="0.1" cx="-0.830875" cy="36.1691" r="23" transform="rotate(15 -0.830875 36.1691)" fill="white"/>
<ellipse opacity="0.06" cx="344.48" cy="104.108" rx="57.2203" ry="58.0096" transform="rotate(15 344.48 104.108)" fill="#D9D9D9"/>
<path opacity="0.12" d="M211.082 22.2125C205.506 43.0235 184.333 55.4208 163.8 49.9191C143.267 44.4174 131.13 23.0945 136.706 2.28348C142.282 -18.5275 163.455 -30.9248 183.988 -25.4231C204.521 -19.9214 216.658 1.40155 211.082 22.2125Z" fill="white" stroke="white"/>
</g>
</g>
<defs>
<filter id="filter0_d_623_796" x="-20" y="-14" width="415" height="247" filterUnits="userSpaceOnUse" color-interpolation-filters="sRGB">
<feFlood flood-opacity="0" result="BackgroundImageFix"/>
<feColorMatrix in="SourceAlpha" type="matrix" values="0 0 0 0 0 0 0 0 0 0 0 0 0 0 0 0 0 0 127 0" result="hardAlpha"/>
<feOffset dy="6"/>
<feGaussianBlur stdDeviation="10"/>
<feColorMatrix type="matrix" values="0 0 0 0 0.905882 0 0 0 0 0.921569 0 0 0 0 0.952941 0 0 0 1 0"/>
<feBlend mode="normal" in2="BackgroundImageFix" result="effect1_dropShadow_623_796"/>
<feBlend mode="normal" in="SourceGraphic" in2="effect1_dropShadow_623_796" result="shape"/>
</filter>
</defs>
</svg>
