<svg width="24" height="24" viewBox="0 0 24 24" fill="none" xmlns="http://www.w3.org/2000/svg">
<path d="M12.7825 14.9067H11.2173C10.7869 14.9067 10.4347 14.5713 10.4347 14.1614H4.96426V17.1427C4.96426 17.9626 5.66861 18.6334 6.52948 18.6334H17.4782C18.339 18.6334 19.0434 17.9626 19.0434 17.1427V14.1614H13.5651C13.5651 14.5713 13.213 14.9067 12.7825 14.9067ZM18.2608 8.19865H15.1303C15.1303 6.55145 13.7295 5.21729 11.9999 5.21729C10.2703 5.21729 8.86948 6.55145 8.86948 8.19865H5.73905C4.87818 8.19865 4.17383 8.86946 4.17383 9.68933V11.9254C4.17383 12.7527 4.87035 13.416 5.73905 13.416H10.4347V12.6707C10.4347 12.2608 10.7869 11.9254 11.2173 11.9254H12.7825C13.213 11.9254 13.5651 12.2608 13.5651 12.6707V13.416H18.2608C19.1217 13.416 19.826 12.7452 19.826 11.9254V9.68933C19.826 8.86946 19.1217 8.19865 18.2608 8.19865ZM10.4347 8.19865C10.4347 7.37878 11.139 6.70797 11.9999 6.70797C12.8608 6.70797 13.5651 7.37878 13.5651 8.19865H10.4269H10.4347Z" fill="#4681F4"/>
</svg>
