<svg width="24" height="24" viewBox="0 0 24 24" fill="none" xmlns="http://www.w3.org/2000/svg">
<path fill-rule="evenodd" clip-rule="evenodd" d="M5 12C5 15.8661 8.1339 19 12 19C15.8661 19 19 15.8661 19 12C19 8.1339 15.8661 5 12 5C8.1339 5 5 8.1339 5 12ZM11.3001 15.5V15.5H12.7001V14.1H12.7H11.3001V15.5ZM13.2622 8.49926C13.4006 8.5824 13.531 8.67934 13.6512 8.789C13.9719 9.0814 14.2092 9.45371 14.3388 9.86787C14.4685 10.282 14.4858 10.7232 14.3891 11.1462C14.2923 11.5693 14.085 11.9591 13.7882 12.2757C13.4915 12.5924 13.1159 12.8246 12.7001 12.9485V13.4H11.3001V13.4V12.35C11.3001 12.1644 11.3738 11.9863 11.5051 11.8551C11.6364 11.7238 11.8144 11.65 12.0001 11.65C12.1989 11.65 12.3937 11.5935 12.5617 11.4872C12.7297 11.3808 12.864 11.2289 12.9491 11.0491C13.0341 10.8694 13.0664 10.6692 13.0421 10.4718C13.0178 10.2744 12.938 10.088 12.8119 9.93426C12.7234 9.82633 12.6147 9.7376 12.4925 9.67268C12.4623 9.65666 12.4313 9.64209 12.3996 9.62904C12.3767 9.61963 12.3535 9.61101 12.3299 9.6032C12.1411 9.54072 11.9385 9.53313 11.7456 9.58132C11.5526 9.62951 11.3773 9.73149 11.2401 9.8754C11.1029 10.0193 11.0093 10.1992 10.9704 10.3942L9.59695 10.1191C9.59696 10.1191 9.59696 10.1191 9.59696 10.1191C9.6821 9.69358 9.87871 9.29828 10.1667 8.97363C10.4547 8.64899 10.8237 8.40663 11.2361 8.27135C11.6484 8.13607 12.0893 8.1127 12.5136 8.20366C12.6388 8.23047 12.7611 8.26695 12.8797 8.31255C13.0124 8.3636 13.1404 8.42608 13.2622 8.49926Z" fill="#4681F4"/>
</svg>
