<svg width="24" height="24" viewBox="0 0 24 24" fill="none" xmlns="http://www.w3.org/2000/svg">
<path d="M7.55559 6C6.69613 6 6 6.67125 6 7.5V16.5C6 17.3287 6.69613 18 7.55559 18H13.7779C14.6374 18 15.3335 17.3287 15.3335 16.5V12.75H10.6668C10.2374 12.75 9.88897 12.414 9.88897 12C9.88897 11.586 10.2374 11.25 10.6668 11.25H15.3335V7.5C15.3335 6.67125 14.6374 6 13.7779 6H7.55559ZM15.3335 11.25V12.75H16.8891V13.8003C16.8891 14.0425 17.0409 14.261 17.2735 14.354C17.3505 14.3848 17.4318 14.3994 17.512 14.3994C17.6737 14.3994 17.8312 14.3398 17.951 14.2251L19.818 12.4233C20.0607 12.1893 20.0607 11.8092 19.818 11.5752L17.951 9.7749C17.7729 9.6039 17.5068 9.55375 17.2735 9.646C17.0409 9.739 16.8891 9.95746 16.8891 10.1997V11.25H15.3335Z" fill="#000"/>
</svg>
