<svg width="23" height="23" viewBox="0 0 23 23" fill="none" xmlns="http://www.w3.org/2000/svg">
<path d="M18.4231 17.8333V9.08333C18.4231 8.92862 18.3623 8.78025 18.2541 8.67085C18.1459 8.56146 17.9992 8.5 17.8462 8.5H11.5V5.58333C11.5 5.42862 11.4392 5.28025 11.331 5.17085C11.2228 5.06146 11.0761 5 10.9231 5H5.15385C5.00084 5 4.85409 5.06146 4.7459 5.17085C4.63771 5.28025 4.57692 5.42862 4.57692 5.58333V17.8333C4.42391 17.8333 4.27717 17.8948 4.16898 18.0042C4.06078 18.1136 4 18.262 4 18.4167C4 18.5714 4.06078 18.7197 4.16898 18.8291C4.27717 18.9385 4.42391 19 4.57692 19H6.30769V14.9167C6.30769 14.762 6.36848 14.6136 6.47667 14.5042C6.58486 14.3948 6.73161 14.3333 6.88462 14.3333H9.19231C9.34532 14.3333 9.49206 14.3948 9.60025 14.5042C9.70845 14.6136 9.76923 14.762 9.76923 14.9167V19H12.6538V14.9167C12.6538 14.762 12.7146 14.6136 12.8228 14.5042C12.931 14.3948 13.0778 14.3333 13.2308 14.3333H15.5385C15.6915 14.3333 15.8382 14.3948 15.9464 14.5042C16.0546 14.6136 16.1154 14.762 16.1154 14.9167V19H18.4231C18.5761 19 18.7228 18.9385 18.831 18.8291C18.9392 18.7197 19 18.5714 19 18.4167C19 18.262 18.9392 18.1136 18.831 18.0042C18.7228 17.8948 18.5761 17.8333 18.4231 17.8333ZM8.61538 10.8333H7.46154C7.30853 10.8333 7.16179 10.7719 7.05359 10.6625C6.9454 10.5531 6.88462 10.4047 6.88462 10.25C6.88462 10.0953 6.9454 9.94692 7.05359 9.83752C7.16179 9.72812 7.30853 9.66667 7.46154 9.66667H8.61538C8.76839 9.66667 8.91514 9.72812 9.02333 9.83752C9.13152 9.94692 9.19231 10.0953 9.19231 10.25C9.19231 10.4047 9.13152 10.5531 9.02333 10.6625C8.91514 10.7719 8.76839 10.8333 8.61538 10.8333ZM8.61538 8.5H7.46154C7.30853 8.5 7.16179 8.43854 7.05359 8.32915C6.9454 8.21975 6.88462 8.07138 6.88462 7.91667C6.88462 7.76196 6.9454 7.61358 7.05359 7.50419C7.16179 7.39479 7.30853 7.33333 7.46154 7.33333H8.61538C8.76839 7.33333 8.91514 7.39479 9.02333 7.50419C9.13152 7.61358 9.19231 7.76196 9.19231 7.91667C9.19231 8.07138 9.13152 8.21975 9.02333 8.32915C8.91514 8.43854 8.76839 8.5 8.61538 8.5ZM14.9615 12H13.8077C13.6547 12 13.5079 11.9385 13.3997 11.8291C13.2916 11.7197 13.2308 11.5714 13.2308 11.4167C13.2308 11.262 13.2916 11.1136 13.3997 11.0042C13.5079 10.8948 13.6547 10.8333 13.8077 10.8333H14.9615C15.1145 10.8333 15.2613 10.8948 15.3695 11.0042C15.4777 11.1136 15.5385 11.262 15.5385 11.4167C15.5385 11.5714 15.4777 11.7197 15.3695 11.8291C15.2613 11.9385 15.1145 12 14.9615 12Z" fill="white"/>
</svg>
