<svg width="23" height="23" viewBox="0 0 23 23" fill="none" xmlns="http://www.w3.org/2000/svg">
<path d="M12.25 14.2857H10.75C10.3375 14.2857 10 13.9643 10 13.5714H4.7575V16.4286C4.7575 17.2143 5.4325 17.8571 6.2575 17.8571H16.75C17.575 17.8571 18.25 17.2143 18.25 16.4286V13.5714H13C13 13.9643 12.6625 14.2857 12.25 14.2857ZM17.5 7.85714H14.5C14.5 6.27857 13.1575 5 11.5 5C9.8425 5 8.5 6.27857 8.5 7.85714H5.5C4.675 7.85714 4 8.5 4 9.28571V11.4286C4 12.2214 4.6675 12.8571 5.5 12.8571H10V12.1429C10 11.75 10.3375 11.4286 10.75 11.4286H12.25C12.6625 11.4286 13 11.75 13 12.1429V12.8571H17.5C18.325 12.8571 19 12.2143 19 11.4286V9.28571C19 8.5 18.325 7.85714 17.5 7.85714ZM10 7.85714C10 7.07143 10.675 6.42857 11.5 6.42857C12.325 6.42857 13 7.07143 13 7.85714H9.9925H10Z" fill="white"/>
</svg>
