<svg width="24" height="23" viewBox="0 0 24 23" fill="none" xmlns="http://www.w3.org/2000/svg">
<path d="M11.4999 10.7097C13.4479 10.7097 15.0271 9.13054 15.0271 7.1825C15.0271 5.23447 13.4479 3.65527 11.4999 3.65527C9.55185 3.65527 7.97266 5.23447 7.97266 7.1825C7.97266 9.13054 9.55185 10.7097 11.4999 10.7097Z" fill="#000"/>
<path d="M17.9794 16.6329C17.705 15.3835 17.0758 14.2399 16.1673 13.3393C15.9468 13.1181 15.7079 12.916 15.4531 12.7353C14.2926 11.8649 12.8782 11.4001 11.4276 11.4126C9.65391 11.4035 7.94857 12.0961 6.68348 13.3393C5.775 14.2399 5.14577 15.3835 4.87136 16.6329C4.82367 16.8538 4.82624 17.0826 4.8789 17.3024C4.93156 17.5222 5.03295 17.7274 5.17559 17.9027C5.3233 18.0818 5.50931 18.2255 5.71991 18.3231C5.93052 18.4208 6.16035 18.47 6.39248 18.4671H16.4627C16.6955 18.4672 16.9254 18.415 17.1353 18.3142C17.3452 18.2135 17.5297 18.0668 17.6752 17.8851C17.8153 17.7118 17.9152 17.5096 17.9678 17.2931C18.0204 17.0766 18.0244 16.8511 17.9794 16.6329Z" fill="#000"/>
</svg>
