<svg width="109" height="118" viewBox="0 0 109 118" fill="none" xmlns="http://www.w3.org/2000/svg">
<rect x="13" width="75" height="75" rx="14" fill="white"/>
<g clip-path="url(#clip0_1042_888)">
<path d="M54.9612 63.3889L66.1569 42.7317L59.5562 31.1768L42.0964 63.3889H54.9612Z" fill="url(#paint0_linear_1042_888)"/>
<path d="M59.6262 31.1772L44.4124 45.713L34.8308 63.3894L48.0527 52.5292L59.6262 31.1772Z" fill="#D7850C"/>
<path d="M69.9311 49.3333L59.5665 54.9058L54.9714 63.3896L64.8827 58.6509L69.9311 49.3333Z" fill="#A81C1F"/>
<path d="M62.2671 63.3886H77.9136L69.8911 49.3323L62.2671 63.3886Z" fill="url(#paint1_linear_1042_888)"/>
<path d="M58.3591 26.2161L55.6735 25.0002L34.9787 63.1739H23L47.1222 21.1509L43.5643 19.5389L56.6008 12L58.3591 26.2161Z" fill="url(#paint2_linear_1042_888)"/>
</g>
<path d="M0.92 95.4439C0.92 94.1506 1.29333 93.1706 2.04 92.5039C2.8 91.8239 3.84 91.4839 5.16 91.4839H7.8C8.12 91.4839 8.38667 91.3706 8.6 91.1439C8.82667 90.9172 8.94 90.6439 8.94 90.3239C8.94 90.0039 8.82667 89.7306 8.6 89.5039C8.38667 89.2639 8.12667 89.1439 7.82 89.1439H0.92V86.3439H7.48C8.22667 86.3439 8.86667 86.4506 9.4 86.6639C9.94667 86.8772 10.3933 87.1639 10.74 87.5239C11.0867 87.8839 11.34 88.3039 11.5 88.7839C11.66 89.2639 11.74 89.7706 11.74 90.3039C11.74 90.7972 11.66 91.2839 11.5 91.7639C11.3533 92.2306 11.1067 92.6506 10.76 93.0239C10.4267 93.3972 9.98667 93.7039 9.44 93.9439C8.90667 94.1706 8.25333 94.2839 7.48 94.2839H4.78C4.47333 94.2839 4.22 94.4039 4.02 94.6439C3.82 94.8839 3.72 95.1639 3.72 95.4839V99.5039H0.92V95.4439ZM15.8094 89.1439V91.4839H19.8894C20.2094 91.4839 20.476 91.3706 20.6894 91.1439C20.916 90.9172 21.0294 90.6372 21.0294 90.3039C21.0294 89.9972 20.916 89.7306 20.6894 89.5039C20.476 89.2639 20.216 89.1439 19.9094 89.1439H15.8094ZM19.5694 86.3439C20.316 86.3439 20.956 86.4506 21.4894 86.6639C22.036 86.8772 22.4827 87.1639 22.8294 87.5239C23.176 87.8839 23.4294 88.3106 23.5894 88.8039C23.7494 89.2839 23.8294 89.7972 23.8294 90.3439C23.8294 91.5972 23.4694 92.5572 22.7494 93.2239C22.0294 93.8906 20.936 94.2439 19.4694 94.2839L23.9294 96.6439V100.004L15.8094 95.0639V99.5039H13.0094V86.3439H19.5694ZM30.7113 89.1439C29.8179 89.1439 29.1513 89.4506 28.7113 90.0639C28.2713 90.6639 28.0513 91.6306 28.0513 92.9639C28.0513 95.4572 28.9313 96.7039 30.6913 96.7039H32.8113C34.5713 96.7039 35.4513 95.4572 35.4513 92.9639C35.4513 91.6306 35.2313 90.6639 34.7913 90.0639C34.3513 89.4506 33.6846 89.1439 32.7913 89.1439H30.7113ZM32.2313 86.3439C36.2046 86.3439 38.2113 88.5239 38.2513 92.8839V92.9439C38.2513 97.3172 36.2513 99.5039 32.2513 99.5039H31.2513C27.2513 99.5039 25.2513 97.3172 25.2513 92.9439V92.8839C25.2779 90.7106 25.7979 89.0772 26.8113 87.9839C27.8246 86.8906 29.3113 86.3439 31.2713 86.3439H32.2313ZM42.6648 89.1439V91.4839H46.7448C47.0648 91.4839 47.3315 91.3706 47.5448 91.1439C47.7715 90.9172 47.8848 90.6372 47.8848 90.3039C47.8848 89.9972 47.7715 89.7306 47.5448 89.5039C47.3315 89.2639 47.0715 89.1439 46.7648 89.1439H42.6648ZM46.4248 86.3439C47.1715 86.3439 47.8115 86.4506 48.3448 86.6639C48.8915 86.8772 49.3382 87.1639 49.6848 87.5239C50.0315 87.8839 50.2848 88.3106 50.4448 88.8039C50.6048 89.2839 50.6848 89.7972 50.6848 90.3439C50.6848 90.8239 50.6048 91.2972 50.4448 91.7639C50.2982 92.2306 50.0515 92.6506 49.7048 93.0239C49.3715 93.3972 48.9315 93.7039 48.3848 93.9439C47.8515 94.1706 47.1982 94.2839 46.4248 94.2839H42.6648V99.5039H39.8648V86.3439H46.4248ZM57.7867 89.1439V99.5039H54.9867V89.1439H51.8867V86.3439H60.7067V89.1439H57.7867ZM72.7309 89.1439H65.8309C65.5243 89.1439 65.2576 89.2639 65.0309 89.5039C64.8176 89.7306 64.7109 90.0039 64.7109 90.3239C64.7109 90.6439 64.8109 90.9172 65.0109 91.1439C65.2243 91.3706 65.5043 91.4839 65.8509 91.4839H72.7309V94.2839H65.8309C65.5243 94.2839 65.2576 94.4039 65.0309 94.6439C64.8176 94.8706 64.7109 95.1572 64.7109 95.5039C64.7109 95.8372 64.8176 96.1239 65.0309 96.3639C65.2576 96.5906 65.5309 96.7039 65.8509 96.7039H72.7309V99.5039H66.1709C65.3843 99.5039 64.7176 99.3906 64.1709 99.1639C63.6376 98.9372 63.1976 98.6372 62.8509 98.2639C62.5176 97.8772 62.2709 97.4439 62.1109 96.9639C61.9643 96.4839 61.8909 95.9906 61.8909 95.4839C61.8909 95.2439 61.9109 94.9906 61.9509 94.7239C61.9909 94.4439 62.0643 94.1839 62.1709 93.9439C62.2776 93.7039 62.4176 93.4906 62.5909 93.3039C62.7776 93.1172 63.0176 92.9772 63.3109 92.8839C62.7776 92.6306 62.4109 92.2572 62.2109 91.7639C62.0109 91.2572 61.9109 90.6639 61.9109 89.9839C61.9109 88.8239 62.2776 87.9306 63.0109 87.3039C63.7443 86.6639 64.7976 86.3439 66.1709 86.3439H72.7309V89.1439ZM85.2328 99.5039H80.3528C76.3528 99.5039 74.3528 97.3172 74.3528 92.9439V92.8839C74.3928 88.5239 76.3995 86.3439 80.3728 86.3439H85.2528V89.1439H79.8128C78.9195 89.1439 78.2528 89.4506 77.8128 90.0639C77.3728 90.6639 77.1528 91.6306 77.1528 92.9639V93.1239C77.1528 95.5106 78.0328 96.7039 79.7928 96.7039H85.2328V99.5039ZM94.9747 99.5039V94.2839H89.7547V99.5039H86.9547V86.3439H89.7547V91.4839H94.9747V86.3439H97.7747V99.5039H94.9747Z" fill="white"/>
<path d="M25.677 112.899C25.083 113.328 24.401 113.493 23.664 113.493C21.772 113.493 20.375 112.129 20.375 110.303C20.375 108.466 21.772 107.113 23.675 107.113C24.577 107.113 25.347 107.377 25.996 108.015L26.502 107.498C25.82 106.761 24.808 106.387 23.642 106.387C21.288 106.387 19.572 108.048 19.572 110.303C19.572 112.558 21.288 114.219 23.631 114.219C24.698 114.219 25.732 113.889 26.458 113.24V110.303H25.677V112.899ZM32.0618 114.153H37.1878V113.449H32.8758V106.453H32.0618V114.153ZM45.055 114.219C47.365 114.219 49.092 112.558 49.092 110.303C49.092 108.048 47.365 106.387 45.055 106.387C42.723 106.387 41.007 108.059 41.007 110.303C41.007 112.547 42.723 114.219 45.055 114.219ZM45.055 113.493C43.196 113.493 41.81 112.14 41.81 110.303C41.81 108.466 43.196 107.113 45.055 107.113C46.903 107.113 48.278 108.466 48.278 110.303C48.278 112.14 46.903 113.493 45.055 113.493ZM59.0675 110.182C59.7715 109.896 60.2445 109.313 60.2445 108.433C60.2445 107.179 59.2545 106.453 57.5385 106.453H54.2165V114.153H57.7585C59.6835 114.153 60.6515 113.405 60.6515 112.096C60.6515 111.051 60.0575 110.402 59.0675 110.182ZM57.4835 107.124C58.7155 107.124 59.4305 107.597 59.4305 108.521C59.4305 109.445 58.7155 109.918 57.4835 109.918H55.0305V107.124H57.4835ZM57.7475 113.482H55.0305V110.589H57.7475C59.1005 110.589 59.8375 111.029 59.8375 112.03C59.8375 113.042 59.1005 113.482 57.7475 113.482ZM71.5625 114.153H72.4205L68.9005 106.453H68.0975L64.5775 114.153H65.4245L66.3485 112.096H70.6385L71.5625 114.153ZM66.6455 111.436L68.4935 107.3L70.3415 111.436H66.6455ZM76.9942 114.153H82.1202V113.449H77.8082V106.453H76.9942V114.153Z" fill="white"/>
<defs>
<linearGradient id="paint0_linear_1042_888" x1="50.4626" y1="61.2045" x2="61.8993" y2="37.803" gradientUnits="userSpaceOnUse">
<stop stop-color="#F6C300"/>
<stop offset="1" stop-color="#F0A108"/>
</linearGradient>
<linearGradient id="paint1_linear_1042_888" x1="67.5589" y1="64.1027" x2="71.8699" y2="51.278" gradientUnits="userSpaceOnUse">
<stop stop-color="#C61E21"/>
<stop offset="1" stop-color="#F82126"/>
</linearGradient>
<linearGradient id="paint2_linear_1042_888" x1="30.7801" y1="63.3893" x2="58.7537" y2="12.213" gradientUnits="userSpaceOnUse">
<stop stop-color="#6A9DFF"/>
<stop offset="1" stop-color="#4681F4"/>
</linearGradient>
<clipPath id="clip0_1042_888">
<rect width="55.1679" height="51.3893" fill="white" transform="translate(23 12)"/>
</clipPath>
</defs>
</svg>
