<svg width="23" height="23" viewBox="0 0 23 23" fill="none" xmlns="http://www.w3.org/2000/svg">
<path d="M5.02094 9.19058C5.33956 8.18282 5.86441 7.25776 6.55695 6.4738C6.67405 6.34123 6.85778 6.29398 7.02227 6.35414L8.67729 6.95934C9.12598 7.12333 9.61971 6.88426 9.78005 6.42537C9.79581 6.38025 9.80796 6.33389 9.81635 6.28683L10.1317 4.51682C10.163 4.34084 10.2952 4.20163 10.4662 4.16438C10.9668 4.05542 11.48 4 12 4C12.5196 4 13.0326 4.05536 13.5328 4.16418C13.7039 4.20139 13.836 4.34051 13.8674 4.51643L14.1836 6.28675C14.2691 6.76615 14.7184 7.08391 15.1872 6.99649C15.2333 6.98789 15.2786 6.97547 15.3227 6.95936L16.9777 6.35414C17.1422 6.29398 17.3259 6.34123 17.443 6.4738C18.1356 7.25776 18.6604 8.18282 18.9791 9.19058C19.0328 9.36059 18.9809 9.54698 18.8477 9.66262L17.5063 10.8274C17.1432 11.1428 17.0987 11.6996 17.4071 12.0711C17.4374 12.1076 17.4706 12.1416 17.5063 12.1726L18.8477 13.3374C18.9809 13.453 19.0328 13.6394 18.9791 13.8094C18.6604 14.8172 18.1356 15.7423 17.443 16.5262C17.3259 16.6587 17.1422 16.706 16.9777 16.6458L15.3227 16.0406C14.8741 15.8767 14.3803 16.1158 14.2199 16.5746C14.2042 16.6197 14.192 16.6661 14.1836 16.7134L13.8674 18.4836C13.836 18.6595 13.7039 18.7986 13.5328 18.8358C13.0326 18.9446 12.5196 19 12 19C11.48 19 10.9668 18.9446 10.4662 18.8356C10.2952 18.7983 10.163 18.6591 10.1317 18.4832L9.81636 16.7132C9.73088 16.2338 9.28159 15.9161 8.81283 16.0035C8.76673 16.0121 8.72141 16.0245 8.67736 16.0406L7.02227 16.6458C6.85778 16.706 6.67405 16.6587 6.55695 16.5262C5.86441 15.7423 5.33956 14.8172 5.02094 13.8094C4.96719 13.6394 5.01902 13.453 5.15221 13.3374L6.49365 12.1726C6.85686 11.8572 6.90129 11.3003 6.59288 10.9289C6.56256 10.8924 6.52937 10.8584 6.49367 10.8274L5.15221 9.66262C5.01902 9.54698 4.96719 9.36059 5.02094 9.19058ZM9.86942 11.4999C9.86942 12.7084 10.8232 13.6881 11.9999 13.6881C13.1765 13.6881 14.1303 12.7084 14.1303 11.4999C14.1303 10.2914 13.1765 9.31169 11.9999 9.31169C10.8232 9.31169 9.86942 10.2914 9.86942 11.4999Z" fill="#000"/>
</svg>
