<svg width="24" height="23" viewBox="0 0 24 23" fill="none" xmlns="http://www.w3.org/2000/svg">
<path d="M8.024 12.3098H5.756C5.336 12.3098 5 12.6439 5 13.0615V17.6277C5 18.0453 5.336 18.3794 5.756 18.3794H8.024C8.444 18.3794 8.78 18.0453 8.78 17.6277V13.0615C8.78 12.6439 8.444 12.3098 8.024 12.3098ZM13.148 10.5557H10.88C10.46 10.5557 10.124 10.8898 10.124 11.3075V17.6277C10.124 18.0453 10.46 18.3794 10.88 18.3794H13.148C13.568 18.3794 13.904 18.0453 13.904 17.6277V11.3075C13.876 10.8898 13.54 10.5557 13.148 10.5557ZM18.244 6.37939H15.976C15.556 6.37939 15.22 6.7135 15.22 7.13113V17.6277C15.22 18.0453 15.556 18.3794 15.976 18.3794H18.244C18.664 18.3794 19 18.0453 19 17.6277V7.10329C19 6.7135 18.664 6.37939 18.244 6.37939Z" fill="white"/>
</svg>
