<svg width="24" height="23" viewBox="0 0 24 23" fill="none" xmlns="http://www.w3.org/2000/svg">
<path d="M17.25 7.66536H6.3125V7.18877L15.9375 6.34997V7.18877H17.25V5.759C17.25 4.7105 16.4704 3.97465 15.5184 4.12239L6.7325 5.48925C5.77963 5.63795 5 6.61686 5 7.66536V17.1972C5 17.7028 5.18437 18.1876 5.51256 18.5452C5.84075 18.9027 6.28587 19.1035 6.75 19.1035H17.25C17.7141 19.1035 18.1592 18.9027 18.4874 18.5452C18.8156 18.1876 19 17.7028 19 17.1972V9.57172C19 9.06612 18.8156 8.58123 18.4874 8.22372C18.1592 7.86621 17.7141 7.66536 17.25 7.66536V7.66536ZM15.9375 14.3433C15.7651 14.3433 15.5944 14.3062 15.4351 14.2343C15.2758 14.1623 15.1311 14.0569 15.0092 13.9241C14.8874 13.7912 14.7907 13.6335 14.7248 13.46C14.6588 13.2864 14.6249 13.1004 14.625 12.9126C14.6251 12.7248 14.6591 12.5388 14.7251 12.3653C14.7911 12.1918 14.8879 12.0342 15.0099 11.9014C15.1318 11.7687 15.2766 11.6634 15.4359 11.5915C15.5952 11.5197 15.766 11.4828 15.9384 11.4828C16.2866 11.483 16.6205 11.6338 16.8666 11.9021C17.1128 12.1704 17.251 12.5342 17.2509 12.9136C17.2508 13.2929 17.1123 13.6566 16.866 13.9248C16.6197 14.1929 16.2857 14.3435 15.9375 14.3433Z" fill="#000"/>
</svg>
