<svg width="6" height="4" viewBox="0 0 6 4" fill="none" xmlns="http://www.w3.org/2000/svg">
<path d="M3.26325 3.86971C3.267 3.86491 3.2685 3.85851 3.27225 3.85371L5.89032 0.768022C6.03656 0.594417 6.03656 0.312809 5.89032 0.139204C5.88882 0.137604 5.88732 0.136804 5.88582 0.136004C5.85328 0.093967 5.81253 0.0600165 5.76642 0.0365252C5.72031 0.013034 5.66994 0.000568571 5.61884 0H0.381949C0.329912 0.000896997 0.278693 0.0139722 0.231913 0.0383022C0.185132 0.0626322 0.14393 0.0976236 0.111217 0.140804L0.109718 0.139204C0.0389451 0.226555 0 0.338156 0 0.453613C0 0.569069 0.0389451 0.680671 0.109718 0.768022L2.73379 3.86971C2.76645 3.91056 2.80704 3.94336 2.85275 3.96586C2.89845 3.98835 2.94818 4 2.99852 4C3.04885 4 3.09859 3.98835 3.14429 3.96586C3.19 3.94336 3.23058 3.91056 3.26325 3.86971Z" fill="#2C3131"/>
</svg>
