<svg width="12" height="12" viewBox="0 0 12 12" fill="none" xmlns="http://www.w3.org/2000/svg">
<path d="M4 3.5H8M10.5 3.5H8H10.5ZM1.5 3.5H4H1.5ZM4 3.5V1.8C4 1.72044 4.03161 1.64413 4.08787 1.58787C4.14413 1.53161 4.22044 1.5 4.3 1.5H7.7C7.77956 1.5 7.85587 1.53161 7.91213 1.58787C7.96839 1.64413 8 1.72044 8 1.8V3.5H4Z" stroke="white" stroke-width="1.6" stroke-linecap="round" stroke-linejoin="round"/>
<path d="M9.5 3.6001V10.2001C9.5 10.2797 9.46839 10.356 9.41213 10.4122C9.35587 10.4685 8.17955 10.5001 8.09999 10.5001H4.19999C4.12042 10.5001 2.64413 10.4685 2.58787 10.4122C2.53161 10.356 2.5 10.2797 2.5 10.2001V3.6001" stroke="white" stroke-width="1.6" stroke-linecap="round" stroke-linejoin="round"/>
</svg>
