<svg width="15" height="14" viewBox="0 0 15 14" fill="none" xmlns="http://www.w3.org/2000/svg">
<path fill-rule="evenodd" clip-rule="evenodd" d="M13.7222 1.55556H12.8117C12.4914 0.649297 11.627 0 10.6111 0C9.59518 0 8.73083 0.649297 8.41054 1.55556H1.27778C0.848227 1.55556 0.5 1.90378 0.5 2.33333C0.5 2.76288 0.848227 3.11111 1.27778 3.11111H8.41054C8.73083 4.01737 9.59518 4.66667 10.6111 4.66667C11.627 4.66667 12.4914 4.01737 12.8117 3.11111H13.7222C14.1518 3.11111 14.5 2.76288 14.5 2.33333C14.5 1.90378 14.1518 1.55556 13.7222 1.55556ZM10.6111 3.11111C11.0407 3.11111 11.3889 2.76288 11.3889 2.33333C11.3889 1.90378 11.0407 1.55556 10.6111 1.55556C10.1815 1.55556 9.83333 1.90378 9.83333 2.33333C9.83333 2.76288 10.1815 3.11111 10.6111 3.11111ZM0.5 7C0.5 6.57043 0.848227 6.22222 1.27778 6.22222H2.18833C2.50864 5.31596 3.37294 4.66667 4.38889 4.66667C5.40484 4.66667 6.26917 5.31596 6.58946 6.22222H13.7222C14.1518 6.22222 14.5 6.57043 14.5 7C14.5 7.42957 14.1518 7.77778 13.7222 7.77778H6.58946C6.26917 8.68404 5.40484 9.33333 4.38889 9.33333C3.37294 9.33333 2.50864 8.68404 2.18833 7.77778H1.27778C0.848227 7.77778 0.5 7.42957 0.5 7ZM4.38889 7.77778C4.81845 7.77778 5.16667 7.42957 5.16667 7C5.16667 6.57043 4.81845 6.22222 4.38889 6.22222C3.95934 6.22222 3.61111 6.57043 3.61111 7C3.61111 7.42957 3.95934 7.77778 4.38889 7.77778ZM1.27778 10.8889C0.848227 10.8889 0.5 11.2371 0.5 11.6667C0.5 12.0962 0.848227 12.4444 1.27778 12.4444H8.41054C8.73083 13.3507 9.59518 14 10.6111 14C11.627 14 12.4914 13.3507 12.8117 12.4444H13.7222C14.1518 12.4444 14.5 12.0962 14.5 11.6667C14.5 11.2371 14.1518 10.8889 13.7222 10.8889H12.8117C12.4914 9.98262 11.627 9.33333 10.6111 9.33333C9.59518 9.33333 8.73083 9.98262 8.41054 10.8889H1.27778ZM11.3889 11.6667C11.3889 12.0962 11.0407 12.4444 10.6111 12.4444C10.1815 12.4444 9.83333 12.0962 9.83333 11.6667C9.83333 11.2371 10.1815 10.8889 10.6111 10.8889C11.0407 10.8889 11.3889 11.2371 11.3889 11.6667Z" fill="#4981F0"/>
</svg>
