<svg width="14" height="14" viewBox="0 0 14 14" fill="none" xmlns="http://www.w3.org/2000/svg">
<path fill-rule="evenodd" clip-rule="evenodd" d="M2.2 12.4H10C10 12.7312 10.2688 13 10.6 13C10.9312 13 11.2 12.7312 11.2 12.4V11.2C11.2 10.8688 10.9312 10.6 10.6 10.6C10.2688 10.6 10 10.8688 10 11.2H2.2C2.2 10.8688 1.9312 10.6 1.6 10.6C1.2688 10.6 1 10.8688 1 11.2V12.4C1 12.7312 1.2688 13 1.6 13C1.9312 13 2.2 12.7312 2.2 12.4ZM2.2 6.04849V9.40005C2.2 9.73124 2.4688 10 2.8 10H8.8C9.1312 10 9.4 9.73124 9.4 9.40005V6.04849L9.5758 6.22429C9.8098 6.45828 10.1902 6.45828 10.4242 6.22429C10.6582 5.99029 10.6582 5.60989 10.4242 5.3759L6.2242 1.17595C5.9902 0.941351 5.6098 0.941351 5.3758 1.17595L1.1758 5.3759C0.9418 5.60989 0.9418 5.99029 1.1758 6.22429C1.4098 6.45828 1.7902 6.45828 2.0242 6.22429L2.2 6.04849ZM12.4 8.20006V2.80013C12.7312 2.80013 13 2.53133 13 2.20014C13 1.86894 12.7312 1.60014 12.4 1.60014H11.2C10.8688 1.60014 10.6 1.86894 10.6 2.20014C10.6 2.53133 10.8688 2.80013 11.2 2.80013V8.20006C10.8688 8.20006 10.6 8.46886 10.6 8.80005C10.6 9.13125 10.8688 9.40005 11.2 9.40005H12.4C12.7312 9.40005 13 9.13125 13 8.80005C13 8.46886 12.7312 8.20006 12.4 8.20006ZM3.4 4.8485V8.80005H8.2V4.8485L5.8 2.44853L3.4 4.8485Z" fill="#70747D"/>
</svg>
