<svg width="14" height="14" viewBox="0 0 14 14" fill="none" xmlns="http://www.w3.org/2000/svg">
<path d="M7.5 1C6.30653 1 5.16193 1.4741 4.31802 2.31802C3.47411 3.16193 3 4.30651 3 5.49999C3 8.53748 6.96563 11.9687 7.13438 12.115C7.23626 12.2021 7.36593 12.25 7.5 12.25C7.63407 12.25 7.76374 12.2021 7.86562 12.115C8.0625 11.9687 12 8.53748 12 5.49999C12 4.30651 11.5259 3.16193 10.682 2.31802C9.83807 1.4741 8.69347 1 7.5 1ZM7.5 10.9281C6.30187 9.8031 4.125 7.37873 4.125 5.49999C4.125 4.60488 4.48058 3.74644 5.11351 3.11351C5.74645 2.48057 6.60489 2.125 7.5 2.125C8.39511 2.125 9.25355 2.48057 9.88649 3.11351C10.5194 3.74644 10.875 4.60488 10.875 5.49999C10.875 7.37873 8.69812 9.80872 7.5 10.9281Z" fill="#70747D"/>
<path d="M7.5 3.25C7.05499 3.25 6.61998 3.38196 6.24997 3.62919C5.87996 3.87642 5.59157 4.22782 5.42127 4.63896C5.25097 5.05009 5.20642 5.50249 5.29323 5.93894C5.38005 6.3754 5.59434 6.77631 5.90901 7.09098C6.22368 7.40565 6.62459 7.61994 7.06105 7.70675C7.49751 7.79357 7.94991 7.74901 8.36104 7.57872C8.77217 7.40842 9.12357 7.12003 9.37081 6.75002C9.61804 6.38001 9.75 5.945 9.75 5.49999C9.75 4.90326 9.51295 4.33096 9.09099 3.90901C8.66903 3.48705 8.09674 3.25 7.5 3.25ZM7.5 6.62499C7.2775 6.62499 7.05999 6.55901 6.87498 6.43539C6.68998 6.31178 6.54579 6.13608 6.46064 5.93051C6.37549 5.72494 6.35321 5.49874 6.39662 5.28052C6.44003 5.06229 6.54717 4.86183 6.70451 4.7045C6.86184 4.54717 7.0623 4.44002 7.28052 4.39661C7.49875 4.3532 7.72495 4.37548 7.93052 4.46063C8.13609 4.54578 8.31179 4.68997 8.4354 4.87498C8.55902 5.05998 8.625 5.27749 8.625 5.49999C8.625 5.79836 8.50647 6.08451 8.2955 6.29549C8.08452 6.50646 7.79837 6.62499 7.5 6.62499Z" fill="#70747D"/>
</svg>
