<svg width="10" height="10" viewBox="0 0 10 10" fill="none" xmlns="http://www.w3.org/2000/svg">
<path fill-rule="evenodd" clip-rule="evenodd" d="M0.230665 5.35009L4.71375 9.76725C5.02037 10.0776 5.52058 10.0776 5.82725 9.76725L9.77 5.77744C10.0767 5.46716 10.0767 4.96098 9.77 4.65062L5.28697 0.233412C5.12951 0.0740979 4.93619 -0.00449966 4.71353 0.000198829L1.51728 0.0685312C1.13637 0.0766259 0.795631 0.228331 0.510688 0.516777C0.225644 0.805224 0.0757284 1.14992 0.067729 1.5354L0.000202179 4.7698C-0.0045166 4.99513 0.0732298 5.19078 0.230665 5.35009ZM2.36434 2.39257C2.73868 2.01376 3.34561 2.01376 3.71996 2.39257C4.09431 2.77139 4.09431 3.38556 3.71996 3.76435C3.34561 4.14317 2.73868 4.14317 2.36426 3.76435C1.98991 3.38556 1.98991 2.77139 2.36434 2.39257Z" fill="#4681F4"/>
</svg>
