<svg width="14" height="14" viewBox="0 0 14 14" fill="none" xmlns="http://www.w3.org/2000/svg">
<path d="M5.99647 3.75018C6.51511 3.74939 7.02395 3.89181 7.46713 4.1618C7.91031 4.4318 8.2707 4.81893 8.50876 5.28072C8.74682 5.7425 8.85333 6.26109 8.81662 6.77956C8.7799 7.29803 8.60138 7.79634 8.30063 8.2198L8.02145 8.61293L7.62918 8.89272C7.26645 9.15033 6.84818 9.31853 6.40839 9.38365C5.96859 9.44877 5.51966 9.40898 5.0981 9.2675C4.67653 9.12603 4.29422 8.88687 3.98224 8.56946C3.67026 8.25205 3.43741 7.86534 3.30261 7.44077C3.16782 7.01621 3.13488 6.56575 3.20648 6.12603C3.27808 5.6863 3.45219 5.26971 3.71468 4.91011C3.97716 4.55051 4.32059 4.25805 4.71708 4.0565C5.11356 3.85496 5.5519 3.75 5.99647 3.75018ZM5.99647 2.3335C5.32886 2.3326 4.67046 2.48968 4.07486 2.79196C3.47926 3.09424 2.96329 3.53317 2.56893 4.07304C2.17457 4.61291 1.91296 5.23847 1.8054 5.8988C1.69784 6.55913 1.74736 7.23559 1.94994 7.87312C2.15251 8.51065 2.50242 9.09124 2.97118 9.56765C3.43993 10.0441 4.01431 10.4028 4.64755 10.6147C5.28079 10.8267 5.95501 10.8858 6.61535 10.7872C7.27569 10.6887 7.90348 10.4353 8.44765 10.0477L10.439 12.0438C10.714 12.319 11.16 12.319 11.4346 12.0438L11.4448 12.0335C11.5146 11.9706 11.5705 11.8937 11.6087 11.8077C11.6469 11.7218 11.6667 11.6287 11.6667 11.5347C11.6667 11.4406 11.6469 11.3475 11.6087 11.2616C11.5705 11.1756 11.5146 11.0987 11.4448 11.0358L9.45306 9.04006C9.904 8.40464 10.1716 7.65705 10.2266 6.87927C10.2816 6.10149 10.1218 5.32356 9.76471 4.63079C9.40765 3.93802 8.86713 3.35717 8.20243 2.95193C7.53772 2.5467 6.77451 2.33273 5.99647 2.3335Z" fill="#70747D"/>
</svg>
