<svg width="11" height="9" viewBox="0 0 11 9" fill="none" xmlns="http://www.w3.org/2000/svg">
<path d="M3.93565 2.77497L5.12641 0.37697C5.16107 0.307571 5.21438 0.2492 5.28035 0.208403C5.34633 0.167606 5.42237 0.145996 5.49995 0.145996C5.57752 0.145996 5.65356 0.167606 5.71954 0.208403C5.78552 0.2492 5.83883 0.307571 5.87349 0.37697L7.06424 2.77497L9.72624 3.1618C9.80302 3.17245 9.87526 3.20447 9.93472 3.25421C9.99418 3.30395 10.0385 3.3694 10.0625 3.44309C10.0865 3.51679 10.0894 3.59576 10.0707 3.67099C10.052 3.74622 10.0125 3.81468 9.95678 3.86855L8.03086 5.73397L8.48553 8.36939C8.54374 8.70764 8.18624 8.96522 7.88053 8.80572L5.49995 7.56089L3.1189 8.80572C2.81365 8.96568 2.45615 8.70764 2.51436 8.36893L2.96903 5.73351L1.04311 3.86809C0.987648 3.81418 0.94842 3.74579 0.929888 3.6707C0.911356 3.5956 0.914263 3.51681 0.938278 3.44329C0.962293 3.36976 1.00645 3.30445 1.06574 3.25477C1.12503 3.20509 1.19706 3.17304 1.27365 3.16226L3.93565 2.77497Z" fill="#FFC42D"/>
</svg>
