<svg width="218" height="159" viewBox="0 0 218 159" fill="none" xmlns="http://www.w3.org/2000/svg">
<path d="M200.573 34.4016C197.876 29.8211 193.533 26.2122 188.517 24.4474C186.355 23.6939 183.758 23.337 181.993 24.7845C180.228 26.232 180.843 29.9401 183.123 29.8806C176.084 25.0026 167.597 22.2464 159.031 22.0282C156.889 21.9687 154.45 22.2067 153.102 23.8723C151.733 25.538 152.884 28.8296 154.985 28.4529C148.521 24.3086 139.995 25.5777 132.757 28.1554C130.655 28.909 128.573 29.7418 126.491 30.5746C124.211 31.4867 124.885 34.8775 127.344 34.8577L200.573 34.4016Z" fill="#E0E9F8" fill-opacity="0.4"/>
<path d="M16.6175 12.2152C13.9208 12.8696 11.1843 10.6289 11.7594 8.74509C12.3344 6.86132 14.9519 5.57243 17.5892 4.79909C23.5577 3.05412 30.6367 3.07395 36.5855 4.85858C35.1975 4.14473 35.3164 2.63771 36.407 1.7454C37.5175 0.853084 39.2823 0.4565 40.9876 0.238379C49.1175 -0.792738 58.0208 1.58676 62.7997 6.10781C61.2332 4.99738 62.0858 3.01446 63.9696 2.18164C65.8534 1.34881 68.3518 1.34881 70.5925 1.62642C80.2295 2.77651 88.3991 6.28628 90.2432 12.7109L16.6175 12.2152Z" fill="#E0E9F8" fill-opacity="0.4"/>
<path opacity="0.8" d="M12.2348 158.172C19.988 143.261 28.5146 128.746 37.7748 114.727C41.5027 109.075 45.7065 103.206 51.9725 100.608C57.4652 98.3278 63.8898 99.002 69.3032 101.5C74.6967 103.999 79.1781 108.183 82.8862 112.843C86.0787 116.828 89.4893 121.627 94.5854 122.043C100.019 122.5 104.322 117.741 107.673 113.418C118.678 99.2399 129.683 85.0422 140.688 70.8644C144.337 66.1649 148.838 61.0291 154.767 61.0489C160.081 61.0688 164.384 65.2726 167.696 69.4367C187.128 93.8067 194.703 125.276 201.742 155.614L12.2348 158.172Z" fill="#C5D6F1" fill-opacity="0.3"/>
<path opacity="0.5" d="M181.966 132.915C189.807 132.915 196.164 126.558 196.164 118.717C196.164 110.876 189.807 104.52 181.966 104.52C174.125 104.52 167.769 110.876 167.769 118.717C167.769 126.558 174.125 132.915 181.966 132.915Z" fill="#C3D6F3"/>
<path d="M181.886 157.899C181.668 157.859 181.53 157.661 181.53 157.443V123.079C181.53 122.841 181.708 122.623 181.946 122.623C182.204 122.603 182.402 122.801 182.402 123.059V157.482C182.402 157.74 182.164 157.958 181.886 157.899Z" fill="#99B9EE"/>
<path d="M181.966 125.935C181.847 125.935 181.748 125.895 181.649 125.816C181.47 125.637 181.47 125.359 181.649 125.201L185.535 121.314C185.713 121.136 185.991 121.136 186.15 121.314C186.328 121.493 186.328 121.77 186.15 121.929L182.283 125.816C182.184 125.895 182.085 125.935 181.966 125.935Z" fill="#99B9EE"/>
<path d="M181.966 129.544C181.847 129.544 181.748 129.504 181.649 129.425C181.47 129.246 181.47 128.969 181.649 128.81L185.535 124.924C185.713 124.745 185.991 124.745 186.15 124.924C186.328 125.102 186.328 125.38 186.15 125.538L182.283 129.425C182.184 129.504 182.085 129.544 181.966 129.544Z" fill="#99B9EE"/>
<path opacity="0.5" d="M21.9906 135.62C34.1356 135.62 43.9811 125.774 43.9811 113.629C43.9811 101.484 34.1356 91.6387 21.9906 91.6387C9.84551 91.6387 0 101.484 0 113.629C0 125.774 9.84551 135.62 21.9906 135.62Z" fill="#D1E0F6"/>
<path d="M21.9895 157.074C21.7119 157.074 21.4937 156.856 21.4937 156.579V113.629C21.4937 113.351 21.7119 113.133 21.9895 113.133C22.2671 113.133 22.4852 113.351 22.4852 113.629V156.559C22.505 156.836 22.2671 157.074 21.9895 157.074Z" fill="#99B9EE"/>
<path d="M21.9896 125.507C21.8706 125.507 21.7318 125.467 21.6327 125.368L15.4856 119.221C15.2873 119.023 15.2873 118.705 15.4856 118.507C15.6839 118.309 16.0012 118.309 16.1995 118.507L22.3465 124.674C22.5448 124.872 22.5448 125.189 22.3465 125.388C22.2474 125.467 22.1284 125.507 21.9896 125.507Z" fill="#99B9EE"/>
<path d="M21.9896 131.236C21.8706 131.236 21.7318 131.196 21.6327 131.097L15.4856 124.95C15.2873 124.752 15.2873 124.435 15.4856 124.236C15.6839 124.038 16.0012 124.038 16.1995 124.236L22.3465 130.383C22.5448 130.582 22.5448 130.899 22.3465 131.097C22.2474 131.177 22.1284 131.236 21.9896 131.236Z" fill="#99B9EE"/>
<path d="M6.8546 156H212.145C215.386 156 218 156.275 218 156.615V157.385C218 157.725 215.386 158 212.145 158H6.8546C3.61446 158 1 157.725 1 157.385V156.615C1 156.277 3.61446 156 6.8546 156Z" fill="#E0E9F8"/>
<path fill-rule="evenodd" clip-rule="evenodd" d="M124.735 80.301C138.285 80.301 149.27 69.3165 149.27 55.7665C149.27 42.2164 138.285 31.2319 124.735 31.2319C111.185 31.2319 100.2 42.2164 100.2 55.7665C100.2 69.3165 111.185 80.301 124.735 80.301Z" stroke="#F6C300"/>
<path d="M120.909 84.1286C125.973 86.6045 124.494 91.3474 124.494 91.3474C124.494 91.3474 121.664 95.4312 116.584 92.9552C111.519 90.4792 106.133 82.3761 106.133 82.3761C106.133 82.3761 115.844 81.6526 120.909 84.1286Z" fill="#99B9EE"/>
<path d="M120.909 84.1286C125.973 86.6045 124.494 91.3474 124.494 91.3474L106.133 82.3761C106.133 82.3761 115.844 81.6526 120.909 84.1286Z" fill="#E0E9F8"/>
<path d="M128.979 110.671C123.915 113.147 125.394 117.89 125.394 117.89C125.394 117.89 128.223 121.974 133.304 119.498C138.368 117.022 143.754 108.919 143.754 108.919C143.754 108.919 134.06 108.195 128.979 110.671Z" fill="#99B9EE"/>
<path d="M128.979 110.671C123.915 113.147 125.394 117.89 125.394 117.89L143.754 108.919C143.754 108.919 134.06 108.195 128.979 110.671Z" fill="#E4ECF8"/>
<path d="M140.7 152.877C134.253 160.931 124.494 157.266 124.494 157.266C124.494 157.266 118.77 148.552 125.217 140.481C131.664 132.41 149.623 125.834 149.623 125.834C149.623 125.834 147.147 144.805 140.7 152.877Z" fill="#E0E9F8"/>
<path d="M140.7 152.877C134.253 160.931 124.494 157.266 124.494 157.266L149.623 125.834C149.623 125.834 147.147 144.805 140.7 152.877Z" fill="#99B9EE"/>
<path d="M108.883 152.877C115.33 160.931 125.089 157.266 125.089 157.266C125.089 157.266 130.813 148.552 124.365 140.481C117.918 132.426 99.9594 125.834 99.9594 125.834C99.9594 125.834 102.435 144.805 108.883 152.877Z" fill="#E0E9F8"/>
<path d="M108.883 152.877C115.33 160.931 125.089 157.266 125.089 157.266L99.9594 125.834C99.9594 125.834 102.435 144.805 108.883 152.877Z" fill="#99B9EE"/>
<rect x="124.269" y="69.0942" width="0.932507" height="88.3631" fill="#99B9EE"/>
<path d="M107.339 33.4334C105.361 33.4334 103.77 35.0412 103.77 37.0027C103.77 35.0251 102.162 33.4334 100.201 33.4334C102.178 33.4334 103.77 31.8257 103.77 29.8642C103.754 31.8257 105.361 33.4334 107.339 33.4334Z" fill="#FFBE55"/>
<path fill-rule="evenodd" clip-rule="evenodd" d="M109.043 33.4341C106.117 33.4341 103.753 35.7975 103.753 38.7237C103.753 35.7975 101.39 33.4341 98.4639 33.4341C101.39 33.4341 103.753 31.0707 103.753 28.1445C103.753 31.0707 106.133 33.4341 109.043 33.4341Z" stroke="#FFBE55"/>
<path d="M154.141 62.4694C152.999 62.4694 152.067 63.402 152.067 64.5274C152.067 63.3859 151.134 62.4694 150.009 62.4694C151.15 62.4694 152.067 61.5369 152.067 60.4115C152.067 61.5369 152.999 62.4694 154.141 62.4694Z" fill="#FFBE55"/>
<path fill-rule="evenodd" clip-rule="evenodd" d="M155.121 62.4699C153.433 62.4699 152.066 63.8365 152.066 65.5246C152.066 63.8365 150.7 62.4699 149.012 62.4699C150.7 62.4699 152.066 61.1033 152.066 59.4151C152.066 61.1033 153.433 62.4699 155.121 62.4699Z" stroke="#FFBE55" stroke-width="0.75"/>
<path d="M121.134 72.0849H128.256V75.6381C128.256 77.5996 126.664 79.1912 124.703 79.1912C122.741 79.1912 121.15 77.5996 121.15 75.6381V72.0849H121.134Z" fill="#99B9EE"/>
<path d="M124.735 75.7348C135.763 75.7348 144.703 66.7946 144.703 55.7663C144.703 44.738 135.763 35.7978 124.735 35.7978C113.707 35.7978 104.766 44.738 104.766 55.7663C104.766 66.7946 113.707 75.7348 124.735 75.7348Z" fill="#F6C300"/>
<path fill-rule="evenodd" clip-rule="evenodd" d="M124.735 70.7503C133.011 70.7503 139.719 64.0415 139.719 55.7659C139.719 47.4902 133.011 40.7814 124.735 40.7814C116.459 40.7814 109.751 47.4902 109.751 55.7659C109.751 64.0415 116.459 70.7503 124.735 70.7503Z" stroke="#F7F7F7"/>
<path d="M125.474 49.4154C126.825 49.6726 127.629 50.6855 127.629 52.2933V52.5505L125.764 52.7274V52.438C125.764 51.5376 125.442 51.1196 124.735 51.1196C124.156 51.1196 123.754 51.4733 123.754 52.1968V52.438C123.754 53.1454 124.14 53.7403 125.394 54.8818C127.114 56.4735 127.709 57.5024 127.709 58.8851V59.1906C127.709 60.7984 126.841 61.7791 125.474 62.0203V63.3547H123.947V62.0203C122.596 61.7309 121.744 60.718 121.744 59.1424V58.4189L123.609 58.242V59.0137C123.609 59.9141 123.979 60.3321 124.735 60.3321C125.298 60.3321 125.796 59.9784 125.796 59.2549V58.9816C125.796 58.2742 125.41 57.6793 124.156 56.5378C122.436 54.9461 121.841 53.9171 121.841 52.5344V52.2611C121.841 50.6694 122.629 49.6887 123.963 49.4314V48.2899H125.49V49.4154H125.474Z" fill="#F7F7F7"/>
<path d="M79.8404 106.303L76.5091 107.371L76.0216 107.139L75.0814 106.21L75.1743 104.69L77.0199 104.643L79.8404 106.303Z" fill="#FCD2B1"/>
<path d="M68.7435 86.8024C68.7435 86.8024 67.606 99.9419 77.0079 104.643C76.6249 105.096 75.0463 105.815 75.0463 105.815C75.0463 105.815 65.8417 100.232 66.1667 94.0338C66.4917 87.8355 68.7435 86.8024 68.7435 86.8024Z" fill="#EFAE35"/>
<path d="M50.9265 146.707C50.9265 146.707 52.1569 152.395 53.0623 154.96C53.1668 155.262 52.7837 155.506 52.5632 155.285C51.0426 153.788 48.9301 150.758 48.2336 150.062C47.3631 149.191 46.0283 147.566 46.0283 147.566L49.2203 144.757L51.3212 145.814L50.9265 146.707Z" fill="#0B4870"/>
<path d="M62.3481 150.886C62.3481 150.886 67.4205 153.718 69.9509 154.751C70.2527 154.879 70.1831 155.32 69.8581 155.343C67.7339 155.494 64.0544 155.076 63.0794 155.135C61.8606 155.216 59.7481 155.135 59.7481 155.135V150.886L61.9303 150.004L62.3481 150.886Z" fill="#083751"/>
<path d="M67.4902 101.694C67.4902 101.694 67.0027 127.079 66.7241 127.648C66.4455 128.205 62.3481 150.898 62.3481 150.898H59.7481C59.7481 150.898 60.2124 127.184 61.2338 126.302C61.2338 124.212 60.5258 101.903 62.5106 100.313C65.4125 100.139 67.4902 101.694 67.4902 101.694Z" fill="#0B4870"/>
<path d="M58.6919 99.2449C54.9428 102.007 54.1883 114.915 58.0071 124.886C55.5115 129.366 48.048 147.137 48.048 147.137L50.2534 148.46C50.2534 148.46 65.4706 127.532 64.8902 125.373C64.3099 123.214 65.4126 100.127 65.4126 100.127L58.6919 99.2449Z" fill="#0B4870"/>
<path d="M69.4516 83.8893C69.5329 84.2027 69.6374 84.5161 69.765 84.8179C70.5776 86.7447 71.6919 90.726 71.6106 91.3876C71.5177 92.1073 68.9757 94.5564 68.3025 96.4252C67.6293 98.294 67.5132 101.695 67.5132 101.695L58.7149 99.2458C58.7149 99.2458 61.164 93.21 61.2569 90.4822C61.3497 87.7545 62.2899 82.1134 65.7605 81.5446C68.407 81.1035 69.2195 83.0071 69.4516 83.8893Z" fill="#F6C300"/>
<path d="M72.1333 72.3744C72.2958 71.9682 72.2378 71.5039 71.9824 71.1441C70.6592 69.3449 68.2797 68.3351 66.0743 68.7297C63.6252 69.1708 61.5707 71.2833 61.1992 73.7441C61.0599 74.6959 61.1412 75.6709 60.9439 76.6111C60.7117 77.7138 60.0733 78.7352 59.1795 79.4201C58.0652 80.279 56.6259 80.604 55.384 81.2772C54.1304 81.9621 53.0973 82.9835 52.2152 84.1094C51.333 85.2353 50.5669 86.5005 50.3232 87.9166C50.0794 89.3327 50.4276 90.8997 51.4839 91.8631C52.1571 92.4783 53.0277 92.7917 53.8866 93.0819C55.6045 93.6623 57.4036 94.1846 59.2028 93.9873C61.0019 93.7899 62.8242 92.7221 63.3814 90.9926C64.1591 88.555 62.2439 85.9898 62.5921 83.4594C62.8359 81.7415 64.0894 80.3254 65.4823 79.2924C66.8752 78.2593 68.4538 77.47 69.777 76.3557C70.7637 75.5316 71.7038 73.4191 72.1333 72.3744Z" fill="#0B4870"/>
<path d="M69.7535 79.6644C69.3124 80.5698 68.9062 82.9493 69.2892 83.9591C69.6374 84.9574 69.5097 85.1199 69.5097 85.1199L65.6445 81.9511L66.5383 77.5983L69.7535 79.6644Z" fill="#FCD2B1"/>
<path d="M72.899 76.0079C72.899 78.2481 72.3186 80.5348 70.4615 80.5348C68.6043 80.5348 66.1668 78.2481 66.1668 76.0079C66.1668 73.7677 67.6757 71.9454 69.5329 71.9454C71.3901 71.9454 72.899 73.7677 72.899 76.0079Z" fill="#FFE3CA"/>
<path d="M72.7018 71.5383C73.3634 71.4802 73.8161 72.1883 73.4911 72.757C72.8527 73.9062 71.7152 75.0553 69.0687 74.7303C67.8616 74.5794 65.9348 74.7303 65.8187 75.5428L64.8901 73.3374C64.8901 73.3374 65.1223 71.9445 65.3544 71.9445C65.5865 71.9445 67.8848 71.9445 67.8848 71.9445L72.7018 71.5383Z" fill="#0B4870"/>
<path d="M67.6762 74.499C67.328 75.1954 67.1423 76.4374 66.678 76.6696C66.0976 76.333 65.378 74.5803 65.4244 74.5919C65.4709 74.6035 66.0512 74.2552 66.1673 74.2552C66.2834 74.2552 67.6762 74.499 67.6762 74.499Z" fill="#0B4870"/>
<path d="M66.8043 77.7826C67.1318 77.6354 67.2055 77.0896 66.969 76.5633C66.7325 76.0371 66.2754 75.7298 65.9479 75.8769C65.6205 76.0241 65.5468 76.57 65.7833 77.0962C66.0198 77.6224 66.4769 77.9297 66.8043 77.7826Z" fill="#FFE3CA"/>
<path d="M66.5035 78.5153C66.8369 78.5153 67.1071 78.2451 67.1071 77.9117C67.1071 77.5784 66.8369 77.3082 66.5035 77.3082C66.1702 77.3082 65.9 77.5784 65.9 77.9117C65.9 78.2451 66.1702 78.5153 66.5035 78.5153Z" fill="#FFBE55"/>
<path d="M76.0095 119.628L68.8014 113.256C68.546 113.035 68.5228 112.641 68.7434 112.385L73.2122 106.872C73.4327 106.617 73.8274 106.593 74.0827 106.814L81.7436 113.581C81.9989 113.802 82.0221 114.196 81.8016 114.452L76.8801 119.57C76.6479 119.826 76.2649 119.849 76.0095 119.628Z" fill="#99B9EE"/>
<path d="M83.1017 121.682L76.5087 118.629L78.215 116.656L83.6472 120.266L83.7285 120.324L83.1017 121.682Z" fill="#99B9EE"/>
<path fill-rule="evenodd" clip-rule="evenodd" d="M76.6476 106.396C78.4467 105.769 79.9093 105.943 80.8379 106.744C81.778 107.557 82.1611 109.007 81.778 110.923L80.9771 114.881L72.7359 107.766L76.6476 106.396ZM81.1974 110.818C81.534 109.17 81.2671 107.881 80.4545 107.185C79.6536 106.488 78.3768 106.407 76.8447 106.953L73.8732 107.986L80.5938 113.801L81.1974 110.818Z" fill="#99B9EE"/>
<path d="M83.1018 121.682C82.684 120.905 83.1134 120.487 83.6474 120.266L83.7286 120.324L83.1018 121.682Z" fill="#99B9EE"/>
<path d="M63.7757 84.7125C63.6131 89.9823 65.7489 103.493 69.7534 108.821C70.4383 108.461 71.1811 108.055 71.1811 108.055C71.1811 108.055 66.0739 96.3083 67.7105 86.442C67.8846 85.2233 67.7105 84.3527 67.3391 83.7491C66.3641 82.1125 63.8337 82.8206 63.7757 84.7125Z" fill="#DA9A1D"/>
<path d="M69.7533 108.833C69.7533 108.833 70.9024 111.212 71.181 111.468C71.448 111.723 73.4212 112.779 73.9784 112.988C74.5355 113.186 73.2239 111.99 73.2239 111.99C73.2239 111.99 74.2453 112.64 74.7212 112.895C74.7909 112.93 74.8489 112.849 74.8025 112.791C74.4427 112.362 73.5605 111.665 73.5605 111.665C73.5605 111.665 74.9418 112.489 75.557 112.814C75.6266 112.849 75.6846 112.768 75.6382 112.71C75.1971 112.292 74.1989 111.514 74.0248 111.421C74.7561 111.735 75.2784 112.037 75.6034 112.187C75.6498 112.211 75.6846 112.153 75.6498 112.118C75.0114 111.537 72.2953 109.611 72.156 109.576C71.5989 109.448 71.0765 108.125 71.0765 108.125L69.7533 108.833Z" fill="#FCD2B1"/>
<path d="M76.5088 107.37L76.0212 107.138L75.9632 107.057C75.9632 107.057 77.2748 105.722 77.6115 105.571C77.832 105.478 78.7606 105.838 79.3525 106.082C79.5267 106.151 79.5151 106.407 79.3293 106.465C78.3891 106.767 76.5088 107.37 76.5088 107.37Z" fill="#FFE4D2"/>
<path d="M84.6225 120.974L100.745 128.554" stroke="#CCE9FF" stroke-dasharray="12 14"/>
<path d="M83.7287 122.461L94.1753 142.402" stroke="#CCE9FF" stroke-dasharray="12 14"/>
<path d="M87.0017 124.41L100.745 142.401" stroke="#CCE9FF" stroke-dasharray="12 14"/>
<path d="M90.182 125.722L101.116 133.986" stroke="#CCE9FF" stroke-dasharray="12 14"/>
</svg>
